<svg xmlns="http://www.w3.org/2000/svg" viewBox="0 0 720 720" width="720" height="720">
	<style>
		tspan { white-space:pre }
		.shp0 { fill: #005500 } 
	</style>
	<path id="Background" class="shp0" d="M515.63 323.44L345.94 493.13C341.98 497.08 337.19 499.06 331.56 499.06C326.14 499.06 321.46 497.08 317.5 493.13L204.37 380C200.63 376.25 198.75 371.56 198.75 365.94C198.75 360.11 200.63 355.31 204.37 351.56L232.81 323.44C236.77 319.48 241.46 317.5 246.88 317.5C252.29 317.5 256.98 319.48 260.94 323.44L331.56 394.06L459.06 266.88C463.02 262.92 467.71 260.94 473.12 260.94C478.54 260.94 483.23 262.92 487.19 266.88L515.63 295C519.37 298.75 521.25 303.54 521.25 309.37C521.25 315 519.37 319.69 515.63 323.44L515.63 323.44ZM480.47 152.19C443.7 130.73 403.54 120 360 120C316.46 120 276.3 130.73 239.53 152.19C202.76 173.65 173.64 202.76 152.19 239.53C130.73 276.3 120 316.46 120 360C120 403.54 130.73 443.7 152.19 480.47C173.64 517.24 202.76 546.36 239.53 567.81C276.3 589.27 316.46 600 360 600C403.54 600 443.7 589.27 480.47 567.81C517.24 546.36 546.35 517.24 567.81 480.47C589.27 443.7 600 403.54 600 360C600 316.46 589.27 276.3 567.81 239.53C546.35 202.76 517.24 173.65 480.47 152.19Z" />
</svg>