<svg xmlns="http://www.w3.org/2000/svg" viewBox="0 0 720 720" width="720" height="720">
	<style>
		tspan { white-space:pre }
		.shp0 { fill: #008000 } 
		.shp1 { fill: #ff6600 } 
		.shp2 { fill: #803300 } 
		.shp3 { opacity: 0.361;fill: #803300 } 
	</style>
	<path id="Layer 2" class="shp0" d="M311.55 186.58C311.55 186.58 311.63 163.07 293.66 146.71C275.7 130.35 256.26 120.51 256.26 120.51L240 114.81C240 114.81 252.68 116.05 274.15 122.79C295.61 129.52 327.81 150.13 327.81 150.13C327.81 150.13 330.88 134.25 335.94 127.34C341 120.44 345.31 112.46 350.58 110.25C355.84 108.04 373.34 100 373.34 100C373.34 100 364.22 112.37 366.84 120.51C369.45 128.65 366.97 130.05 374.97 135.32C382.97 140.58 391.23 143.29 391.23 143.29C391.23 143.29 395.13 132.3 399.36 129.62C403.59 126.94 413.04 122.48 418.87 121.65C424.7 120.81 406.24 127.83 404.24 142.15C402.24 156.48 402.61 166.08 402.61 166.08L311.55 186.58Z" />
	<path id="Background" class="shp1" d="M360 620C231.7 620 128 516.3 128 388C128 259.7 231.7 156 360 156C488.3 156 592 259.7 592 388C592 516.3 488.3 620 360 620Z" />
	<g id="Folder 1" style="opacity: 0.361">
		<path id="Layer 1" class="shp2" d="M496 268C486.6 268 479 260.4 479 251C479 241.6 486.6 234 496 234C505.4 234 513 241.6 513 251C513 260.4 505.4 268 496 268Z" />
		<path id="Layer 1 copy" class="shp2" d="M533 317C523.6 317 516 309.4 516 300C516 290.6 523.6 283 533 283C542.4 283 550 290.6 550 300C550 309.4 542.4 317 533 317Z" />
		<path id="Layer 1 copy 2" class="shp2" d="M552 375C542.6 375 535 367.4 535 358C535 348.6 542.6 341 552 341C561.4 341 569 348.6 569 358C569 367.4 561.4 375 552 375Z" />
		<path id="Layer 1 copy 3" class="shp2" d="M551 439C541.6 439 534 431.4 534 422C534 412.6 541.6 405 551 405C560.4 405 568 412.6 568 422C568 431.4 560.4 439 551 439Z" />
	</g>
	<path id="Path 1" class="shp3" d="M243.56 212.83C243.49 213.05 240.7 215.15 237.35 217.5C234 219.84 228.52 224 225.16 226.75C221.8 229.5 216.69 234 213.8 236.76C210.91 239.51 205.45 245.13 201.68 249.25C197.91 253.36 191.4 261.55 187.21 267.44C183.02 273.33 177.66 281.57 175.31 285.74C172.96 289.92 169.46 296.69 167.53 300.8C165.61 304.91 162.4 312.58 160.41 317.84C158.41 323.09 155.84 330.89 154.7 335.17C153.55 339.44 151.85 347.13 150.93 352.25C150 357.38 148.94 364.19 148.57 367.39C148.21 370.59 147.74 377.09 147.53 381.82C147.32 386.55 147.26 393.95 147.4 398.26C147.55 402.57 148.08 409.84 148.6 414.42C149.11 418.99 150.27 426.67 151.18 431.49C152.08 436.31 154.06 444.5 155.56 449.69C157.06 454.88 159.68 462.9 161.38 467.53C163.69 473.82 166.71 480.07 173.45 492.47C180.18 504.86 183.78 510.8 187.8 516.17C190.75 520.11 196.06 526.67 199.59 530.76C203.13 534.84 208.93 540.95 212.47 544.34C216.02 547.72 221.84 552.88 225.39 555.8C228.95 558.72 234.76 563.12 238.29 565.59C241.83 568.06 248.07 572.04 252.16 574.44C256.24 576.84 261.94 579.98 264.83 581.42C267.71 582.85 273.59 585.52 277.89 587.34C282.19 589.16 290.02 592.05 295.28 593.77C300.54 595.49 310.16 597.97 316.64 599.28C323.13 600.59 334.39 602.19 341.68 602.84C349.3 603.52 360.83 603.78 368.88 603.45C376.56 603.13 387.52 602.08 393.24 601.12C398.95 600.16 407.29 598.46 411.76 597.35C416.24 596.23 422.77 594.34 426.28 593.14C429.79 591.95 436.55 589.45 441.32 587.59C446.08 585.73 453 582.46 456.69 580.33C460.38 578.19 462.87 576.5 462.21 576.57C461.55 576.64 456.95 578.24 451.97 580.14C447 582.04 438.61 584.68 433.33 586.03C428.06 587.37 419.06 589.25 413.35 590.21C407.63 591.17 396.67 592.21 388.99 592.52C380.94 592.86 369.41 592.6 361.78 591.92C354.5 591.27 343.23 589.67 336.75 588.36C330.26 587.05 320.65 584.57 315.39 582.85C310.12 581.13 302.3 578.24 298 576.42C293.7 574.6 287.82 571.93 284.93 570.5C282.05 569.06 276.34 565.92 272.26 563.52C268.18 561.12 261.94 557.14 258.4 554.67C254.86 552.2 249.06 547.8 245.5 544.88C241.94 541.96 236.13 536.8 232.58 533.42C229.03 530.03 223.23 523.92 219.7 519.84C216.16 515.75 210.86 509.19 207.9 505.25C203.88 499.88 200.29 493.94 193.55 481.54C186.82 469.15 183.8 462.9 181.48 456.6C179.78 451.98 177.17 443.96 175.66 438.77C174.16 433.58 172.19 425.39 171.28 420.57C170.37 415.75 169.21 408.07 168.7 403.49C168.19 398.92 167.65 391.65 167.51 387.34C167.37 383.03 167.42 375.63 167.63 370.9C167.84 366.17 168.31 359.67 168.68 356.47C169.05 353.27 170.11 346.46 171.03 341.33C171.96 336.21 173.65 328.52 174.8 324.25C175.95 319.97 178.52 312.17 180.51 306.91C182.51 301.66 185.71 293.99 187.64 289.88C189.57 285.77 193.06 279 195.42 274.82C197.77 270.65 203.12 262.41 207.31 256.52C211.5 250.63 218.02 242.44 221.79 238.33C225.56 234.21 231.01 228.59 233.9 225.84C236.8 223.08 241.77 218.67 244.96 216.03C248.14 213.39 252.83 209.84 255.36 208.14C257.9 206.43 260.28 204.55 260.66 203.96C261.05 203.33 257.65 204.88 252.51 207.65C247.66 210.27 243.63 212.6 243.56 212.83Z" />
</svg>