<svg xmlns="http://www.w3.org/2000/svg" viewBox="0 0 720 720" width="720" height="720">
	<style>
		tspan { white-space:pre }
		.shp0 { fill: #008000 } 
		.shp1 { fill: #ff6600 } 
		.shp2 { fill: #803300 } 
		.shp3 { fill-opacity: 0.361;fill: #803300 } 
	</style>
	<path id="Layer 2" class="shp0" d="M311.55 214.58C311.55 214.58 311.63 191.07 293.66 174.71C275.7 158.35 256.26 148.51 256.26 148.51L240 142.81C240 142.81 252.68 144.05 274.15 150.79C295.61 157.52 327.81 178.13 327.81 178.13C327.81 178.13 330.88 162.25 335.94 155.34C341 148.44 345.31 140.46 350.58 138.25C355.84 136.04 373.34 128 373.34 128C373.34 128 364.22 140.37 366.84 148.51C369.45 156.65 366.97 158.05 374.97 163.32C382.97 168.58 391.23 171.29 391.23 171.29C391.23 171.29 395.13 160.3 399.36 157.62C403.59 154.94 413.04 150.48 418.87 149.65C424.7 148.81 406.24 155.83 404.24 170.15C402.24 184.48 402.61 194.08 402.61 194.08L311.55 214.58Z" />
	<path id="Background" class="shp1" d="M360 648C231.7 648 128 544.3 128 416C128 287.7 231.7 184 360 184C488.3 184 592 287.7 592 416C592 544.3 488.3 648 360 648Z" />
	<g id="Folder 1" style="fill-opacity: 0.361">
		<path id="Layer 1" class="shp2" d="M496 296C486.6 296 479 288.4 479 279C479 269.6 486.6 262 496 262C505.4 262 513 269.6 513 279C513 288.4 505.4 296 496 296Z" />
		<path id="Layer 1 copy" class="shp2" d="M533 345C523.6 345 516 337.4 516 328C516 318.6 523.6 311 533 311C542.4 311 550 318.6 550 328C550 337.4 542.4 345 533 345Z" />
		<path id="Layer 1 copy 2" class="shp2" d="M552 403C542.6 403 535 395.4 535 386C535 376.6 542.6 369 552 369C561.4 369 569 376.6 569 386C569 395.4 561.4 403 552 403Z" />
		<path id="Layer 1 copy 3" class="shp2" d="M551 467C541.6 467 534 459.4 534 450C534 440.6 541.6 433 551 433C560.4 433 568 440.6 568 450C568 459.4 560.4 467 551 467Z" />
	</g>
	<path id="Path 1" class="shp3" d="M243.56 240.83C243.49 241.05 240.7 243.15 237.35 245.5C234 247.84 228.52 252 225.16 254.75C221.8 257.5 216.69 262 213.8 264.76C210.91 267.51 205.45 273.13 201.68 277.25C197.91 281.36 191.4 289.55 187.21 295.44C183.02 301.33 177.66 309.57 175.31 313.74C172.96 317.92 169.46 324.69 167.53 328.8C165.61 332.91 162.4 340.58 160.41 345.84C158.41 351.09 155.84 358.89 154.7 363.17C153.55 367.44 151.85 375.13 150.93 380.25C150 385.38 148.94 392.19 148.57 395.39C148.21 398.59 147.74 405.09 147.53 409.82C147.32 414.55 147.26 421.95 147.4 426.26C147.55 430.57 148.08 437.84 148.6 442.42C149.11 446.99 150.27 454.67 151.18 459.49C152.08 464.31 154.06 472.5 155.56 477.69C157.06 482.88 159.68 490.9 161.38 495.53C163.69 501.82 166.71 508.07 173.45 520.47C180.18 532.86 183.78 538.8 187.8 544.17C190.75 548.11 196.06 554.67 199.59 558.76C203.13 562.84 208.93 568.95 212.47 572.34C216.02 575.72 221.84 580.88 225.39 583.8C228.95 586.72 234.76 591.12 238.29 593.59C241.83 596.06 248.07 600.04 252.16 602.44C256.24 604.84 261.94 607.98 264.83 609.42C267.71 610.85 273.59 613.52 277.89 615.34C282.19 617.16 290.02 620.05 295.28 621.77C300.54 623.49 310.16 625.97 316.64 627.28C323.13 628.59 334.39 630.19 341.68 630.84C349.3 631.52 360.83 631.78 368.88 631.45C376.56 631.13 387.52 630.08 393.24 629.12C398.95 628.16 407.29 626.46 411.76 625.35C416.24 624.23 422.77 622.34 426.28 621.14C429.79 619.95 436.55 617.45 441.32 615.59C446.08 613.73 453 610.46 456.69 608.33C460.38 606.19 462.87 604.5 462.21 604.57C461.55 604.64 456.95 606.24 451.97 608.14C447 610.04 438.61 612.68 433.33 614.03C428.06 615.37 419.06 617.25 413.35 618.21C407.63 619.17 396.67 620.21 388.99 620.52C380.94 620.86 369.41 620.6 361.78 619.92C354.5 619.27 343.23 617.67 336.75 616.36C330.26 615.05 320.65 612.57 315.39 610.85C310.12 609.13 302.3 606.24 298 604.42C293.7 602.6 287.82 599.93 284.93 598.5C282.05 597.06 276.34 593.92 272.26 591.52C268.18 589.12 261.94 585.14 258.4 582.67C254.86 580.2 249.06 575.8 245.5 572.88C241.94 569.96 236.13 564.8 232.58 561.42C229.03 558.03 223.23 551.92 219.7 547.84C216.16 543.75 210.86 537.19 207.9 533.25C203.88 527.88 200.29 521.94 193.55 509.54C186.82 497.15 183.8 490.9 181.48 484.6C179.78 479.98 177.17 471.96 175.66 466.77C174.16 461.58 172.19 453.39 171.28 448.57C170.37 443.75 169.21 436.07 168.7 431.49C168.19 426.92 167.65 419.65 167.51 415.34C167.37 411.03 167.42 403.63 167.63 398.9C167.84 394.17 168.31 387.67 168.68 384.47C169.05 381.27 170.11 374.46 171.03 369.33C171.96 364.21 173.65 356.52 174.8 352.25C175.95 347.97 178.52 340.17 180.51 334.91C182.51 329.66 185.71 321.99 187.64 317.88C189.57 313.77 193.06 307 195.42 302.82C197.77 298.65 203.12 290.41 207.31 284.52C211.5 278.63 218.02 270.44 221.79 266.33C225.56 262.21 231.01 256.59 233.9 253.84C236.8 251.08 241.77 246.67 244.96 244.03C248.14 241.39 252.83 237.84 255.36 236.14C257.9 234.43 260.28 232.55 260.66 231.96C261.05 231.33 257.65 232.88 252.51 235.65C247.66 238.27 243.63 240.6 243.56 240.83Z" />
</svg>