<svg xmlns="http://www.w3.org/2000/svg" viewBox="0 0 30 30" width="30" height="30">
	<style>
		tspan { white-space:pre }
		.shp0 { fill: #c3c3c3 } 
		.shp1 { fill: #ffffff } 
	</style>
	<g id="Background">
		<path id="Path 1" class="shp0" d="M5.7 1.58C4.38 2.4 2.56 4.27 1.65 5.74C0.47 7.64 -0.01 9.21 -0.02 11.25C-0.03 12.82 0.31 14.77 0.74 15.6C1.17 16.43 2.06 17.88 2.71 18.83C3.36 19.78 4.91 21.06 6.15 21.68C7.59 22.4 9.69 22.8 12 22.8C13.98 22.8 15.73 22.53 15.9 22.2C16.06 21.87 16.54 21.6 16.95 21.61C17.36 21.61 19.59 23.49 21.9 25.79C24.21 28.08 26.59 29.97 27.19 29.98C27.79 29.99 28.67 29.59 29.14 29.1C29.61 28.6 30.01 27.73 30.01 27.15C30.02 26.57 28.13 24.28 25.81 22.05C23.5 19.82 21.6 17.59 21.6 17.1C21.6 16.61 21.87 16.06 22.2 15.9C22.53 15.73 22.81 14.05 22.81 12.15C22.82 10.25 22.44 7.89 21.96 6.9C21.48 5.91 20.33 4.34 19.4 3.4C18.46 2.47 16.89 1.32 15.9 0.84C14.91 0.36 12.75 0 11.1 0.03C9.03 0.07 7.36 0.55 5.7 1.58Z" />
		<path id="Layer 1" class="shp1" d="M11.5 18C7.91 18 5 15.09 5 11.5C5 7.91 7.91 5 11.5 5C15.09 5 18 7.91 18 11.5C18 15.09 15.09 18 11.5 18Z" />
	</g>
</svg>