<svg xmlns="http://www.w3.org/2000/svg" viewBox="0 0 720 720" width="720" height="720">
	<style>
		tspan { white-space:pre }
		.shp0 { fill: #550000 } 
	</style>
	<path id="Background" class="shp0" d="M474.13 448.61L446 477.74C442.04 481.84 437.25 483.89 431.63 483.89C426.21 483.89 421.52 481.84 417.56 477.74L361 419.15L304.44 477.74C300.48 481.84 295.79 483.89 290.38 483.89C284.75 483.89 279.96 481.84 276 477.74L247.88 448.61C243.92 444.51 241.94 439.54 241.94 433.72C241.94 428.11 243.92 423.26 247.88 419.15L304.44 360.57L247.88 301.99C243.92 297.89 241.94 293.04 241.94 287.42C241.94 281.6 243.92 276.64 247.88 272.54L276 243.41C279.96 239.31 284.75 237.26 290.38 237.26C295.79 237.26 300.48 239.31 304.44 243.41L361 301.99L417.56 243.41C421.52 239.31 426.21 237.26 431.63 237.26C437.25 237.26 442.04 239.31 446 243.41L474.13 272.54C478.08 276.64 480.06 281.6 480.06 287.42C480.06 293.04 478.08 297.89 474.13 301.99L417.56 360.57L474.13 419.15C478.08 423.26 480.06 428.11 480.06 433.72C480.06 439.54 478.08 444.51 474.13 448.61L474.13 448.61ZM481.47 145.34C444.7 123.12 404.54 112 361 112C317.46 112 277.3 123.12 240.53 145.34C203.76 167.56 174.64 197.72 153.19 235.8C131.73 273.89 121 315.48 121 360.57C121 405.67 131.73 447.26 153.19 485.34C174.64 523.43 203.76 553.58 240.53 575.81C277.3 598.03 317.46 609.14 361 609.14C404.54 609.14 444.7 598.03 481.47 575.81C518.24 553.58 547.35 523.43 568.81 485.34C590.27 447.26 601 405.67 601 360.57C601 315.48 590.27 273.89 568.81 235.8C547.35 197.72 518.24 167.56 481.47 145.34Z" />
</svg>