<svg xmlns="http://www.w3.org/2000/svg" viewBox="0 0 1572 884" width="1572" height="884">
	<style>
		tspan { white-space:pre }
		.shp0 { fill: #ffffff } 
		.shp1 { fill: #bf413a } 
		.shp2 { fill: #696868 } 
		.shp3 { fill: #434343 } 
	</style>
	<g >
		<path class="shp0" d="M0 442L0 884L1572 884L1572 0L0 0L0 442Z" />
		<path class="shp1" d="M487 151.71C484.52 151.9 477.55 152.93 471.5 153.99C465.45 155.04 455.32 157.47 449 159.37C442.68 161.28 433.23 164.71 428 167.01C422.77 169.3 414 173.7 408.5 176.79C403 179.89 394 185.8 388.5 189.93C383 194.06 373.54 202.4 367.47 208.47C361.4 214.54 353.53 223.4 349.97 228.17C346.41 232.93 340.24 242.27 336.25 248.92C332.26 255.56 329 261.23 329 261.5C329 261.77 327.72 264.81 326.16 268.25C324.6 271.69 321.23 281.25 318.66 289.5C315.48 299.73 313.49 308.47 312.41 317C311.52 324.07 310.83 336.88 310.83 346.5C310.84 357.1 311.46 367.64 312.48 374.5C313.38 380.55 314.98 388.88 316.03 393C317.08 397.13 319.24 404.32 320.84 409C322.43 413.68 325.67 421.77 328.03 427C330.38 432.23 334.73 440.55 337.68 445.5C340.64 450.45 346.22 458.77 350.1 464C353.97 469.23 361.27 477.72 366.32 482.88C371.37 488.04 379.55 495.28 384.5 498.98C389.45 502.68 397.1 508.07 401.5 510.95C405.9 513.83 414 518.33 419.5 520.96C425 523.58 433.32 527.18 438 528.96C442.68 530.74 452.57 533.75 460 535.65C468.93 537.94 477.9 539.46 486.5 540.16C493.65 540.73 505.57 540.94 513 540.61C520.42 540.29 530.77 539.33 536 538.48C541.23 537.64 550.45 535.63 556.5 534.02C562.55 532.42 571.33 529.56 576 527.68C580.67 525.8 588.66 522.18 593.75 519.63C598.84 517.08 608.5 511.29 615.22 506.75C623.46 501.19 631.66 494.42 640.35 486C647.45 479.13 656.48 469.23 660.43 464C664.37 458.77 670.14 450.23 673.23 445C676.33 439.77 680.85 431 683.29 425.5C685.72 420 688.89 411.9 690.34 407.5C691.78 403.1 693.85 395.68 694.95 391C696.04 386.32 697.63 377.89 698.47 372.25C699.35 366.34 700 355.23 700 346C700 336.74 699.35 325.68 698.47 319.75C697.62 314.11 695.99 305.45 694.83 300.5C693.68 295.55 691.19 287 689.29 281.5C687.39 276 683.45 266.55 680.53 260.5C677.6 254.45 672.4 245.22 668.96 240C665.53 234.78 660.12 227.35 656.95 223.5C653.79 219.65 646.76 212.11 641.35 206.74C635.93 201.37 627 193.62 621.5 189.53C616 185.43 607.67 179.89 603 177.21C598.33 174.54 590.23 170.42 585 168.07C579.77 165.71 571.67 162.5 567 160.94C562.33 159.37 553.33 156.97 547 155.61C540.67 154.25 531.11 152.65 525.75 152.07C520.39 151.48 510.49 151.08 503.75 151.17C497.01 151.27 489.48 151.51 487 151.71ZM1277 152.12C1272.88 152.6 1265.9 153.7 1261.5 154.58C1257.1 155.45 1249.45 157.32 1244.5 158.71C1239.55 160.11 1232.24 162.55 1228.25 164.13C1224.26 165.71 1216.95 169.03 1212 171.5C1207.05 173.97 1199.96 177.86 1196.25 180.13C1192.54 182.4 1185.45 187.31 1180.5 191.04C1175.55 194.77 1166.51 202.92 1160.41 209.16C1154.31 215.4 1146.69 224.1 1143.47 228.5C1140.26 232.9 1136.09 238.53 1134.22 241C1132.35 243.47 1127.81 251.57 1124.13 259C1120.44 266.43 1116.44 275.43 1115.23 279C1114.02 282.57 1111.87 289.77 1110.46 295C1109.05 300.23 1107.01 310.13 1105.92 317C1104.53 325.76 1103.93 334.59 1103.9 346.5C1103.88 357.78 1104.41 366.7 1105.49 373C1106.38 378.23 1107.75 384.98 1108.53 388C1109.32 391.02 1110.11 394.85 1110.31 396.5C1110.5 398.15 1110.93 400.18 1111.26 401C1111.59 401.82 1113.32 406.77 1115.09 412C1116.87 417.23 1120.78 426.45 1123.78 432.5C1126.79 438.55 1131.28 446.65 1133.77 450.5C1136.25 454.35 1140.86 460.88 1144.01 465C1147.16 469.13 1152.83 475.84 1156.62 479.92C1160.4 484 1167.78 490.93 1173 495.33C1178.22 499.73 1186.78 506.12 1192 509.53C1197.22 512.94 1206.67 518.25 1213 521.33C1219.33 524.42 1230.13 528.72 1237 530.89C1243.88 533.06 1254 535.75 1259.5 536.86C1265 537.97 1273.89 539.36 1279.25 539.94C1284.61 540.52 1293.39 540.99 1298.75 540.98C1304.11 540.97 1312.78 540.52 1318 539.98C1323.22 539.44 1332.22 538.05 1338 536.9C1343.78 535.75 1353.67 533.08 1360 530.98C1366.33 528.87 1375.55 525.28 1380.5 523C1385.45 520.71 1393.55 516.46 1398.5 513.54C1403.45 510.62 1411.55 505.1 1416.5 501.28C1421.45 497.45 1429.28 490.76 1433.89 486.41C1438.51 482.06 1445.9 474 1450.31 468.5C1454.73 463 1460.2 455.57 1462.48 452C1464.76 448.43 1468.47 442.13 1470.72 438C1472.98 433.88 1476.69 426 1478.97 420.5C1481.25 415 1484.4 406.23 1485.96 401C1487.51 395.77 1489.83 385.65 1491.1 378.5C1493 367.75 1493.4 362.03 1493.38 345.5C1493.36 328.99 1492.96 323.32 1491.06 313C1489.79 306.13 1487.49 296.23 1485.95 291C1484.41 285.77 1480.76 275.88 1477.85 269C1474.95 262.13 1469.72 251.78 1466.24 246C1462.75 240.22 1457.34 232.14 1454.2 228.04C1451.07 223.93 1444.22 216.11 1439 210.66C1433.78 205.21 1426.13 198.03 1422 194.71C1417.88 191.38 1410.45 185.99 1405.5 182.72C1400.55 179.46 1391.1 174.15 1384.5 170.94C1377.9 167.72 1367.1 163.3 1360.5 161.1C1353.9 158.9 1344 156.21 1338.5 155.11C1333 154.01 1324.11 152.64 1318.75 152.06C1313.39 151.48 1303.49 151.06 1296.75 151.13C1290.01 151.2 1281.13 151.65 1277 152.12Z" />
		<path class="shp0" d="M485 188.02C481.43 188.51 475.13 189.67 471 190.58C466.88 191.49 459.45 193.56 454.5 195.19C449.55 196.81 439.88 201.03 433 204.56C426.13 208.09 417.35 213.28 413.5 216.09L406.5 221.2L630.06 444.5C633.13 440.63 635.98 436.57 638.37 433C640.77 429.43 644.98 422 647.74 416.5C650.51 411 654.19 402.23 655.93 397C657.67 391.77 660.07 383 661.26 377.5C663.1 368.99 663.43 364.3 663.43 346C663.43 327.4 663.12 323.08 661.16 314C659.91 308.23 657.52 299.45 655.84 294.5C654.17 289.55 649.9 279.88 646.37 273C642.84 266.13 636.92 256.46 633.22 251.51C629.53 246.57 623.8 239.65 620.5 236.13C617.2 232.61 610.9 226.84 606.5 223.31C602.1 219.78 595.58 214.95 592 212.59C588.42 210.22 581.45 206.24 576.5 203.75C571.55 201.26 562.77 197.57 557 195.57C551.23 193.56 542.23 191.02 537 189.92C530.22 188.49 522.35 187.8 509.5 187.51C499.6 187.29 488.57 187.52 485 188.02ZM1282.5 187.6C1280.85 187.84 1275.22 188.74 1270 189.6C1264.78 190.46 1255.78 192.72 1250 194.61C1244.22 196.51 1234.1 200.75 1227.5 204.03C1220.9 207.32 1211.9 212.53 1207.5 215.61L1199.5 221.22L1221.5 243.01L1244 243C1244 254.61 1243.8 255.11 1241.01 256.75C1239.36 257.71 1238.01 258.73 1238.01 259C1238 259.27 1279.74 301.27 1330.75 352.33L1423.5 445.16C1433.87 429.92 1439.36 420.32 1442.39 414C1445.42 407.68 1448.98 399.13 1450.31 395C1451.64 390.88 1453.79 382.32 1455.09 376C1457.06 366.36 1457.44 361.5 1457.45 346C1457.45 332.32 1456.99 325.16 1455.68 318.5C1454.7 313.55 1453.18 306.8 1452.31 303.5C1451.43 300.2 1448.9 293 1446.68 287.5C1444.46 282 1441.07 274.57 1439.16 271C1437.25 267.43 1432.94 260.46 1429.59 255.52C1426.24 250.58 1419 241.86 1413.5 236.13C1408 230.41 1400.13 223.15 1396 220.01C1391.88 216.86 1385.35 212.36 1381.5 210C1377.65 207.64 1370.22 203.73 1365 201.31C1359.78 198.89 1352.13 195.84 1348 194.54C1343.88 193.23 1336 191.2 1330.5 190.03C1323.09 188.44 1315.97 187.8 1303 187.53C1293.38 187.33 1284.15 187.36 1282.5 187.6Z" />
		<path class="shp2" d="M282.39 240.15C276.95 244.09 268.68 250.48 264 254.36C259.32 258.24 248.3 267.48 239.5 274.9C230.7 282.32 218.32 292.91 212 298.42C205.68 303.93 196.79 311.71 192.25 315.72C187.71 319.72 183.55 323 183 323C182.36 323 182 314.67 182 300L182 277C178.51 276.18 164.9 276.07 149.5 276.22L121.5 276.5L120.5 378.72C103.45 393.87 95.13 401.28 91 404.97C86.88 408.65 77.2 417.2 69.5 423.96C61.8 430.73 54.69 437.22 53.71 438.38C52.72 439.55 51.92 441.4 51.92 442.5C51.93 443.6 52.85 445.74 53.97 447.25C55.4 449.19 56.89 450 59 450C61.46 450 66.02 446.52 84.25 430.78C96.49 420.21 113.47 405.54 122 398.17C130.53 390.81 138.63 383.82 140 382.64C141.38 381.46 147.23 376.43 153 371.45C158.78 366.47 168.9 357.74 175.5 352.05C182.1 346.35 195.15 335.13 204.5 327.1C213.85 319.07 223.07 311.1 225 309.39C226.93 307.67 237.05 298.9 247.51 289.89C257.96 280.87 272.59 268.23 280.01 261.79C287.43 255.35 293.84 250.06 294.25 250.04C294.66 250.02 301.3 255.4 309 262C319.19 270.74 323.24 273.66 323.9 272.75C324.39 272.06 325.55 269.7 326.48 267.5C327.41 265.3 328.58 262.49 329.09 261.25C329.91 259.21 328.86 258.09 317.75 249.25C311.01 243.89 303.36 238.04 300.75 236.25C298.14 234.46 295.16 233 294.14 233C293.11 233 287.83 236.22 282.39 240.15ZM904.66 243.75C904.42 244.16 904.35 246.53 904.51 249C904.66 251.47 904.82 253.95 904.86 254.5C904.9 255.05 908.55 257.19 912.97 259.25L921 263L921 642C912.09 645.87 908.38 647.57 907 648.29C904.89 649.38 904.47 650.34 904.34 654.54C904.25 657.27 904.47 660.05 904.84 660.73C905.36 661.7 941.48 661.91 1074.5 661.73L1243.5 661.5C1243.9 652.98 1243.62 650.05 1243.14 649.5C1242.66 648.95 1239.17 647.16 1235.38 645.53C1231.6 643.9 1228.17 642.1 1227.77 641.53C1227.36 640.96 1227.02 615.19 1227.02 584.25L1227 528C1207.24 518.5 1197.22 512.95 1192 509.54C1186.78 506.12 1178.22 499.73 1173 495.33C1167.78 490.93 1160.4 484 1156.62 479.92C1152.83 475.84 1147.16 469.13 1144.01 465C1140.86 460.88 1136.25 454.35 1133.77 450.5C1131.28 446.65 1126.88 438.77 1123.98 433C1121.08 427.23 1117.09 417.72 1115.11 411.87C1113.12 406.02 1111.16 400.96 1110.75 400.62C1110.34 400.28 1107.64 402.35 1104.75 405.22C1101.13 408.82 1096.93 411.62 1091.25 414.22C1084.06 417.51 1082.88 418.42 1082.08 421.25C1081.58 423.04 1080.58 426.98 1079.86 430C1079.15 433.02 1078.6 440.45 1078.65 446.5C1078.7 452.87 1079.45 460.66 1080.42 465C1081.35 469.13 1082.65 473.07 1083.31 473.77C1083.96 474.47 1086.53 475.48 1089 476.02C1091.47 476.56 1095.53 478.3 1098 479.88C1100.47 481.47 1104.75 483.09 1107.5 483.49C1110.25 483.89 1114.75 485.22 1117.5 486.44C1120.39 487.72 1124.18 490.57 1126.5 493.22C1129.63 496.78 1131.92 498.26 1137 499.97C1140.58 501.18 1144.96 503.26 1146.75 504.59C1148.54 505.91 1150 507.68 1150 508.5C1150 509.32 1149.33 510.23 1148.5 510.5C1147.67 510.77 1113.92 511 1073.5 511C1004.15 511 1000 510.9 1000.03 509.25C1000.05 508.29 1001.96 506.09 1004.28 504.37C1006.6 502.65 1010.08 500.45 1012 499.48C1013.92 498.51 1017.52 497.14 1020 496.43C1023.37 495.46 1025.14 494.18 1027.06 491.32C1028.47 489.22 1031.17 486.51 1033.06 485.29C1034.95 484.08 1038.75 482.44 1041.5 481.64C1044.25 480.85 1049.2 479.93 1052.5 479.6C1055.8 479.26 1060.3 478.09 1062.5 476.99C1064.7 475.89 1067.4 474.99 1068.5 475.01C1070.29 475.03 1070.42 474.64 1069.71 471.27C1069.28 469.2 1068.69 464.13 1068.4 460C1068.11 455.88 1067.68 451.49 1067.44 450.25C1067.06 448.29 1066.39 448 1062.25 448.02C1059.64 448.04 1055.92 447.4 1054 446.6C1052.08 445.81 1049.09 443.66 1047.37 441.83C1045.65 440 1043.7 437.38 1043.03 436C1042.37 434.63 1042.09 432.94 1042.41 432.25C1042.83 431.37 1045.3 431.08 1050.75 431.28C1057.18 431.51 1059.22 432.02 1062.75 434.28C1065.74 436.19 1067.13 436.63 1067.44 435.75C1067.68 435.06 1068.55 431.13 1069.36 427C1070.49 421.27 1070.56 419.2 1069.67 418.24C1069.03 417.54 1067.38 416.72 1066 416.42C1064.63 416.12 1061.25 414.78 1058.5 413.45C1055.75 412.13 1050.85 408.67 1047.61 405.77C1044.28 402.79 1040.63 398.33 1039.21 395.5C1037.83 392.75 1036.1 388.25 1035.36 385.5C1034.63 382.75 1034.06 376.68 1034.11 372C1034.16 367.32 1034.52 362.38 1034.91 361C1035.53 358.81 1036.17 358.5 1040.06 358.51C1043.1 358.52 1046.87 359.68 1052 362.16C1056.33 364.25 1061.61 367.85 1064.5 370.67C1067.25 373.36 1070.91 378.25 1072.63 381.53C1074.35 384.81 1076.02 389.07 1076.33 391C1076.65 392.93 1077.6 395.06 1078.45 395.75C1079.76 396.8 1080.3 396.49 1081.9 393.75C1082.94 391.96 1085.53 388.91 1087.65 386.98C1089.77 385.04 1092.85 382.92 1094.5 382.27C1096.15 381.62 1099.41 380.62 1101.75 380.05C1104.72 379.31 1106 378.47 1106.01 377.25C1106.02 376.29 1105.55 373.02 1104.97 370C1104.4 366.98 1103.92 356.63 1103.92 347C1103.91 336.23 1104.5 325.66 1105.45 319.5C1106.3 314 1106.99 308.6 1106.99 307.5C1107 305.54 1106.43 305.51 1075.75 305.79C1058.56 305.94 1043.49 305.83 1042.25 305.54C1041.01 305.24 1038.86 303.76 1037.47 302.25C1035.57 300.19 1034.94 298.44 1034.97 295.25C1034.99 291.89 1035.63 290.37 1038 288L1041 285C1105 284.93 1106.63 285.02 1109.24 286.94L1111.99 288.95C1115.2 279.3 1117.05 274.25 1118.18 271.5C1119.3 268.75 1122.76 261.56 1125.86 255.53C1128.96 249.5 1131.61 244.21 1131.75 243.78C1131.89 243.35 1080.95 243 1018.55 243C956.15 243 904.9 243.34 904.66 243.75ZM1223.96 243.75C1223.94 244.16 1226.98 247.75 1230.71 251.72L1237.5 258.94C1243.84 255.1 1244 254.7 1244 249L1244 243C1228.5 243 1223.98 243.34 1223.96 243.75Z" />
		<path class="shp0" d="M375.02 254.79C372.01 259.03 367.12 267.23 364.16 273L358.77 283.5C362.44 286.77 375.65 298.24 390.5 311.09C405.35 323.94 425.15 341.16 434.5 349.35C443.85 357.55 454.43 366.82 458 369.97C461.57 373.11 468.77 379.47 474 384.1C479.23 388.73 485.75 394.49 488.5 396.9C491.25 399.3 502.48 409.2 513.46 418.89C524.44 428.57 534.24 437.4 535.23 438.5C536.23 439.6 537.04 441.63 537.05 443C537.05 444.38 536.03 446.5 534.78 447.73C533.52 448.95 531.26 449.97 529.75 449.98C527.65 450 523.48 446.97 512.18 437.25C504.02 430.24 489.55 417.75 480.02 409.5C470.49 401.25 460.58 392.7 458 390.5C455.41 388.3 445.69 379.93 436.4 371.91C427.1 363.88 414.32 352.84 408 347.37C401.68 341.9 386.71 329.01 374.75 318.72L353 300C350.66 308.14 349.53 313.09 348.99 316.25C348.45 319.41 348.16 322.34 348.36 322.75C348.56 323.16 363.75 336.08 382.11 351.45C400.47 366.82 418.43 381.84 422 384.82C425.57 387.79 433.23 394.21 439 399.07C444.77 403.94 455.8 413.14 463.5 419.53C471.2 425.92 478.31 432.12 479.29 433.32C480.94 435.32 481.08 438.24 481.04 469.25L481 503C485.26 504.16 495.27 504.47 506 504.44C522.28 504.39 527.23 504.01 536 502.13C541.77 500.89 550.33 498.61 555 497.05C559.67 495.5 568 492.13 573.5 489.56C579 486.99 587.89 481.99 593.25 478.44C598.61 474.9 603.2 471.66 603.44 471.25C603.69 470.84 553.63 420.23 492.19 358.79L380.5 247.08L375.02 254.79Z" />
		<path class="shp2" d="M1168.84 255.25C1166.37 258.69 1163.4 263.07 1162.23 265C1161.07 266.93 1158.35 272.1 1156.19 276.5C1154.02 280.9 1150.9 288.32 1149.24 293C1147.58 297.68 1145.31 305.77 1144.2 311C1143.08 316.23 1141.61 324.77 1140.93 330C1140.13 336.1 1139.91 344.15 1140.32 352.5C1140.69 359.83 1142.04 370.73 1143.43 377.5C1144.79 384.1 1147.32 393.55 1149.06 398.5C1150.8 403.45 1153.67 410.43 1155.43 414C1157.19 417.57 1159.93 422.75 1161.52 425.5C1163.11 428.25 1165.97 432.75 1167.86 435.5C1169.76 438.25 1174.1 443.88 1177.51 448C1180.92 452.13 1187.49 458.9 1192.11 463.05C1196.72 467.21 1202.3 471.97 1204.5 473.64C1206.7 475.31 1212.33 479 1217 481.85C1221.67 484.69 1225.84 487.02 1226.25 487.01C1226.66 487 1227.11 445.13 1227.25 393.96L1227.5 300.91C1187.2 260.69 1175.01 249.01 1174.42 249.01C1173.82 249 1171.31 251.81 1168.84 255.25ZM275.37 294.28C266.64 301.58 230.7 331.58 195.5 360.93C160.3 390.29 131.28 414.6 131 414.95C130.72 415.3 125.78 419.42 120 424.12C114.22 428.82 109.16 433.41 108.75 434.33C108.34 435.25 108 483.7 108 542L108 648L113 653C170.83 653 184.09 652.64 184.25 652.02C184.39 651.48 184.39 648.11 184.25 644.52L184 638L123 638L123 440.5C185.39 388.42 216.32 362.56 232 349.43C247.68 336.3 267.93 319.35 277 311.76C286.07 304.17 293.95 297.98 294.5 298C295.05 298.03 299.21 301.19 303.75 305.02C308.29 308.86 312.19 311.89 312.43 311.75C312.66 311.61 313.56 308.13 314.42 304C315.88 296.98 315.87 296.4 314.24 294.9C313.28 294.02 309.24 290.54 305.25 287.15C299.49 282.26 297.31 281 294.62 281C291.76 281 288.86 283 275.37 294.28ZM358.75 285.1C358.38 285.87 357.16 288.98 356.04 292C354.92 295.02 354 298.29 354 299.25C354 300.29 362.41 308.21 374.71 318.75C386.11 328.51 400.84 341.18 407.46 346.9C414.08 352.62 427.1 363.87 436.4 371.9C445.69 379.93 455.41 388.3 458 390.5C460.58 392.7 470.49 401.25 480.02 409.5C489.55 417.75 504.02 430.24 512.18 437.25C523.29 446.81 527.69 450.01 529.75 450.03C531.32 450.04 533.46 449.07 534.73 447.78C535.95 446.52 536.98 444.38 537 443C537.02 441.63 536.23 439.6 535.23 438.5C534.24 437.4 524.44 428.57 513.46 418.89C502.48 409.2 491.25 399.3 488.5 396.9C485.75 394.49 479.23 388.73 474 384.1C468.77 379.47 461.57 373.11 458 369.97C454.43 366.82 443.85 357.55 434.5 349.35C425.15 341.16 405.35 323.94 390.5 311.07C375.65 298.21 362.58 286.79 361.46 285.69C359.81 284.08 359.29 283.97 358.75 285.1Z" />
		<path class="shp0" d="M1038.01 287.9C1035.29 290.37 1034.83 291.45 1034.93 295.15C1034.99 297.63 1035.79 300.42 1036.77 301.63C1037.72 302.81 1039.51 304.27 1040.75 304.88C1042.26 305.63 1053.21 305.99 1074.25 305.98C1091.44 305.98 1106.07 305.64 1106.78 305.23C1107.48 304.83 1108.97 301.13 1110.09 297L1112.14 289.5C1107.02 285.01 1106.79 285 1074.11 285L1041.22 285L1038.01 287.9ZM135.94 292.25C135.91 292.94 135.94 309.25 136 328.5C136.06 347.75 136.29 363.73 136.51 364C136.73 364.27 139.07 362.52 141.71 360.11C144.34 357.69 151.13 351.62 156.79 346.61L167.09 337.5L167 291C139.8 291 135.99 291.31 135.94 292.25ZM1227 394.5L1227 488C1237.46 492.79 1244.33 495.44 1249 496.98C1253.67 498.52 1262.45 500.83 1268.5 502.11C1277.82 504.09 1282.4 504.45 1298.5 504.46C1314.08 504.46 1319.48 504.06 1328.5 502.26C1334.55 501.05 1343.1 498.88 1347.5 497.44C1351.9 496 1360.45 492.47 1366.5 489.6C1372.55 486.74 1380.88 482.22 1385 479.56C1389.13 476.91 1393.69 473.78 1395.15 472.62L1397.8 470.5C1266.59 339.14 1228.16 301 1227.75 301C1227.34 301 1227 343.07 1227 394.5Z" />
		<path class="shp2" d="M347.61 328.75C347.27 331.36 346.98 335.07 346.97 337C346.97 339.66 347.75 341.25 350.23 343.62C352.03 345.34 377.13 366.44 406 390.52C434.88 414.59 460.17 435.68 462.22 437.39L465.93 440.5L465.96 499.5C476.45 501.97 479.84 502.53 480.25 502.35C480.66 502.16 481.02 487.04 481.04 468.75C481.08 438.22 480.94 435.32 479.29 433.32C478.31 432.12 471.2 425.92 463.5 419.53C455.8 413.14 444.77 403.94 439 399.07C433.23 394.21 425.57 387.79 422 384.82C418.43 381.84 400.54 366.94 382.25 351.7C363.96 336.47 348.83 324 348.62 324C348.41 324 347.96 326.14 347.61 328.75Z" />
		<path class="shp0" d="M346.02 346.25C346.03 349.14 346.48 355.77 347.02 361C347.56 366.23 348.73 374.1 349.61 378.5C350.5 382.9 352.56 390.55 354.2 395.5C355.84 400.45 359.09 408.55 361.42 413.5C363.76 418.45 367.6 425.65 369.97 429.5C372.33 433.35 377.06 440.1 380.5 444.5C383.93 448.9 390.39 455.99 394.87 460.25C399.34 464.51 406.71 470.74 411.25 474.1C415.79 477.45 422.88 482.08 427 484.39C431.13 486.69 438.32 490.2 443 492.19C447.68 494.17 453.52 496.46 456 497.26C458.48 498.07 461.74 499.02 463.25 499.37L466 500L465.93 440.5C460.17 435.68 434.88 414.59 406 390.52C377.13 366.44 352.15 345.46 350.5 343.89C348.85 342.32 347.16 341.02 346.75 341.02C346.34 341.01 346.01 343.36 346.02 346.25ZM1035.5 359.12C1035.03 359.86 1034.44 364.52 1034.2 369.48C1033.95 374.73 1034.28 380.8 1035 384C1035.68 387.02 1037.47 391.98 1038.98 395C1040.66 398.37 1044 402.54 1047.61 405.77C1050.85 408.67 1055.75 412.13 1058.5 413.45C1061.25 414.78 1064.63 416.12 1066 416.42C1067.38 416.72 1069.03 417.54 1069.67 418.24C1070.56 419.2 1070.49 421.27 1069.36 427C1068.55 431.13 1067.68 435.06 1067.44 435.75C1067.13 436.63 1065.74 436.19 1062.75 434.28C1059.22 432.02 1057.18 431.51 1050.75 431.28C1045.3 431.08 1042.83 431.37 1042.41 432.25C1042.09 432.94 1042.37 434.63 1043.03 436C1043.7 437.38 1045.65 440 1047.37 441.83C1049.09 443.66 1052.08 445.81 1054 446.6C1055.92 447.4 1059.64 448.04 1062.25 448.02C1066.39 448 1067.06 448.29 1067.44 450.25C1067.68 451.49 1068.11 455.88 1068.4 460C1068.69 464.13 1069.28 469.2 1069.71 471.27C1070.42 474.64 1070.29 475.03 1068.5 475.01C1067.4 474.99 1064.7 475.89 1062.5 476.99C1060.3 478.09 1055.8 479.26 1052.5 479.6C1049.2 479.93 1044.25 480.84 1041.5 481.62C1038.75 482.41 1034.92 484.08 1033 485.34C1031.08 486.6 1028.49 489.29 1027.25 491.31C1025.5 494.18 1023.94 495.3 1020.25 496.36C1017.64 497.11 1013.92 498.51 1012 499.48C1010.08 500.45 1006.6 502.65 1004.28 504.37C1001.96 506.09 1000.05 508.29 1000.03 509.25C1000 510.9 1004.15 511 1073.5 511C1113.92 511 1147.67 510.77 1148.5 510.5C1149.33 510.23 1150 509.32 1150 508.5C1150 507.68 1148.54 505.91 1146.75 504.59C1144.96 503.26 1140.58 501.18 1137 499.97C1131.92 498.26 1129.63 496.78 1126.5 493.22C1124.18 490.57 1120.39 487.72 1117.5 486.44C1114.75 485.22 1110.25 483.89 1107.5 483.49C1104.75 483.09 1100.47 481.47 1098 479.88C1095.53 478.3 1091.47 476.56 1089 476.02C1086.53 475.48 1083.96 474.47 1083.31 473.77C1082.65 473.07 1081.35 469.13 1080.42 465C1079.45 460.66 1078.7 452.87 1078.65 446.5C1078.6 440.45 1079.15 433.02 1079.86 430C1080.58 426.98 1081.58 423.04 1082.08 421.25C1082.88 418.43 1084.1 417.48 1091.25 414.13C1095.79 412 1101.3 408.68 1103.5 406.74C1105.7 404.81 1108.23 401.94 1109.11 400.36C1110.61 397.7 1110.58 396.88 1108.69 388.5C1107.57 383.55 1106.62 379.38 1106.58 379.23C1106.54 379.08 1104.25 379.48 1101.5 380.13C1098.75 380.77 1094.92 382.07 1093 383.03C1091.08 383.98 1087.81 386.61 1085.75 388.88C1083.69 391.15 1081.55 393.9 1081 395C1080.17 396.65 1079.73 396.78 1078.45 395.75C1077.6 395.06 1076.65 392.93 1076.33 391C1076.02 389.07 1074.35 384.81 1072.63 381.53C1070.91 378.25 1067.25 373.36 1064.5 370.67C1061.75 367.98 1056.35 364.23 1052.5 362.33C1048.65 360.43 1043.44 358.62 1040.93 358.32C1037.7 357.93 1036.11 358.16 1035.5 359.12Z" />
		<path class="shp2" d="M189.53 429.5C189.05 429.82 189.21 432.19 189.88 434.79C190.56 437.38 192.04 443.77 193.18 449C194.31 454.23 197.01 463.9 199.17 470.5C201.33 477.1 205.06 486.55 207.46 491.5C209.86 496.45 214.57 504.21 217.91 508.75C221.26 513.29 226.36 518.84 229.25 521.09C232.14 523.34 237.43 526.6 241 528.32C247.11 531.26 248.16 531.45 258.5 531.38C265.81 531.34 270.84 530.8 273.5 529.79C276.47 528.65 277.42 527.78 277.18 526.38C277 525.35 275.85 522.92 274.61 521C272.6 517.87 270.5 516.76 254.93 510.61C245.34 506.81 236.92 503.21 236.21 502.61C235.49 502 234.93 500.94 234.96 500.25C234.98 499.56 235.56 498.81 236.25 498.58C236.94 498.36 243.13 499.25 250 500.58C256.88 501.9 262.73 502.77 263 502.51C263.27 502.24 262.16 500.11 260.51 497.76C258.87 495.42 253.25 489.21 248.01 483.97C242.78 478.72 237.04 473.21 235.25 471.72C233.46 470.22 232.16 468.44 232.36 467.75C232.55 467.06 234.02 466.53 235.61 466.57C237.43 466.62 240.9 468.44 245 471.51C248.57 474.19 252.96 477.64 254.75 479.19C256.54 480.73 258.56 482.01 259.25 482.01C260.18 482.02 260.31 480.79 259.78 477.26C259.27 473.91 259.45 471.91 260.39 470.5C261.71 468.53 261.76 468.54 263.29 471C264.15 472.38 265.94 477.32 267.28 482C268.61 486.68 270.34 491.66 271.1 493.07C271.87 494.48 274.98 498.84 278 502.76C281.02 506.68 283.84 509.91 284.25 509.94C284.66 509.98 285.14 508.99 285.31 507.75C285.48 506.51 285 501.68 284.24 497C283.31 491.35 281.62 486.02 279.17 481.09C276.84 476.39 272.94 470.95 268.5 466.2C264.65 462.08 258.8 456.8 255.5 454.47C252.2 452.13 246.35 448.53 242.5 446.47C238.65 444.4 231.68 441.26 227 439.48C222.32 437.7 213.55 434.87 207.5 433.18C201.45 431.5 195.13 429.85 193.45 429.52C191.77 429.2 190.01 429.19 189.53 429.5ZM346 476.59C341.32 479.1 335.07 482.95 332.1 485.15C329.13 487.36 325.29 491.03 323.56 493.33C321.84 495.62 319.66 498.74 318.71 500.25C317.77 501.76 316.1 505.7 315 509C313.82 512.54 313 517.67 313 521.5C313 525.08 313.34 527.99 313.75 527.99C314.16 527.98 315.4 526.09 316.5 523.78C317.6 521.47 320.24 516.86 322.37 513.54C324.5 510.22 328.29 505.02 330.8 502C333.31 498.98 336.97 494.9 338.93 492.94C340.89 490.98 344.52 487.73 347 485.72C349.48 483.71 352.29 482.05 353.25 482.03C354.21 482.01 355.23 482.45 355.5 483C355.77 483.55 353.35 489.29 350.12 495.75C346.89 502.21 342.65 511.55 340.71 516.5C338.77 521.45 336.13 529.44 334.84 534.26C333.55 539.09 332.73 543.26 333 543.54C333.27 543.82 335.19 544.04 337.25 544.03C339.31 544.01 343.59 543.03 346.75 541.85C351.05 540.24 354.14 538.04 359.02 533.1C363.55 528.51 366.94 523.76 370.18 517.5C372.73 512.55 375.78 505.57 376.95 502L379.08 495.5C360.8 477.28 355.27 472 355 472.01C354.73 472.02 350.68 474.09 346 476.59ZM312.5 488.67C309.75 489.51 307.39 490.37 307.25 490.6C307.11 490.82 308.13 492.8 309.5 495C310.88 497.2 312.34 498.99 312.75 498.99C313.16 498.98 314.49 497.52 315.71 495.74C316.92 493.96 318.84 491.26 319.96 489.75L322 487C318.51 487.11 315.25 487.83 312.5 488.67ZM335.72 505.25C333.85 507.59 330.94 511.52 329.26 514C327.58 516.48 323.95 523 321.19 528.5C318.44 534 315.03 542.33 313.61 547C312.19 551.67 310.63 557.75 310.14 560.5C309.44 564.45 309.74 567.92 311.6 577C312.9 583.33 313.96 588.61 313.98 588.75C313.99 588.89 315.57 589 317.5 589C319.43 589 321.03 588.89 321.07 588.75C321.11 588.61 321.34 585.35 321.6 581.5C321.85 577.65 322.52 570.67 323.08 566C323.65 561.33 324.99 553.23 326.07 548C327.15 542.77 329.2 534.67 330.62 530C332.04 525.33 334.97 517 337.13 511.5C339.29 506 341.04 501.39 341.03 501.25C341.01 501.11 340.58 501 340.06 501C339.54 501 337.59 502.91 335.72 505.25ZM270.96 503.5C270.97 504.05 271.66 505.51 272.49 506.75C273.32 507.99 273.77 509.68 273.5 510.5C273.21 511.36 273.86 512.43 275 513C276.1 513.55 278.76 517.71 280.9 522.25C283.05 526.79 286.47 535 288.51 540.5C290.55 546 293.29 555.23 294.61 561C295.92 566.77 297.48 575.55 298.06 580.5C298.65 585.45 298.99 594.45 298.82 600.5L298.51 611.5L310 612C309.99 601.54 309.28 593.77 308.43 588C307.58 582.23 305.98 573.9 304.88 569.5C303.78 565.1 301.08 556.55 298.89 550.5C296.69 544.45 292.61 535.23 289.83 530C287.04 524.77 282.6 517.35 279.95 513.5C277.31 509.65 274.19 505.6 273.04 504.5C271.88 503.4 270.95 502.95 270.96 503.5ZM222.64 526.75C221.87 528.26 220.06 532.76 218.62 536.75C216.94 541.4 215.55 548.28 214.75 555.92L213.5 567.84C207.69 568.74 206 569.45 206 570C206 570.55 209.94 574.54 214.75 578.86C219.56 583.19 225.19 588.14 227.25 589.86L231 593C238.53 579.44 242.12 573.02 243.83 570C245.54 566.98 246.95 563.94 246.97 563.25C246.99 562.36 245.71 562.14 242.5 562.5L238 563C238.01 557.19 238.74 552.58 239.64 549C240.53 545.42 242.1 540.81 243.13 538.75L245 535C236.09 530.95 231.59 528.48 229.25 526.89C226.91 525.3 224.78 524 224.52 524C224.26 524 223.41 525.24 222.64 526.75ZM369.29 529C367.59 531.48 365.31 534.4 364.24 535.5C363.18 536.6 360.73 538.85 358.8 540.5L355.31 543.5C357.4 552.02 358.01 558.55 358.01 563.5C358.01 568.45 357.33 575.09 356.51 578.25C355.68 581.41 355.23 584.45 355.5 585C355.77 585.55 358.36 586.74 361.25 587.64C364.14 588.53 367.63 589.82 369 590.5C370.38 591.17 372.63 592 374 592.34C376.29 592.91 376.64 592.52 378.21 587.73C379.15 584.85 380.45 579.13 381.09 575C381.75 570.7 381.99 563.66 381.65 558.5C381.32 553.55 380.17 546.35 379.1 542.5C378.03 538.65 376.08 533.02 374.77 530L372.4 524.5L369.29 529ZM466.5 538.67C466.04 539.03 465.74 561.53 465.83 588.67L466 638L405.5 638.5L405.5 652.5L477.18 652.5C481.01 647.59 481.08 645.57 481.06 594L481.04 540.5C472.1 538.55 469.01 537.99 468.42 537.99C467.82 538 466.96 538.3 466.5 538.67Z" />
		<path class="shp0" d="M982.51 547.65C981.19 549.1 980.07 551.46 980.02 552.9C979.97 554.39 981.01 556.67 982.47 558.25L985 561L1160 561C1163.15 556.74 1164.07 554.15 1164.06 552.5C1164.05 550.71 1163.14 548.6 1161.78 547.27L1159.5 545.04L984.91 545L982.51 547.65ZM986.29 586.73C985.07 586.95 983.14 588.34 982 589.82C980.86 591.29 979.93 593.63 979.93 595C979.93 596.41 981.14 598.72 982.71 600.29L985.5 603.08L1158.5 603.07C1163.15 598.78 1164.01 596.99 1164.03 594.75C1164.04 592.53 1163.22 590.71 1161.45 589L1158.84 586.5C1026.83 586.37 987.5 586.51 986.29 586.73Z" />
		<path class="shp2" d="M241 607.59C236.32 611.2 232.39 614.46 232.26 614.83C232.13 615.2 234.16 617.79 236.76 620.6C239.37 623.4 243.53 627.3 246 629.25C248.47 631.2 253.2 634.38 256.5 636.32C259.8 638.26 266.77 641.33 272 643.14C281.2 646.34 282.01 646.45 297.5 646.47C311.51 646.5 314.43 646.21 321 644.16C325.13 642.88 331.31 640.51 334.75 638.91C338.19 637.31 341.15 636.11 341.33 636.25C341.51 636.39 342.97 638.22 344.58 640.33C346.66 643.06 347.7 643.77 348.21 642.83C348.6 642.1 349.63 637.9 350.5 633.5C351.36 629.1 352.97 621.9 354.06 617.5C355.16 613.1 355.93 609.45 355.78 609.38C355.62 609.32 347.96 608.98 338.75 608.63C329.54 608.28 322 608.34 322 608.75C322.01 609.16 322.95 611.08 324.1 613C326.13 616.39 326.14 616.54 324.35 617.8C323.33 618.51 319.35 620.08 315.5 621.28C310.12 622.97 306.07 623.47 298 623.45C290.08 623.43 285.78 622.89 280.5 621.25C276.65 620.05 270.8 617.45 267.5 615.48C264.2 613.5 259.02 609.44 256 606.45C252.97 603.46 250.28 601.02 250 601.02C249.72 601.02 245.68 603.98 241 607.59Z" />
		<path class="shp3" d="M120.25 691.95C118.46 693.08 116.39 695.24 115.65 696.75C114.91 698.26 114.19 701.98 114.05 705C113.89 708.5 114.38 711.68 115.4 713.75C116.28 715.54 118.24 717.92 119.75 719.03C121.4 720.25 124 721.06 126.25 721.03C128.31 721.02 131.17 720.44 132.6 719.75C134.02 719.06 136.12 716.92 137.25 715C138.95 712.11 139.24 710.25 138.91 704.27C138.55 697.87 138.16 696.69 135.5 693.96C133.29 691.7 131.31 690.76 128 690.39C124.57 690.01 122.73 690.38 120.25 691.95ZM183.25 692C181.46 693.1 179.32 695.58 178.5 697.5C177.68 699.42 176.99 702.91 176.98 705.25C176.96 707.59 177.64 711.19 178.48 713.25C179.31 715.31 181.24 717.94 182.75 719.1C184.91 720.75 186.6 721.12 190.63 720.85C194.01 720.62 196.5 719.82 197.91 718.5C199.09 717.4 200.49 715.26 201.03 713.75C201.97 711.09 201.89 711 198.5 711C195.67 711 195 711.38 195 713C195 714.23 194.13 715.24 192.75 715.61C191.51 715.94 189.26 715.94 187.75 715.61C185.65 715.14 184.74 714.11 183.88 711.25C183.27 709.19 183.04 705.36 183.38 702.75C183.82 699.41 184.67 697.53 186.25 696.42C187.65 695.44 189.53 695.06 191.25 695.42C192.87 695.76 194.21 696.82 194.5 698C194.78 699.1 195.56 700.04 196.25 700.08C196.94 700.13 198.51 700.24 199.74 700.33C200.98 700.42 201.99 700.39 201.99 700.25C202 700.11 201.35 698.54 200.56 696.75C199.7 694.82 197.67 692.79 195.56 691.75C193.6 690.79 190.76 690 189.25 690C187.74 690.01 185.04 690.91 183.25 692ZM213 691.25C211.63 691.92 209.75 693.15 208.82 693.99C207.9 694.82 206.74 696.63 206.25 698C205.76 699.38 205.26 702.52 205.13 705C205.01 707.48 205.35 710.85 205.89 712.5C206.43 714.15 208.25 716.74 209.94 718.25C212.2 720.28 214.05 721 217 721C219.2 721 222.35 720.33 224 719.5C225.65 718.67 227.68 716.65 228.5 715C229.32 713.35 230.27 710.31 230.6 708.25C230.92 706.19 230.72 702.7 230.14 700.5C229.56 698.3 227.83 695.25 226.29 693.73C224.47 691.92 222.1 690.79 219.5 690.49C217.3 690.24 214.38 690.58 213 691.25ZM306.25 691.54C304.09 692.51 302.34 694.42 301.02 697.25C299.93 699.59 299.04 703.08 299.03 705C299.02 706.92 299.44 710.08 299.96 712C300.49 713.92 302.1 716.63 303.54 718C305.73 720.08 307.14 720.5 312 720.5C316.86 720.5 318.28 720.08 320.46 718C321.9 716.63 323.51 713.92 324.04 712C324.56 710.08 324.99 707.04 324.99 705.25C325 703.46 324.18 700.09 323.17 697.75C321.86 694.71 320.29 693 317.67 691.75C315.65 690.79 312.99 690.02 311.75 690.04C310.51 690.06 308.04 690.74 306.25 691.54ZM333.51 691.99C331.87 692.82 330.07 694.76 329.51 696.31C328.74 698.44 328.86 699.76 330.01 701.81C330.84 703.29 333.35 705.4 335.58 706.5C337.82 707.6 340.74 708.95 342.07 709.5C343.73 710.18 344.5 711.29 344.5 713C344.5 715.1 343.98 715.54 341.25 715.75C339.46 715.89 337.1 715.55 336 715C334.9 714.45 334 713.33 334 712.5C334 711.5 333 711 331 711C329.1 711 328.11 711.46 328.31 712.25C328.48 712.94 328.91 714.4 329.27 715.5C329.63 716.6 331.13 718.17 332.61 719C334.16 719.86 337.83 720.5 341.24 720.5C346.38 720.5 347.44 720.17 349.13 718C350.21 716.63 351.08 714.15 351.07 712.5C351.06 710.72 350.13 708.6 348.78 707.27C347.52 706.05 344.25 704.18 341.5 703.12C338.75 702.06 336.05 700.45 335.5 699.54C334.74 698.28 334.98 697.53 336.5 696.42C337.6 695.62 339.51 694.97 340.75 694.98C341.99 694.99 343.56 695.9 344.25 697C345.01 698.22 346.58 699.01 348.25 699C349.76 699 351 698.55 351 698C351 697.45 350.55 696.1 350 695C349.45 693.9 347.65 692.33 346 691.5C344.35 690.67 341.54 690.11 339.75 690.24C337.96 690.37 335.15 691.16 333.51 691.99ZM592 691.08C590.63 691.66 588.71 693 587.75 694.07C586.79 695.13 585.63 697.01 585.18 698.25C584.73 699.49 584.26 702.52 584.13 705C584.01 707.48 584.35 710.85 584.89 712.5C585.43 714.15 587.25 716.74 588.94 718.25C591.2 720.28 593.05 721 596 721C598.2 721 601.01 720.48 602.25 719.84C603.49 719.21 605.31 717.74 606.3 716.59C607.29 715.44 608.57 712.7 609.14 710.5C609.71 708.3 609.92 704.59 609.59 702.25C609.19 699.4 607.93 696.82 605.75 694.44C603.31 691.76 601.5 690.77 598.5 690.45C596.3 690.22 593.38 690.5 592 691.08ZM926.07 691.77C923.69 692.97 922.03 694.88 920.68 698C919.18 701.46 918.88 703.71 919.37 707.75C919.71 710.64 920.79 714.1 921.75 715.45C922.71 716.79 924.85 718.65 926.5 719.57C928.71 720.81 930.75 721.09 934.25 720.63C937.87 720.15 939.6 719.29 941.5 717C942.88 715.35 944.27 712.54 944.59 710.75C944.92 708.96 944.92 705.59 944.59 703.25C944.27 700.91 943.33 697.65 942.5 696C941.65 694.3 939.48 692.35 937.5 691.5C935.58 690.67 932.99 690.01 931.75 690.02C930.51 690.04 927.95 690.82 926.07 691.77ZM1018.08 691.22C1016.75 691.94 1014.6 694.1 1013.3 696.01C1011.49 698.69 1010.95 700.83 1010.97 705.25C1010.99 708.41 1011.67 712.58 1012.5 714.5C1013.35 716.48 1015.3 718.65 1017 719.5C1018.65 720.33 1021.58 721 1023.5 721C1025.42 721 1028.01 720.5 1029.25 719.88C1030.49 719.27 1032.28 717.81 1033.23 716.63C1034.18 715.46 1034.97 713.71 1034.98 712.75C1034.99 711.51 1034.2 710.99 1032.25 710.97C1030.29 710.95 1029.14 711.67 1028.25 713.47C1027.31 715.38 1026.21 716.01 1023.75 716.04C1021.89 716.07 1019.86 715.36 1019 714.38C1018.17 713.44 1017.32 710.38 1017.09 707.58C1016.85 704.55 1017.25 701.16 1018.09 699.17C1019 697.02 1020.39 695.64 1022 695.29C1023.38 694.98 1025.17 695.17 1026 695.71C1026.83 696.25 1027.95 697.56 1028.5 698.61C1029.05 699.66 1030.17 700.47 1031 700.41C1031.83 700.35 1033.06 700.24 1033.75 700.15C1034.44 700.07 1035.01 699.44 1035.01 698.75C1035.02 698.06 1033.78 696 1032.26 694.16C1030.06 691.49 1028.6 690.73 1025 690.37C1022.35 690.1 1019.51 690.45 1018.08 691.22ZM1046.35 690.92C1045.17 691.35 1043.15 692.93 1041.85 694.44C1040.07 696.51 1039.41 698.67 1039.12 703.34C1038.9 706.73 1039.02 710.74 1039.37 712.25C1039.71 713.76 1041.01 716.1 1042.25 717.45C1043.67 719 1046.15 720.16 1049 720.61C1052.05 721.09 1054.59 720.86 1056.89 719.91C1058.75 719.13 1060.89 717.26 1061.64 715.75C1062.39 714.24 1063 712.55 1063 712C1063 711.45 1061.65 711 1060 711C1058.35 711 1057 711.45 1057 712C1057 712.55 1056.29 713.67 1055.43 714.5C1054.56 715.33 1052.54 716 1050.93 716C1049 716 1047.48 715.23 1046.49 713.75C1045.62 712.45 1044.99 709.28 1044.99 706.25C1045 703.36 1045.45 699.88 1046 698.5C1046.61 696.97 1048.07 695.78 1049.75 695.42C1051.47 695.06 1053.35 695.44 1054.75 696.42C1055.99 697.29 1057 698.67 1057 699.5C1057 700.61 1057.71 700.85 1059.75 700.42C1061.26 700.1 1062.72 699.64 1063 699.41C1063.28 699.17 1062.94 697.86 1062.25 696.49C1061.56 695.12 1059.54 693.1 1057.75 692C1055.96 690.91 1053.15 690.03 1051.5 690.07C1049.85 690.1 1047.53 690.48 1046.35 690.92ZM1324.5 691.34C1322.85 692.07 1320.71 693.87 1319.75 695.33C1318.79 696.8 1317.72 699.91 1317.37 702.25C1317.02 704.59 1317.02 708.19 1317.37 710.25C1317.72 712.31 1319.13 715.35 1320.5 717C1322.29 719.15 1324.2 720.17 1327.25 720.62C1330.34 721.06 1332.58 720.72 1335.44 719.37C1338.41 717.96 1339.85 716.39 1341.32 713C1342.71 709.78 1343.11 707.22 1342.72 704C1342.42 701.52 1341.35 698.07 1340.34 696.32C1339.33 694.57 1337.71 692.66 1336.75 692.07C1335.79 691.48 1333.31 690.78 1331.25 690.51C1329.19 690.24 1326.15 690.62 1324.5 691.34ZM1439.5 691.46C1437.85 692.29 1435.64 694.45 1434.6 696.24C1433.3 698.48 1432.7 701.39 1432.72 705.5C1432.73 709.01 1433.42 712.85 1434.37 714.75C1435.27 716.54 1437.35 718.67 1439 719.5C1440.65 720.33 1443.8 721 1446 721C1448.2 721 1451.58 720.33 1453.5 719.5C1456.99 718.01 1457 717.98 1457 711.5L1457 705C1445.67 705 1445 705.22 1445 707C1445 708.56 1445.67 709 1448 709C1450.67 709 1451 709.33 1451 712C1451 714.27 1450.39 715.24 1448.5 716C1446.65 716.74 1445.22 716.61 1443 715.5C1441.35 714.67 1439.71 712.99 1439.36 711.75C1439.01 710.51 1438.7 707.92 1438.68 706C1438.66 704.08 1439.29 701 1440.07 699.17C1441 697.01 1442.38 695.65 1444 695.31C1445.38 695.02 1447.52 695.39 1448.78 696.14C1450.03 696.89 1451.04 698.06 1451.03 698.75C1451.01 699.48 1452.25 700 1454 700C1456 700 1457 699.5 1457 698.5C1457 697.67 1455.76 695.61 1454.25 693.92C1452.15 691.56 1450.44 690.73 1447 690.38C1444.14 690.1 1441.41 690.49 1439.5 691.46ZM85.07 705.44L85 720L90.5 720.58C90.1 704.76 90.38 701 91 701C91.55 701 92 701.45 92 702C92 702.55 94.46 706.94 97.46 711.75C102.53 719.87 103.14 720.48 105.96 720.25L109 720L109 691L103 691L103 710.5C92.03 692.63 90.97 691.46 88.24 691.19L85.14 690.87L85.07 705.44ZM140.17 693.25C140.45 695.18 141.18 695.54 145.25 695.75L150 696L150 720L155.98 720.5L156 696C164.63 696 165 695.8 165 693.5L165 691C139.94 691 139.84 691.02 140.17 693.25ZM235.09 706L235 721L240.5 720.5L241.5 700.5C246.6 714.45 248.4 719.04 248.79 719.71C249.18 720.37 250.4 720.7 251.5 720.43C252.92 720.09 254.18 717.99 255.84 713.22C257.13 709.53 258.7 705.49 259.34 704.26C259.98 703.03 260.73 702.28 261 702.59C261.27 702.9 261.39 706.95 261.25 711.58C261.04 718.51 261.27 720 262.5 720C263.32 720 264.68 720.23 265.5 720.5C266.79 720.93 267 718.89 267 706L267 691L258.5 691.5C253.07 707.41 251.28 712.01 251 711.99C250.72 711.96 248.93 707.22 247 701.45L243.5 690.96L235.19 691L235.09 706ZM273 705.75L273 720.5C278.95 720.5 279 720.42 279 715.25L279 710C285.98 710 289.24 709.39 290.75 708.64C292.26 707.89 294.1 705.97 294.84 704.39C295.88 702.16 295.93 700.64 295.09 697.75C294.49 695.69 292.99 693.32 291.75 692.49C290.2 691.45 286.95 690.99 281.25 690.99L273 691L273 705.75ZM354 693.5C354 695.8 354.37 696 358.5 696L363 696L363 720L369 720L369 696C377.63 696 378 695.8 378 693.5L378 691L354 691L354 693.5ZM387.19 693.19C386.7 694.46 384.82 699.55 383.02 704.5C381.23 709.45 379.14 714.96 378.38 716.75C377.62 718.54 377 720.11 377 720.25C377 720.39 378.35 720.61 380 720.75C382.5 720.96 383.21 720.5 384.25 717.99C385.42 715.17 385.84 714.98 391 714.96C395.9 714.94 396.64 715.22 397.75 717.47C398.67 719.34 399.79 720 402 720L405 720C400.49 707.99 398.09 701.58 396.75 698C394.53 692.09 394.03 691.47 391.2 691.19C388.73 690.94 387.91 691.34 387.19 693.19ZM408 705.75L408 720.5C420.01 720.32 424.51 719.98 425.75 719.63C427.04 719.27 428.64 717.51 429.5 715.5C430.6 712.93 430.74 711.34 430 709.5C429.45 708.13 428.32 706.77 427.5 706.5C426.24 706.08 426.32 705.57 428.04 703.25C429.44 701.36 429.92 699.57 429.57 697.5C429.29 695.85 428.03 693.69 426.78 692.71C424.99 691.3 422.71 690.92 416.25 690.96L408 691L408 705.75ZM435 705.75L435 720.5C454.7 720.5 455 720.43 455 718.25C455 716.16 454.51 715.98 448.25 715.75L441.5 715.5L440.99 691L435 691L435 705.75ZM458 705.75L458 720.5C472.34 720.18 477.06 720.06 477.75 720.04C478.44 720.02 479 719.1 479 718C479 716.19 478.33 716 472 716L465 716L465 708C475.97 707.52 476.5 707.29 476.5 705.26C476.5 703.19 476.04 703.01 470.75 703.01L465 703L465 696C477.92 695.52 478.52 695.31 478.75 693.25C479 691.04 478.8 691 468.5 691L458 691L458 705.75ZM501.29 692.25C500.78 692.94 498.25 699.24 495.68 706.25C493.11 713.26 491.2 719.34 491.44 719.75C491.68 720.16 493.09 720.27 494.58 720C496.17 719.71 497.64 718.58 498.14 717.25C498.89 715.29 499.72 715 504.5 715C509.28 715 510.11 715.29 510.85 717.25C511.32 718.49 512.79 719.82 514.1 720.21C515.42 720.61 516.85 720.61 517.28 720.21C517.71 719.82 515.68 713.08 512.78 705.24C507.81 691.83 507.34 690.99 504.86 690.99C503.41 691 501.8 691.56 501.29 692.25ZM517.17 693.25C517.45 695.13 518.2 695.54 521.75 695.75L526 696C526.01 720.33 526.04 720.5 528.26 720.33C529.49 720.24 531.06 720.13 531.75 720.08C532.68 720.02 533 716.89 533 708L533 696C540.6 696 541 695.75 541 693.5L541 691C516.96 691 516.84 691.02 517.17 693.25ZM555 705.5C555 716.39 555.31 720.02 556.25 720.08C556.94 720.12 558.29 720.34 559.25 720.58C560.78 720.95 561 720.19 561 714.5L561 708L573 708L573.02 720.5L579 720L579 691L573 691L573 703L561 703L561 691L555 691L555 705.5ZM614.41 705.75L614.32 720.5C619.49 720.5 619.5 720.46 620 710.5L620.5 700.5C625.66 714.45 627.57 719.06 628.08 719.75C628.58 720.44 629.79 720.77 630.75 720.48C631.88 720.14 633.61 716.85 635.61 711.23C637.32 706.43 639.07 702.73 639.5 703C639.92 703.27 640.21 707.21 640.14 711.75L640 720L646 720L646 691C638.72 690.92 638.37 691.21 636.36 695.71C635.18 698.34 633.38 703.08 632.36 706.24C631.34 709.4 630.22 711.65 629.87 711.24C629.53 710.83 628.46 708.02 627.49 705C626.53 701.98 625.4 699.05 624.98 698.5C624.57 697.95 623.95 696.04 623.62 694.25C623.04 691.19 622.75 691 618.75 691L614.5 691L614.41 705.75ZM652 705.5L652 720C660.91 720.13 665.3 720.31 667.5 720.48C671.2 720.77 671.48 720.62 671.25 718.4C671.01 716.13 670.64 716 664.25 716L657.5 716L658 708C669.73 708 670 707.89 670 705.5C670 703.1 669.75 703 663.75 702.99L657.5 702.99L658 696C670.92 695.52 671.52 695.31 671.75 693.25C671.99 691.05 671.78 691 662 691L652 691L652 705.5ZM890 705.5L890 720L896 720C896 706.83 896.34 702.99 896.75 702.98C897.16 702.98 899.98 707.04 903 712.02C907.53 719.48 908.85 720.98 910.5 720.55C911.6 720.26 913.06 720.02 913.75 720.01C914.69 720 915 716.43 915 705.5L915 691L907.84 691L907.5 709C896.89 691.65 896.27 691 893.25 691L890 691L890 705.5ZM946 693.5C946 695.8 946.37 696 950.5 696L955 696C955 718.63 955.2 720.04 956.75 720.34C957.71 720.52 959.06 720.52 959.75 720.34C960.66 720.09 961 716.75 961 708L961 696C969.63 696 970 695.8 970 693.5L970 691L946 691L946 693.5ZM991.56 692.19C991.28 692.91 988.73 699.51 985.91 706.86C983.09 714.21 980.83 720.28 980.9 720.36C980.96 720.44 982.58 720.39 984.51 720.25C987.34 720.05 988.09 719.53 988.5 717.5C988.97 715.17 989.4 715 995 715C1000.55 715 1001.06 715.19 1001.75 717.53C1002.16 718.91 1002.95 720.19 1003.5 720.36C1004.05 720.53 1005.45 720.4 1006.61 720.08C1008.66 719.52 1008.56 719.09 1003.47 705.5C998.38 691.95 998.12 691.49 995.15 691.19C993.3 691 991.88 691.39 991.56 692.19ZM1067 705.75L1067 720.5C1087.06 720.42 1087.51 720.32 1087.75 718.21C1087.99 716.12 1087.63 716 1081 716L1074 716L1074 708C1084.89 707.53 1085.53 707.26 1085.75 705.25C1085.98 703.14 1085.63 703 1080 703L1074 703L1074 696C1086.92 695.52 1087.52 695.31 1087.75 693.25C1088 691.04 1087.8 691 1077.5 691L1067 691L1067 705.75ZM1091.01 705.75C1091.01 720.4 1091.03 720.5 1093.26 720.38C1094.49 720.31 1096.06 720.2 1096.75 720.13C1097.57 720.04 1098 718.27 1098 715L1098 710C1104.2 710 1106.41 709.89 1106.92 709.75C1107.42 709.61 1109.22 708.49 1110.92 707.25C1113.54 705.34 1114 704.36 1113.97 700.75C1113.95 698.41 1113.39 695.79 1112.72 694.91C1112.05 694.04 1110.49 692.8 1109.25 692.16C1108.01 691.52 1103.4 691 1099 691L1091 691L1091.01 705.75ZM1117 693.5C1117 695.8 1117.37 696 1121.5 696L1126 696L1126 720.5L1131.5 720.33L1132 696C1140.85 695.53 1141.53 695.19 1141.75 693.25C1142 691.02 1141.87 691 1129.5 691L1117 691L1117 693.5ZM1148.56 698.2C1147.05 702.21 1144.56 708.88 1143.02 713L1140.23 720.5C1146.46 720.5 1147.03 720.1 1147.48 717.75C1147.98 715.11 1148.25 715 1154 715C1159.55 715 1160.06 715.19 1160.75 717.53C1161.16 718.91 1161.95 720.23 1162.5 720.45C1163.05 720.67 1164.51 720.66 1165.75 720.42C1166.99 720.19 1168 719.89 1167.99 719.75C1167.99 719.61 1165.61 713.2 1162.71 705.5C1157.6 691.96 1157.33 691.49 1154.37 691.2C1151.41 690.9 1151.21 691.15 1148.56 698.2ZM1171 705.75L1171 720.5C1185.13 720.39 1188.29 719.88 1190.25 718.68C1192.01 717.6 1193.21 715.83 1193.58 713.75C1194.01 711.36 1193.61 709.77 1192.08 707.75C1190.18 705.23 1190.13 704.85 1191.57 703.25C1192.65 702.06 1192.98 700.38 1192.63 698C1192.29 695.76 1191.18 693.87 1189.55 692.75C1187.64 691.44 1184.98 691 1179 691L1171 691L1171 705.75ZM1198 705.5L1198 720C1217.78 720.49 1218 720.45 1218 718.25C1218 716.15 1217.57 716 1211.5 716L1205 716L1205 691L1198 691L1198 705.5ZM1222 705.5L1222 720C1241.39 720.49 1241.6 720.45 1241.55 718.25C1241.5 716.14 1241.08 716 1234.5 716L1227.5 716L1228 708C1238.89 707.53 1239.53 707.26 1239.75 705.25C1239.99 703.13 1239.64 703 1233.75 702.99L1227.5 702.99L1228 696C1240.92 695.52 1241.52 695.31 1241.75 693.25C1241.99 691.05 1241.78 691 1232 691L1222 691L1222 705.5ZM1260.61 701.75C1258.51 707.66 1256.16 713.96 1255.4 715.75C1254.63 717.54 1254 719.45 1254 720C1254 720.55 1255.24 720.81 1256.75 720.57C1258.26 720.33 1259.84 720.11 1260.25 720.07C1260.66 720.03 1261.22 718.88 1261.5 717.5C1261.96 715.2 1262.43 715 1267.5 715C1272.59 715 1273.08 715.21 1274.01 717.75C1274.84 720 1275.63 720.5 1278.37 720.5C1281.65 720.5 1281.7 720.43 1280.72 717.5C1280.18 715.85 1279.33 714.05 1278.85 713.5C1278.36 712.95 1277.97 711.94 1277.98 711.25C1277.99 710.56 1277.38 708.54 1276.61 706.75C1275.85 704.96 1274.16 700.67 1272.86 697.21C1270.67 691.38 1270.28 690.93 1267.46 690.96C1264.52 691 1264.32 691.31 1260.61 701.75ZM1280.17 693.25C1280.46 695.22 1281.09 695.5 1285.25 695.5L1290 695.5L1290 720.5L1296 720.5L1296 696C1304.63 696 1305 695.8 1305 693.5L1305 691C1279.94 691 1279.84 691.02 1280.17 693.25ZM1347.01 705.75C1347.01 720.4 1347.03 720.5 1349.26 720.38C1350.49 720.31 1352.06 720.2 1352.75 720.13C1353.57 720.04 1354 718.27 1354 715C1354 710.49 1354.22 710 1356.25 709.99C1357.94 709.98 1359.22 711.29 1361.39 715.24C1363.92 719.86 1364.62 720.47 1367.14 720.25C1368.71 720.11 1370 719.77 1370 719.5C1370 719.23 1368.76 716.55 1367.25 713.56L1364.5 708.13C1368.03 705.32 1369.35 702.92 1369.7 701C1370.25 697.98 1369.91 697.06 1367.17 694.25C1364.08 691.09 1363.77 691 1355.5 691L1347 691L1347.01 705.75ZM1382.56 692.7C1382.15 693.69 1379.88 699.67 1377.5 706C1375.12 712.33 1372.91 718.17 1372.58 719C1372.12 720.14 1372.82 720.56 1375.49 720.75C1378.74 720.98 1379.04 720.76 1379.56 717.75L1380.12 714.5C1391.51 714.98 1392.04 715.21 1392.5 717.5C1392.78 718.88 1393.34 720.04 1393.75 720.08C1394.16 720.13 1395.73 720.24 1397.24 720.33C1399.55 720.47 1399.87 720.19 1399.34 718.5C1399 717.4 1396.6 710.88 1394 704C1389.51 692.07 1389.16 691.49 1386.29 691.2C1384.15 690.98 1383.08 691.41 1382.56 692.7ZM1403 706C1403 718.89 1403.21 720.93 1404.5 720.5C1405.33 720.23 1406.67 720 1407.5 720C1408.72 720 1409 718.39 1409 711.5C1409 706.83 1409.34 702.98 1409.75 702.95C1410.16 702.93 1412.97 706.87 1416 711.7C1421.08 719.83 1421.75 720.5 1424.75 720.5L1428 720.5L1428 691L1422 691C1422 704.17 1421.66 708.2 1421.25 708.44C1420.84 708.69 1418.14 704.86 1415.25 699.94C1410.23 691.39 1409.85 691 1406.5 691L1403 691L1403 706ZM1462.38 705.75L1462.35 720.5C1481.25 720.02 1482 719.85 1482 718C1482 716.22 1481.25 715.97 1475.25 715.75L1468.5 715.5L1468 708C1479.73 708 1480 707.89 1480 705.5C1480 703.15 1479.65 702.98 1474.25 702.75C1468.54 702.5 1468.5 702.48 1468.25 699.25L1468 696C1481.8 696 1482 695.93 1482 693.5C1482 691 1481.99 691 1472.21 691L1462.42 691L1462.38 705.75Z" />
		<path class="shp0" d="M122.5 697.45C120.6 699.39 120.07 701.02 120.01 705.2C119.95 709.05 120.49 711.25 121.97 713.25C123.24 714.97 124.93 716 126.5 716C127.88 716 129.9 715.1 131 714C132.56 712.44 133 710.67 133 706C133 700.93 132.61 699.61 130.5 697.5C129.13 696.13 127.3 695 126.45 695C125.6 695 123.83 696.1 122.5 697.45ZM213.87 696.91C211.82 698.57 211.5 699.69 211.5 705.31C211.5 710.41 211.93 712.24 213.5 713.93C214.63 715.13 216.7 716.05 218.25 716.03C219.96 716.01 221.57 715.15 222.51 713.75C223.43 712.37 224.02 709.17 224.03 705.5C224.04 700.88 223.58 698.98 222.02 697.25C220.91 696.01 219.16 695 218.12 695C217.09 695 215.18 695.86 213.87 696.91ZM308.98 696.04C308.14 696.58 306.84 698.7 306.1 700.76C305.26 703.11 305.01 705.99 305.44 708.5C305.81 710.7 306.88 713.3 307.81 714.28C308.74 715.26 310.74 716.05 312.25 716.03C314 716.01 315.51 715.18 316.4 713.75C317.17 712.51 318.1 710.15 318.47 708.5C318.83 706.85 318.65 703.59 318.06 701.25C317.44 698.75 316.18 696.59 315 696C313.9 695.45 312.44 695.01 311.75 695.03C311.06 695.05 309.81 695.5 308.98 696.04ZM592.87 696.91C590.82 698.57 590.5 699.69 590.5 705.31C590.5 710.41 590.93 712.24 592.5 713.93C593.63 715.13 595.7 716.05 597.25 716.03C598.96 716.01 600.57 715.15 601.51 713.75C602.43 712.37 603.02 709.17 603.03 705.5C603.04 700.88 602.58 698.98 601.02 697.25C599.91 696.01 598.16 695 597.12 695C596.09 695 594.18 695.86 592.87 696.91ZM928.92 696.28C928.08 696.98 926.86 699.46 926.2 701.78C925.54 704.1 925.28 707.24 925.62 708.75C925.96 710.26 926.86 712.51 927.62 713.75C928.5 715.18 930 716.01 931.75 716.03C933.26 716.05 935.26 715.26 936.19 714.28C937.12 713.3 938.19 710.7 938.56 708.5C938.94 706.27 938.75 702.84 938.12 700.75C937.51 698.69 936.1 696.55 935 696C933.9 695.45 932.43 695 931.72 695C931.02 695 929.76 695.58 928.92 696.28ZM1326.98 696.04C1326.14 696.58 1324.84 698.7 1324.1 700.76C1323.26 703.11 1323.01 705.99 1323.44 708.5C1323.81 710.7 1324.88 713.3 1325.81 714.28C1326.74 715.26 1328.74 716.05 1330.25 716.03C1331.99 716.01 1333.52 715.17 1334.42 713.75C1335.2 712.51 1335.92 710.15 1336.03 708.5C1336.13 706.85 1336.16 704.04 1336.11 702.25C1336.05 700.45 1335.11 698.11 1334 697C1332.9 695.9 1331.21 695.01 1330.25 695.03C1329.29 695.05 1327.81 695.5 1326.98 696.04ZM279 700.5L279 705C285.49 704.61 287.73 703.85 288.28 703C288.83 702.17 288.98 700.26 288.63 698.75C288.06 696.25 287.59 696 283.5 696L279 696L279 700.5ZM414 699.5C414 702.98 414.03 703 418.15 702.75C420.69 702.6 422.72 701.86 423.4 700.84C424.24 699.57 424.14 698.78 423 697.54C422.11 696.57 419.99 695.93 417.75 695.96C414.14 696 414 696.13 414 699.5ZM1098 700.5L1098 705C1103.89 705 1106.15 704.44 1106.82 703.75C1107.49 703.06 1108.03 701.6 1108.03 700.5C1108.03 699.4 1107.46 697.93 1106.77 697.23C1106.07 696.54 1103.81 695.97 1101.75 695.98L1098 696L1098 700.5ZM1177.16 699.5C1177 702.9 1177.11 703 1180.75 703.04C1182.97 703.07 1185.01 702.46 1185.75 701.54C1186.44 700.7 1186.78 699.1 1186.5 698C1186.1 696.38 1185.17 696 1181.66 696C1177.39 696 1177.31 696.06 1177.16 699.5ZM1354 700.5C1354 704.63 1354.2 705 1356.5 705C1357.88 705 1359.74 704.66 1360.64 704.25C1361.54 703.84 1362.66 702.71 1363.14 701.75C1363.64 700.72 1363.59 699.18 1363 698C1362.25 696.5 1361 696 1358 696L1354 696L1354 700.5ZM1153.04 701.5C1152.39 703.15 1151.55 705.75 1151.18 707.27C1150.54 709.88 1150.7 710.04 1153.75 710.02C1155.54 710.01 1157.17 709.66 1157.37 709.25C1157.57 708.84 1156.95 706.25 1155.98 703.5L1154.24 698.5L1153.04 701.5ZM1385.04 701.5C1384.39 703.15 1383.55 705.75 1383.18 707.27C1382.54 709.88 1382.7 710.04 1385.75 710.02C1387.54 710.01 1389.17 709.66 1389.37 709.25C1389.57 708.84 1388.95 706.25 1387.98 703.5L1386.24 698.5L1385.04 701.5ZM389.14 703.75C388.53 705.81 388.03 708.06 388.02 708.75C388.01 709.46 389.22 710 390.83 710C392.39 710 393.85 709.78 394.08 709.5C394.31 709.23 393.98 706.98 393.34 704.5C392.7 702.03 391.74 700 391.21 700C390.69 700 389.76 701.69 389.14 703.75ZM502.92 702.75C502.35 704.26 501.69 706.51 501.44 707.75C501.05 709.74 501.41 710 504.5 710C507.59 710 507.95 709.74 507.56 707.75C507.31 706.51 506.64 704.26 506.06 702.75C505.48 701.24 504.77 700 504.48 700C504.19 700 503.49 701.24 502.92 702.75ZM993.14 703.75C992.53 705.81 992.03 708.06 992.02 708.75C992.01 709.48 993.26 710 995 710C996.74 710 997.99 709.48 997.98 708.75C997.97 708.06 997.59 705.81 997.13 703.75C996.66 701.69 995.83 700 995.27 700C994.71 700 993.76 701.69 993.14 703.75ZM1265.56 704.75C1264.69 707.36 1263.98 709.61 1263.99 709.75C1263.99 709.89 1265.58 710 1267.5 710C1270.59 710 1270.95 709.74 1270.56 707.75C1270.31 706.51 1269.64 704.26 1269.06 702.75C1268.48 701.24 1267.81 700 1267.58 700C1267.34 700 1266.44 702.14 1265.56 704.75ZM414.06 711.95C414 715.97 414.03 716 417.75 716.04C419.81 716.07 422.08 715.51 422.78 714.79C423.49 714.08 423.94 712.38 423.78 711C423.53 708.78 422.97 708.47 418.81 708.2L414.11 707.89L414.06 711.95ZM1177.35 711.75C1177.48 714.95 1177.87 715.55 1180 715.82C1181.38 716 1183.51 715.89 1184.75 715.57C1185.99 715.26 1187.22 714.33 1187.5 713.5C1187.78 712.67 1187.55 711.1 1187 710C1186.23 708.45 1185 708 1181.6 708L1177.2 708L1177.35 711.75Z" />
		<path class="shp2" d="M90.16 715.75C90.02 719.59 89.73 720.03 87.25 720.35L84.5 720.7C88.76 720.93 90.25 720.44 90.55 719.75C90.85 719.06 90.92 716.92 90.71 715C90.34 711.7 90.31 711.75 90.16 715.75ZM1231.5 720L1221.5 720.61C1236.97 720.92 1241.19 720.59 1241.46 720C1241.72 719.45 1241.83 719.09 1241.71 719.19C1241.6 719.3 1237 719.66 1231.5 720ZM440 720.73C441.93 720.94 445.3 720.94 447.5 720.73C449.7 720.51 448.13 720.34 444 720.34C439.88 720.34 438.07 720.51 440 720.73ZM1203 720.74C1205.47 720.94 1209.75 720.94 1212.5 720.74C1215.25 720.53 1213.22 720.36 1208 720.36C1202.78 720.36 1200.53 720.53 1203 720.74ZM1468 720.74C1471.03 720.94 1475.53 720.94 1478 720.73C1480.47 720.53 1478 720.36 1472.5 720.37C1467 720.37 1464.97 720.54 1468 720.74Z" />
		<path class="shp3" d="M897 742.15C895.63 742.71 893.51 744.37 892.3 745.83C891.09 747.3 889.84 749.85 889.54 751.5C889.23 753.15 888.98 755.96 888.99 757.75C888.99 759.54 889.6 762.46 890.32 764.25C891.05 766.04 892.96 768.53 894.57 769.78C896.71 771.45 898.79 772.06 902.25 772.03C906.03 772.01 907.6 771.44 909.92 769.25C911.53 767.74 913.1 765.49 913.42 764.25C913.94 762.24 913.63 762 910.5 762C907.57 762 906.92 762.4 906.5 764.5C906.1 766.5 905.4 767 903 767C901.35 767 899.33 766.77 898.5 766.5C897.67 766.23 896.51 764.09 895.91 761.75C895.31 759.41 895.08 755.59 895.41 753.25C895.8 750.43 896.76 748.47 898.25 747.42C899.65 746.44 901.53 746.06 903.25 746.42C904.93 746.78 906.39 747.97 907 749.5C907.76 751.39 908.73 752 911 752C912.65 752 914 751.77 914 751.5C914 751.23 913.35 749.54 912.56 747.75C911.7 745.82 909.67 743.79 907.56 742.75C905.6 741.79 902.99 741.03 901.75 741.06C900.51 741.1 898.38 741.59 897 742.15ZM924.08 742.7C922.21 743.69 919.84 746.08 918.83 748C917.79 749.98 916.99 753.57 917 756.25C917 758.86 917.6 762.46 918.32 764.25C919.05 766.04 920.96 768.56 922.57 769.85C925.07 771.85 926.31 772.13 931 771.72C935.56 771.32 936.89 770.75 938.77 768.37C940.01 766.79 941.53 763.92 942.13 762C942.74 760.08 942.96 756.36 942.62 753.75C942.17 750.33 941.09 748 938.75 745.44C936.35 742.81 934.45 741.75 931.5 741.39C928.79 741.05 926.4 741.47 924.08 742.7ZM1075.07 742.36C1073.19 743.06 1071.08 744.5 1070.39 745.57C1069.69 746.63 1068.68 749.52 1068.13 752C1067.59 754.48 1067.48 758.3 1067.9 760.5C1068.31 762.7 1069.18 765.51 1069.82 766.75C1070.47 767.99 1072.58 769.67 1074.5 770.5C1076.42 771.33 1079.58 772 1081.5 772C1084.04 772 1085.99 771.11 1088.6 768.75C1091.58 766.06 1092.3 764.64 1092.73 760.5C1093.02 757.75 1092.99 753.92 1092.66 752C1092.33 750.08 1091.04 747.29 1089.78 745.81C1088.53 744.33 1086.26 742.64 1084.75 742.06C1083.24 741.48 1081.21 741.02 1080.25 741.04C1079.29 741.06 1076.96 741.65 1075.07 742.36ZM1131.25 742.54C1129.08 743.51 1127.34 745.41 1126.03 748.25C1124.52 751.5 1124.17 753.91 1124.53 758.5C1124.79 761.8 1125.67 765.51 1126.5 766.75C1127.32 767.99 1129.24 769.75 1130.75 770.68C1132.75 771.89 1135.03 772.23 1139.14 771.93C1142.95 771.64 1145.47 770.85 1146.92 769.5C1148.64 767.89 1149.06 766.37 1149.03 761.75L1149 756C1137.27 756 1137 756.11 1137 758.5C1137 760.61 1137.47 761 1140 761C1142.67 761 1142.97 761.31 1142.75 763.75C1142.55 766 1141.95 766.56 1139.5 766.82C1137.85 766.99 1135.49 766.88 1134.25 766.57C1132.52 766.13 1131.85 765.03 1131.33 761.75C1130.95 759.41 1130.65 756.38 1130.66 755C1130.67 753.63 1130.97 751.49 1131.33 750.25C1131.7 749.01 1133.01 747.5 1134.25 746.9C1135.49 746.29 1137.51 746.07 1138.75 746.4C1139.99 746.73 1141.45 747.9 1142 749C1142.67 750.33 1144 751 1146 751C1147.65 751 1149 750.77 1149 750.5C1149 750.23 1148.33 748.65 1147.5 747C1146.65 745.3 1144.48 743.35 1142.5 742.5C1140.58 741.67 1137.99 741.02 1136.75 741.04C1135.51 741.06 1133.04 741.74 1131.25 742.54ZM1231.25 742.54C1228.94 743.58 1227.39 745.38 1225.89 748.75C1224.24 752.47 1223.92 754.64 1224.39 758.75C1224.73 761.64 1225.9 765.35 1227 767C1228.1 768.65 1229.9 770.45 1231 771C1232.1 771.55 1235.03 772 1237.5 772C1241.03 772 1242.63 771.41 1244.92 769.25C1246.53 767.74 1248.1 765.49 1248.42 764.25C1248.93 762.29 1248.62 762 1246 762C1244 762 1242.67 762.67 1242 764C1241.45 765.1 1239.99 766.39 1238.75 766.86C1237.35 767.4 1235.63 767.31 1234.21 766.61C1232.95 766 1231.74 764.83 1231.53 764C1231.32 763.17 1230.86 761.15 1230.51 759.5C1230.16 757.85 1230.35 754.59 1230.94 752.25C1231.62 749.51 1232.8 747.61 1234.25 746.9C1235.49 746.29 1237.51 746.07 1238.75 746.4C1239.99 746.73 1241.45 748.13 1242 749.5C1242.76 751.39 1243.73 752 1246 752C1247.65 752 1249 751.77 1249 751.5C1249 751.23 1248.35 749.54 1247.56 747.75C1246.7 745.82 1244.67 743.79 1242.56 742.75C1240.6 741.79 1237.99 741.02 1236.75 741.04C1235.51 741.06 1233.04 741.74 1231.25 742.54ZM1333.02 742.7C1330.72 743.89 1329.2 745.6 1328.52 747.75C1327.66 750.5 1327.83 751.44 1329.59 753.75C1330.74 755.26 1334.12 757.5 1337.09 758.72C1340.07 759.94 1343.17 761.61 1344 762.42C1345.33 763.74 1345.33 764.08 1344 765.5C1343.17 766.37 1341.15 767.06 1339.5 767.03C1337.85 767 1336.02 766.64 1335.43 766.23C1334.84 765.83 1334.05 764.71 1333.68 763.75C1333.22 762.57 1332.1 762.08 1330.25 762.25C1328.13 762.44 1327.57 762.96 1327.8 764.5C1327.96 765.6 1329.43 767.74 1331.05 769.25C1333.48 771.51 1334.93 772.01 1339.25 772.03C1343 772.06 1345.28 771.49 1347.25 770.03C1349.45 768.41 1350 767.2 1350 764C1350 760.78 1349.42 759.51 1347 757.5C1345.35 756.13 1342.15 754.44 1339.88 753.75C1337.62 753.06 1335.37 751.71 1334.88 750.75C1334.27 749.55 1334.49 748.53 1335.57 747.5C1336.44 746.67 1338.24 746 1339.57 746C1341.1 746 1342.56 746.93 1343.5 748.5C1344.46 750.1 1345.9 751 1347.5 751C1349.6 751 1349.96 750.58 1349.75 748.35C1349.61 746.89 1348.38 744.85 1347 743.81C1345.63 742.77 1342.7 741.69 1340.5 741.41C1337.77 741.06 1335.4 741.47 1333.02 742.7ZM1477.45 742.48C1475.77 743.25 1473.41 745.37 1472.2 747.19C1470.51 749.75 1470.01 751.98 1470.01 757C1470.01 761.83 1470.53 764.27 1472.01 766.5C1473.11 768.15 1475.02 770.05 1476.25 770.71C1477.49 771.38 1480.19 771.95 1482.25 771.96C1484.31 771.98 1487.24 771.39 1488.75 770.64C1490.26 769.89 1492.29 767.64 1493.25 765.64C1494.29 763.47 1495 759.68 1495 756.25C1494.99 752.26 1494.38 749.5 1493 747.25C1491.9 745.46 1489.42 743.33 1487.5 742.5C1485.58 741.67 1483.21 741.02 1482.25 741.04C1481.29 741.06 1479.13 741.71 1477.45 742.48ZM947.02 753.25C947.03 763.25 947.28 764.86 949.27 767.7C950.5 769.47 952.4 771.15 953.5 771.44C954.6 771.73 957.45 771.98 959.83 771.99C963.33 772 964.71 771.43 967.08 769C969.98 766.02 970 765.91 970 754L970 742L964 742C964 758.27 963.55 763.9 963 765C962.29 766.43 961 767 958.5 767C956 767 954.71 766.43 954 765C953.45 763.9 953 758.27 953 752.5L953 742L947 742L947.02 753.25ZM975 757L975 772L981.5 771.5C981.81 758.33 982.15 754.39 982.45 754.25C982.75 754.11 985.36 758.06 988.25 763.01C993.16 771.43 993.7 772.01 996.5 771.76L999.5 771.5L999.91 742L994 742C994 755.17 993.55 759.23 993 759.5C992.45 759.77 991.69 759.21 991.31 758.25C990.93 757.29 988.57 753.22 986.06 749.21C981.9 742.57 981.22 741.93 978.25 741.96L975 742L975 757ZM1003 744.5C1003 746.8 1003.37 747 1007.5 747L1012 747L1012 772L1018 772L1018 747C1026.85 746.53 1027.53 746.19 1027.75 744.25C1028 742.02 1027.87 742 1015.5 742L1003 742L1003 744.5ZM1033.74 751.82C1037.47 759.31 1038.67 762.87 1038.81 766.82C1039 771.87 1039.08 772 1042 772L1045 772C1045 760.67 1045.56 759 1050 751L1055 742C1048.19 742 1047.85 742.33 1045.25 748.03C1043.74 751.34 1042.28 754.05 1042 754.05C1041.72 754.05 1040.15 751.32 1038.5 748C1035.73 742.41 1035.25 741.96 1032.18 741.98L1028.86 742L1033.74 751.82ZM1098 757L1098 772C1103.97 772 1104 771.94 1104 766.5C1104 761.3 1104.14 761 1106.5 761C1108.53 761 1109.51 762.03 1111.75 766.51C1114.24 771.51 1114.8 772.03 1117.75 772.01C1119.54 772.01 1120.99 771.66 1120.98 771.25C1120.97 770.84 1119.59 768.02 1117.91 765L1114.87 759.5C1119.1 755.35 1119.97 753.4 1119.98 751.25C1119.99 749.46 1119.66 747.26 1119.25 746.36C1118.84 745.46 1117.26 744.11 1115.75 743.36C1114.17 742.58 1109.8 742 1105.5 742L1098 742L1098 757ZM1162 743.5C1162 744.33 1161.55 745.79 1161.01 746.75C1160.47 747.71 1158.21 753.45 1155.99 759.5C1153.77 765.55 1151.97 770.84 1151.98 771.25C1151.99 771.66 1153.35 772 1155 772C1157.44 772 1158.19 771.44 1159 769C1159.95 766.15 1160.28 766 1165.5 766C1170.72 766 1171.05 766.15 1172 769C1172.81 771.44 1173.56 772 1176 772C1177.65 772 1179.01 771.66 1179.03 771.25C1179.04 770.84 1176.68 764.08 1173.78 756.24L1168.5 741.98C1163.03 742 1162 742.48 1162 743.5ZM1183.07 756.94L1183 772L1189 772C1188.61 756.5 1188.84 752 1189.25 752C1189.66 752 1190 752.45 1190 753C1190 753.55 1192.47 758.05 1195.5 763C1200.46 771.11 1201.3 772 1204 772L1207 772L1207 742L1200.86 742L1200.5 761.16C1194.3 750.82 1191.79 746.62 1190.93 745.16C1189.86 743.36 1188.35 742.4 1186.24 742.19L1183.14 741.87L1183.07 756.94ZM1213 757L1213 772L1219 772L1219 742L1213 742L1213 757ZM1262.01 743.25C1262.01 743.94 1262.51 746.3 1263.12 748.5C1263.72 750.7 1264.39 753.4 1264.59 754.5C1264.79 755.6 1265.76 760 1266.73 764.27C1268.46 771.85 1268.58 772.04 1271.5 772.04C1274.43 772.04 1274.55 771.85 1276.48 763.77C1277.58 759.22 1278.36 755.16 1278.23 754.75C1278.11 754.34 1278.45 754 1279 754C1279.55 754 1280.32 755.01 1280.7 756.25C1281.09 757.49 1281.44 758.73 1281.48 759C1281.52 759.27 1282.22 762.32 1283.03 765.77C1284.46 771.89 1284.58 772.04 1287.75 772.02C1290.64 772 1291.06 771.64 1291.5 768.75C1291.78 766.96 1292.2 764.6 1292.43 763.5C1292.66 762.4 1293.78 757.56 1294.92 752.75C1296.07 747.94 1297 743.55 1297 743C1297 742.45 1295.76 741.99 1294.25 741.98C1291.7 741.96 1291.41 742.38 1290.28 747.73C1289.61 750.9 1288.79 755.08 1288.46 757C1288.13 758.92 1287.67 760.73 1287.43 761C1287.19 761.27 1286.85 761.27 1286.67 761C1286.49 760.73 1285.44 756.45 1284.34 751.5C1282.41 742.76 1282.26 742.5 1279.52 742.5C1276.83 742.5 1276.61 742.85 1274.94 750C1273.97 754.13 1273.13 757.61 1273.09 757.75C1273.04 757.89 1273 758.67 1273 759.5C1273 760.33 1272.66 761.01 1272.25 761.01C1271.84 761.02 1270.71 756.74 1269.75 751.51L1268 742C1263.26 742 1262 742.53 1262.01 743.25ZM1305.07 751.25C1303.26 756.34 1301.21 761.85 1300.52 763.5C1299.82 765.15 1298.97 767.74 1298.62 769.25C1298.05 771.78 1298.24 772 1301 772C1303.44 772 1304.19 771.44 1305 769C1305.95 766.15 1306.28 766 1311.5 766C1316.72 766 1317.05 766.15 1318 769C1318.81 771.44 1319.56 772 1322 772C1323.65 772 1325.01 771.66 1325.03 771.25C1325.04 770.84 1322.68 764.08 1319.78 756.24C1314.55 742.13 1314.47 741.98 1311.43 741.99C1308.46 742 1308.24 742.31 1305.07 751.25ZM1353 744.5C1353 746.8 1353.37 747 1357.5 747L1362 747L1362 772L1368 772L1368 747C1376.63 747 1377 746.8 1377 744.5L1377 742L1353 742L1353 744.5ZM1381 757L1381 772L1401 772C1401 767.07 1400.8 767 1394 767L1387 767C1387 760.8 1387.34 758.97 1387.75 758.93C1388.16 758.89 1390.75 758.78 1393.5 758.68C1397.88 758.52 1398.53 758.22 1398.75 756.25C1398.98 754.14 1398.63 754 1393 754L1387 754L1387 747C1400.8 747 1401 746.93 1401 744.5L1401 742L1381 742L1381 757ZM1416 757L1416 772C1424.91 771.74 1428.81 771.18 1430.42 770.58C1432.03 769.99 1434.39 768.26 1435.67 766.75C1437.06 765.11 1438.24 762.08 1438.6 759.25C1439 756.04 1438.68 753.12 1437.6 750.25C1436.58 747.54 1434.82 745.28 1432.75 744C1430.35 742.53 1427.74 742.01 1422.75 742L1416 742L1416 757ZM1443 757L1443 772C1449.3 771.52 1449.51 771.26 1449.67 767.5C1449.76 765.3 1449.87 762.94 1449.92 762.25C1449.96 761.56 1451.01 761 1452.25 761C1453.95 761 1455.23 762.36 1457.5 766.55C1460.04 771.23 1460.93 772.08 1463.25 772.04C1464.77 772.02 1465.99 771.44 1465.98 770.75C1465.97 770.06 1464.71 767.25 1463.17 764.5L1460.38 759.5C1463.96 756.79 1465.22 754.65 1465.5 753C1465.78 751.33 1465.33 748.67 1464.5 747C1463.67 745.35 1462.1 743.55 1461 743C1459.9 742.45 1455.4 742 1451 742L1443 742L1443 757ZM1500 757L1500 772C1505.97 772 1506 771.94 1506 766.5L1506 761C1517.74 760.32 1518.77 759.92 1520.75 757.39C1522.01 755.75 1522.99 753.09 1523 751.25C1523 748.97 1522.11 747.11 1520 745C1517.14 742.14 1516.61 742 1508.5 742L1500 742L1500 757Z" />
		<path class="shp0" d="M926 748C924.9 749.1 923.72 751.69 923.38 753.75C923.04 755.81 923.06 758.85 923.43 760.5C923.79 762.15 924.85 764.3 925.79 765.28C926.73 766.26 928.74 767.05 930.25 767.03C931.96 767.01 933.57 766.15 934.51 764.75C935.45 763.34 936.01 760.17 936.01 756.25C936 750.6 935.74 749.81 933.25 747.97C931.74 746.85 929.94 745.95 929.25 745.97C928.56 745.98 927.1 746.9 926 748ZM1076.5 748.45C1074.53 750.46 1074.08 751.97 1074.04 756.7C1074 760.29 1074.56 763.36 1075.49 764.75C1076.48 766.23 1078 767 1079.93 767C1081.54 767 1083.56 766.33 1084.43 765.5C1085.29 764.67 1086.29 762.76 1086.64 761.25C1086.99 759.74 1087.02 756.48 1086.72 754C1086.34 750.9 1085.44 748.94 1083.83 747.71C1082.55 746.72 1080.92 745.93 1080.2 745.96C1079.49 745.98 1077.83 747.1 1076.5 748.45ZM1478.5 748.45C1476.62 750.37 1476.08 752.01 1476.05 755.95C1476.02 758.73 1476.45 762.13 1477 763.5C1477.55 764.88 1479.01 766.27 1480.25 766.6C1481.49 766.92 1483.4 766.95 1484.5 766.66C1485.6 766.37 1487.06 764.98 1487.75 763.57C1488.44 762.16 1489 758.75 1489 756C1489 752 1488.5 750.5 1486.5 748.5C1485.13 747.13 1483.3 746 1482.45 746C1481.6 746 1479.83 747.1 1478.5 748.45ZM1104 751.5C1104 755.83 1104.11 756 1107 756C1108.65 756 1110.9 755.55 1112 755C1113.1 754.45 1114.01 752.99 1114.02 751.75C1114.03 750.51 1113.46 748.93 1112.77 748.23C1112.07 747.54 1109.81 746.97 1107.75 746.98L1104 747L1104 751.5ZM1422 757L1422 767C1426.32 767.04 1428.46 766.07 1429.73 764.78C1431.48 762.99 1431.96 761.32 1431.99 757C1432 753.72 1431.41 750.59 1430.51 749.25C1429.42 747.63 1428.02 747 1425.5 747L1422 747L1422 757ZM1450 751.5L1450 756C1455.99 755.59 1457.72 754.79 1458.54 753.5C1459.4 752.15 1459.51 750.77 1458.9 749.25C1458.18 747.44 1457.21 747 1454 747L1450 747L1450 751.5ZM1506 751.5L1506 756C1514.17 756 1515.2 755.59 1516.11 753.75C1516.91 752.11 1516.91 750.89 1516.11 749.25C1515.2 747.41 1514.17 747 1510.5 747L1506 747L1506 751.5ZM1163.92 753.75C1163.35 755.26 1162.69 757.51 1162.44 758.75C1162.05 760.74 1162.41 761 1165.5 761C1168.59 761 1168.95 760.74 1168.56 758.75C1168.31 757.51 1167.64 755.26 1167.06 753.75C1166.48 752.24 1165.77 751 1165.48 751C1165.19 751 1164.49 752.24 1163.92 753.75ZM1309.92 753.75C1309.35 755.26 1308.69 757.51 1308.44 758.75C1308.05 760.74 1308.41 761 1311.5 761C1314.59 761 1314.95 760.74 1314.56 758.75C1314.31 757.51 1313.64 755.26 1313.06 753.75C1312.48 752.24 1311.77 751 1311.48 751C1311.19 751 1310.49 752.24 1309.92 753.75Z" />
		<path class="shp3" d="M898.5 792.72C897.4 792.98 895.43 794.17 894.12 795.35C892.81 796.53 891.13 798.96 890.37 800.75C889.62 802.54 889 805.8 889 808C889 810.2 889.6 813.46 890.32 815.25C891.05 817.04 892.96 819.53 894.57 820.78C896.73 822.46 898.78 823.06 902.35 823.03C906.46 823.01 907.7 822.5 910.48 819.75C912.78 817.47 913.99 815.15 914.5 812C914.9 809.52 914.97 805.92 914.65 804C914.33 802.08 913.04 799.18 911.79 797.57C910.53 795.96 908.04 794.05 906.25 793.32C904.46 792.6 902.44 792.05 901.75 792.12C901.06 792.18 899.6 792.45 898.5 792.72ZM919 808L919 823L926 823L926 811C936.89 810.53 937.53 810.26 937.75 808.25C937.98 806.14 937.63 806 932 806L926 806C926 798.27 926.22 797.96 929.25 797.42C931.04 797.09 933.4 796.92 934.5 797.03C935.6 797.14 937.06 797.18 937.75 797.12C938.44 797.05 939 796.1 939 795C939 793.13 938.33 793 929 793L919 793L919 808ZM943 808L943 823L949 823L949 811C960.73 811 961 810.89 961 808.5C961 806.11 960.73 806 955 806L949 806L949 797.5C960.84 797.27 961.53 797.04 961.75 795.13C961.99 793.09 961.61 793 952.5 793L943 793L943 808Z" />
		<path class="shp0" d="M899.46 798.01C898.27 798.53 896.89 800.67 896.13 803.2C895.38 805.68 895.11 808.98 895.5 811C895.87 812.92 896.92 815.3 897.83 816.28C898.75 817.26 900.63 818.07 902 818.07C903.38 818.07 905.23 817.26 906.12 816.28C907.02 815.3 908.03 812.81 908.37 810.75C908.72 808.69 908.57 805.31 908.05 803.25C907.43 800.78 906.24 799.07 904.55 798.25C903.15 797.56 901.89 797.03 901.75 797.06C901.61 797.1 900.58 797.53 899.46 798.01Z" />
	</g>
</svg>