<svg xmlns="http://www.w3.org/2000/svg" viewBox="0 0 1572 884" width="1572" height="884">
	<style>
		tspan { white-space:pre }
		.shp0 { fill: #ffffff } 
		.shp1 { fill: #3e862b } 
		.shp2 { fill: #bf413a } 
		.shp3 { fill: #696969 } 
		.shp4 { fill: #434343 } 
	</style>
	<g id="Background">
		<path id="Path 0" class="shp0" d="M0 442L0 884L1572 884L1572 0L0 0L0 442Z" />
		<path id="Path 1" class="shp1" d="M1453.5 98.59C1452.4 98.85 1447.45 100.01 1442.5 101.15C1437.55 102.3 1430.35 104.81 1426.5 106.73C1422.65 108.64 1416.13 112.72 1412 115.78C1407.88 118.84 1400 125.88 1394.49 131.42C1388.99 136.97 1380.63 146 1375.92 151.5C1371.22 157 1362.64 167.57 1356.87 175C1351.1 182.43 1342.52 193.9 1337.82 200.5C1333.11 207.1 1322.73 222.4 1314.76 234.5C1306.79 246.6 1294.2 266.4 1286.78 278.5C1279.37 290.6 1268.62 308.9 1262.9 319.17C1257.18 329.44 1249.8 342.68 1246.5 348.6L1240.5 359.36C1224.85 358.12 1222.65 357.49 1218.16 354.76C1215.22 352.96 1209.37 347.9 1205.14 343.5C1200.92 339.1 1194.94 332.13 1191.86 328C1188.78 323.88 1185.53 319.04 1184.63 317.25C1183.73 315.46 1182.44 313.99 1181.75 313.99C1181.06 313.98 1178.25 315.37 1175.5 317.08C1172.75 318.79 1169.6 321.09 1168.5 322.18C1167.4 323.27 1163.06 326.27 1158.85 328.83C1154.65 331.4 1145.87 337.13 1139.35 341.58C1132.83 346.02 1125.7 350.64 1123.5 351.86C1121.3 353.07 1118.94 354.94 1118.25 356.03C1117.17 357.73 1117.31 358.2 1119.25 359.42C1120.49 360.21 1125.14 365.04 1129.59 370.17C1134.03 375.3 1147.07 391.2 1158.56 405.5C1170.05 419.8 1184 438.25 1189.56 446.5C1195.12 454.75 1201.21 464.33 1203.09 467.79L1206.5 474.08L1268 474C1270.71 468.65 1271.84 467.3 1272.25 467.55C1272.66 467.8 1273.27 467.21 1273.61 466.25C1273.94 465.29 1275.07 462.59 1276.11 460.25C1277.15 457.91 1280.67 449.59 1283.93 441.75C1287.19 433.91 1293.07 420.52 1296.99 412C1300.91 403.48 1310.24 384.57 1317.71 370C1325.18 355.43 1336.47 334.27 1342.8 323C1349.13 311.73 1358.58 295.52 1363.8 287C1369.02 278.48 1379.71 261.82 1387.55 250C1395.39 238.18 1406.64 221.97 1412.56 214C1418.48 206.03 1428.72 192.75 1435.33 184.5C1443.4 174.42 1455.73 161.17 1472.92 144.1L1498.5 118.7C1498.5 108.41 1498.17 107.55 1495.5 105.4C1493.85 104.07 1490.03 102.03 1487 100.86C1482.63 99.17 1478.83 98.67 1468.5 98.42C1461.35 98.25 1454.6 98.32 1453.5 98.59Z" />
		<path id="Path 2" class="shp2" d="M487 152.04C482.32 152.45 474.45 153.54 469.5 154.45C464.55 155.37 456 157.4 450.5 158.97C445 160.55 435.66 163.9 429.75 166.42C423.84 168.94 415.06 173.21 410.25 175.91C405.44 178.62 397.68 183.56 393 186.9C388.32 190.23 380.67 196.46 375.99 200.73C371.31 205 364 212.32 359.75 217C355.5 221.68 350.07 228.2 347.68 231.5C345.28 234.8 340.21 242.68 336.4 249C332.59 255.32 327.59 265.23 325.29 271C323 276.77 319.77 286.23 318.12 292C316.46 297.77 314.31 306.55 313.34 311.5C311.92 318.68 311.56 325.64 311.55 346C311.55 368.35 311.82 372.86 313.76 382.5C314.97 388.55 317.5 398.23 319.38 404C321.25 409.77 324.53 418.55 326.67 423.5C328.81 428.45 333.38 437.45 336.82 443.5C340.26 449.55 346.07 458.55 349.72 463.5C353.37 468.45 361.59 477.68 367.99 484C374.92 490.85 384.65 499.08 392.06 504.35C399.57 509.69 410.05 515.92 418.5 520.06C426.2 523.83 437.9 528.72 444.5 530.91C451.1 533.11 460.55 535.8 465.5 536.9C470.45 538 480.8 539.44 488.5 540.09C499.3 541.01 506.16 541.02 518.5 540.11C527.68 539.43 539.4 537.84 546 536.37C552.33 534.96 561.77 532.45 567 530.78C572.23 529.12 581.9 525.15 588.5 521.96C595.1 518.78 603.88 514.02 608 511.39C612.13 508.76 618.2 504.58 621.5 502.11C624.8 499.63 632.17 493.31 637.88 488.05C643.59 482.8 651.48 474.68 655.4 470C659.32 465.32 665.05 457.68 668.13 453C671.21 448.32 676.1 439.77 678.99 434C681.89 428.23 685.55 420.13 687.13 416C688.71 411.88 691.1 404.68 692.44 400C693.77 395.32 695.89 386.32 697.14 380C699.11 370.07 699.42 365.43 699.4 346C699.39 326.62 699.07 321.91 697.1 312C695.84 305.68 693.57 296.23 692.05 291C690.53 285.77 687.85 277.9 686.09 273.5C684.32 269.1 680.17 260.32 676.85 254C673.53 247.68 667.53 238 663.52 232.5C659.5 227 652.46 218.5 647.86 213.6C643.26 208.71 635.45 201.24 630.5 197C625.55 192.77 617.67 186.72 613 183.57C608.33 180.41 598.65 174.95 591.5 171.43C584.35 167.9 573.1 163.25 566.5 161.09C559.9 158.93 550 156.25 544.5 155.14C539 154.03 530.11 152.64 524.75 152.06C519.39 151.48 510.61 151.06 505.25 151.14C499.89 151.22 491.68 151.62 487 152.04Z" />
		<path id="Path 3" class="shp0" d="M491 187.65C488.52 187.82 483.35 188.46 479.5 189.07C475.65 189.68 467.77 191.54 462 193.21C456.23 194.87 447.45 198.01 442.5 200.19C437.55 202.36 430.57 205.76 427 207.73C423.43 209.7 417.46 213.38 413.76 215.91C410.05 218.43 407.01 220.72 407 221C407 221.28 457.16 271.67 518.48 333C624.83 439.38 630.02 444.41 631.46 442.5C632.29 441.4 635.39 436.9 638.35 432.5C641.31 428.1 645.3 421.35 647.22 417.5C649.14 413.65 651.96 407.35 653.48 403.5C655 399.65 657.76 390.65 659.61 383.5C662.97 370.56 662.98 370.4 662.99 347.25C663 328.15 662.65 322.26 661.05 314.25C659.97 308.89 657.68 300.45 655.95 295.5C654.23 290.55 650.03 281.1 646.62 274.5C643.22 267.9 638.19 259.14 635.46 255.04C632.73 250.94 626.88 243.51 622.46 238.54C617.5 232.96 609.84 226.04 602.46 220.46C595.88 215.49 587.13 209.57 583 207.31C578.88 205.05 571.23 201.38 566 199.16C560.77 196.95 551.1 193.73 544.5 192.03C536 189.83 528.42 188.65 518.5 187.98C510.8 187.46 502.48 187.1 500 187.19C497.52 187.28 493.48 187.49 491 187.65Z" />
		<path id="Path 4" class="shp3" d="M289.98 235.15C288.06 236.32 280.43 241.91 273 247.57C265.57 253.23 246.22 269.25 230 283.18C213.77 297.11 196.67 311.81 192 315.86C183.9 322.87 183.47 323.11 182.85 320.86C182.49 319.56 182.16 309.27 182.11 298L182.02 277.5C172.32 276.33 158.59 275.99 145.25 275.99L121 276L120.98 378.5C85.84 409.5 70.43 423.25 64.07 429.06C56.34 436.12 52.4 440.43 52.19 442.06C51.99 443.61 52.81 445.5 54.44 447.25C55.85 448.76 57.9 450 59 450C60.1 450 64.26 447.36 68.25 444.13C72.24 440.89 85.63 429.54 98 418.9C110.38 408.26 142.1 380.91 168.5 358.13C194.9 335.35 229.3 305.64 244.95 292.11C260.59 278.57 278.03 263.56 283.7 258.75C289.36 253.94 294.34 250.17 294.75 250.38C295.16 250.59 301.57 255.78 309 261.91C316.43 268.04 322.95 273.04 323.5 273.02C324.05 273 325.74 270.06 327.25 266.49L330 260C324.96 255.15 319 250.28 313.5 246.06C308 241.83 302.15 237.45 300.5 236.32C298.85 235.19 296.59 233.98 295.48 233.64C294.24 233.26 292.1 233.85 289.98 235.15ZM921.75 246.73L903 247C903 254.81 903.59 256.61 905.25 258.31C906.49 259.58 910.31 261.72 913.75 263.06L920 265.5L920 645L903.93 652.5L904 664L1243 664L1243 652C1234.86 648.41 1231.04 646.72 1229.25 645.93L1226 644.5L1226 476L1271 476C1272.55 470.57 1272.71 468.44 1272.35 467.75C1271.93 466.96 1271.01 467.88 1269.85 470.25L1268 474L1206.5 474.08C1201.21 464.33 1195.12 454.75 1189.56 446.5C1184 438.25 1170.05 419.8 1158.56 405.5C1147.07 391.2 1134.03 375.3 1129.59 370.17C1125.14 365.04 1120.49 360.21 1119.25 359.42C1117.31 358.2 1117.17 357.73 1118.25 356.03C1118.94 354.94 1121.3 353.07 1123.5 351.86C1125.7 350.64 1132.83 346.02 1139.35 341.58C1145.87 337.13 1154.65 331.4 1158.85 328.83C1163.06 326.27 1167.4 323.27 1168.5 322.18C1169.6 321.09 1172.75 318.79 1175.5 317.08C1178.25 315.37 1181.06 313.98 1181.75 313.99C1182.44 313.99 1183.73 315.46 1184.63 317.25C1185.53 319.04 1188.79 323.88 1191.87 328C1194.96 332.13 1200.64 338.84 1204.49 342.91C1208.35 346.99 1214.2 352.06 1217.5 354.19C1220.8 356.31 1224.06 358.04 1224.75 358.03C1225.73 358.01 1226 349.67 1226 319.75C1225.99 298.71 1226.33 277.96 1226.75 273.63L1227.5 265.75C1237.96 260.52 1241.45 258.1 1242 257C1242.55 255.9 1243 252.97 1243 250.5L1243 246C1008.56 246.35 932.06 246.58 921.75 246.73Z" />
		<path id="Path 5" class="shp0" d="M374.36 256.11C370.99 261.28 366.04 269.47 363.36 274.31C360.31 279.85 358.87 283.43 359.5 283.94C360.05 284.38 378.05 299.98 399.5 318.59C420.95 337.2 446.6 359.6 456.5 368.37C466.4 377.13 487.55 395.88 503.5 410.03C519.45 424.19 533.51 436.72 534.75 437.88C536 439.06 537.01 441.22 537.03 442.75C537.04 444.32 536.07 446.46 534.78 447.73C533.52 448.95 531.6 449.97 530.5 449.98C529.4 449.98 527.15 449.16 525.5 448.14C523.85 447.12 515.75 440.5 507.5 433.44C499.25 426.37 467.98 399.45 438 373.6C408.02 347.76 376.64 320.62 368.25 313.31L353 300C351.45 305.04 350.31 310.1 349.46 314.5L347.92 322.5C352.24 326.24 380.27 349.71 413 377.06C445.73 404.4 474.3 428.35 476.5 430.27L480.5 433.77L481 503C487.59 503.92 499.4 503.97 511.5 503.71C527.71 503.35 535.08 502.79 539.5 501.56C542.8 500.65 549.77 498.51 555 496.82C560.23 495.12 568.55 491.73 573.5 489.28C578.45 486.83 584.08 483.9 586 482.78C587.92 481.66 592.55 478.67 596.28 476.12C600.01 473.58 603.05 471.16 603.03 470.75C603.01 470.34 552.94 419.76 491.75 358.36L380.5 246.73L374.36 256.11Z" />
		<path id="Path 6" class="shp3" d="M285 286.69C280.88 289.82 244.65 319.86 204.5 353.44C164.35 387.03 127.9 417.5 123.5 421.16C119.1 424.82 113.92 429.46 112 431.46L108.5 435.11L107.96 648.5C112.49 653.04 112.64 653.05 141.5 653.02C157.45 653 173.54 652.65 177.26 652.24L184.02 651.5L184 638L123 638L123.02 440.5C250.49 334 289.07 301.94 291 300.54C294.34 298.13 294.61 298.09 297 299.66C298.38 300.57 301.98 303.45 305 306.06C308.02 308.67 311.15 310.96 311.95 311.15C312.75 311.34 313.46 311.05 313.53 310.5C313.6 309.95 313.98 307.93 314.39 306C314.79 304.07 315.2 301.76 315.31 300.85C315.41 299.94 315.84 298.81 316.26 298.35C316.68 297.88 315.11 295.76 312.76 293.63C310.42 291.51 305.8 287.77 302.5 285.34C299.2 282.91 295.6 280.94 294.5 280.96C293.4 280.98 289.13 283.56 285 286.69ZM358.57 285.72C358.14 286.7 356.94 289.98 355.89 293C354.84 296.02 354.18 299.18 354.43 300C354.67 300.82 362.89 308.5 372.69 317.05C382.48 325.6 406.93 346.78 427 364.11C447.07 381.44 476.77 407.03 493 420.97C509.23 434.91 523.85 447.14 525.5 448.15C527.15 449.16 529.4 450.01 530.5 450.02C531.6 450.04 533.5 449.03 534.73 447.78C535.95 446.52 536.97 444.26 536.98 442.75C536.99 441.17 536.04 439.1 534.75 437.88C533.51 436.72 519.45 424.19 503.5 410.03C487.55 395.88 466.4 377.13 456.5 368.37C446.6 359.61 421.4 337.6 400.5 319.47C379.6 301.33 361.79 285.92 360.93 285.22C359.62 284.16 359.22 284.25 358.57 285.72Z" />
		<path id="Path 7" class="shp0" d="M1044.29 288.9C1039.74 289.34 1037.68 290.03 1036.55 291.5C1035.71 292.6 1034.73 294.63 1034.38 296C1034.04 297.38 1034.15 299.8 1034.63 301.39C1035.11 302.98 1036.77 305.23 1038.32 306.39C1041.06 308.43 1042.15 308.5 1072.92 308.5C1099.27 308.5 1105.17 308.24 1107.46 307C1108.98 306.18 1110.85 304.26 1111.61 302.75C1112.38 301.24 1113.01 299.21 1113.03 298.25C1113.04 297.29 1111.69 294.59 1110.03 292.25L1107 288C1063.21 288.24 1047.71 288.57 1044.29 288.9ZM137.51 291.69C135.56 292.14 135.52 292.93 135.73 327.32C135.85 346.67 136.29 362.82 136.72 363.22C137.15 363.62 139.75 361.86 142.5 359.31C145.25 356.76 151.9 350.81 157.28 346.09L167.06 337.5L167 291C145.69 291.18 138.6 291.44 137.51 291.69Z" />
		<path id="Path 8" class="shp3" d="M347.47 329.76C347.07 332.91 347.13 337.06 347.62 338.96C348.38 341.96 356.34 348.97 407.24 391.46L465.98 440.5L466 500C476.46 501.69 479.84 501.8 480.26 501.34C480.68 500.88 480.9 485.49 480.76 467.13L480.5 433.77C474.3 428.35 445.53 404.22 412.57 376.64C379.61 349.06 351.64 325.94 350.42 325.26C348.26 324.05 348.18 324.18 347.47 329.76Z" />
		<path id="Path 9" class="shp0" d="M346.48 352.15C346.82 357.84 347.75 366.89 348.55 372.25C349.35 377.61 351.62 387.06 353.61 393.25C355.59 399.44 359.61 409.45 362.55 415.5C365.48 421.55 371.15 431.23 375.15 437C379.14 442.77 386.7 451.79 391.95 457.03C397.2 462.27 406.23 470.08 412 474.38C418.14 478.96 427.48 484.64 434.5 488.08C441.1 491.31 450.66 495.31 455.75 496.98C460.84 498.64 465.23 500 465.5 500C465.77 500 466 486.61 465.99 470.25L465.99 440.5C375.05 364.55 348.03 342.34 347.26 342.15C346.11 341.86 345.97 343.58 346.48 352.15ZM1035 361.98C1033.81 362.73 1033.5 365.27 1033.5 374.21C1033.5 382.85 1033.96 386.79 1035.45 391C1036.52 394.02 1039.22 399.16 1041.45 402.41C1043.68 405.67 1047.53 409.69 1050 411.36C1052.47 413.03 1057.09 415.65 1060.25 417.2C1063.41 418.74 1066.67 420 1067.5 420C1068.57 420 1069 421.09 1069.01 423.75C1069.01 425.81 1068.45 430.1 1067.76 433.27C1067.07 436.44 1066.16 439.03 1065.75 439.02C1065.34 439.01 1062.64 437.88 1059.75 436.51C1056.56 435 1052.73 434.02 1050 434.02C1047.53 434.03 1044.49 434.25 1043.25 434.51C1042.01 434.78 1041 435.68 1041 436.5C1041 437.32 1042.46 439.89 1044.25 442.19C1046.04 444.5 1048.85 447.19 1050.5 448.19C1052.15 449.18 1056.42 450.33 1060 450.75L1066.5 451.5C1068.23 470.1 1068.57 475.95 1068.37 476.5C1068.17 477.05 1064.97 478.68 1061.25 480.12C1057.54 481.56 1051.58 483.04 1048 483.4C1044.42 483.77 1039.59 484.95 1037.25 486.04C1034.91 487.12 1030.64 490.21 1027.75 492.92C1024.68 495.79 1019.8 498.99 1016 500.62C1012.42 502.15 1007.02 505.23 1004 507.45L998.5 511.5C1009.35 512.47 1039.5 512.81 1072.5 512.88C1105.5 512.95 1135.99 512.67 1140.26 512.25C1144.53 511.84 1148 511.05 1147.98 510.5C1147.96 509.95 1146.94 508.77 1145.72 507.87C1144.5 506.98 1140.58 505.04 1137 503.57C1133.28 502.03 1128.58 499.06 1126 496.61C1123.53 494.26 1119.7 491.42 1117.5 490.3C1115.3 489.19 1111.03 487.7 1108 487C1104.97 486.3 1099.58 484.26 1096 482.46C1092.42 480.65 1088.04 478.91 1086.25 478.59C1084.06 478.19 1082.54 477.11 1081.59 475.25C1080.81 473.74 1079.62 469.35 1078.95 465.5C1078.19 461.14 1077.92 453.42 1078.23 445C1078.61 434.7 1079.21 430.2 1080.79 426C1082.8 420.68 1083.12 420.38 1090.68 416.66C1096.13 413.98 1100.33 410.95 1104.53 406.66C1108.92 402.17 1111.29 398.67 1113.28 393.75C1114.77 390.04 1116 385.88 1116 384.5C1116 382.28 1115.59 382 1112.25 382.01C1110.19 382.01 1105.58 382.49 1102 383.07C1097.95 383.72 1093.8 385.21 1091 387C1088.53 388.59 1084.81 392.16 1082.75 394.94C1080.69 397.72 1078.66 400.01 1078.25 400.03C1077.84 400.04 1076.94 398.92 1076.25 397.53C1075.56 396.14 1075 394.44 1074.99 393.75C1074.98 393.06 1073.82 390.02 1072.39 387C1070.97 383.98 1068.16 379.52 1066.15 377.11C1064.14 374.69 1060.03 371.05 1057 369.01C1053.97 366.97 1048.91 364.33 1045.75 363.15C1042.59 361.97 1039.21 361.01 1038.25 361.02C1037.29 361.02 1035.83 361.46 1035 361.98Z" />
		<path id="Path 10" class="shp3" d="M189.01 429.75C189.01 430.16 190.64 437.48 192.63 446C194.61 454.52 197.79 466 199.7 471.5C201.6 477 205.18 485.77 207.65 491C210.12 496.23 214.08 503.2 216.45 506.5C218.83 509.8 223.41 515.02 226.63 518.1C229.9 521.21 235.72 525.32 239.75 527.35C246.63 530.81 247.52 531 257.25 531.08C262.89 531.12 269.41 530.67 271.75 530.08C274.09 529.49 276.26 528.44 276.58 527.75C276.9 527.06 276.49 525.15 275.68 523.5C274.87 521.85 273.37 519.76 272.35 518.85C271.33 517.94 266 515.3 260.5 512.99C255 510.68 247.13 507.37 243.02 505.65C238.18 503.61 235.44 501.88 235.27 500.75C235.06 499.37 235.73 499 238.5 499C240.43 499 245.49 499.67 249.75 500.5C254.01 501.32 258.74 502 260.25 502C262.78 502 262.91 501.82 261.84 499.75C261.21 498.51 254.47 491.2 246.87 483.5C239.27 475.8 233.04 468.94 233.02 468.25C233.01 467.56 233.56 466.8 234.25 466.55C234.94 466.31 237.97 467.55 241 469.31C244.03 471.08 249.09 474.65 252.25 477.26C255.41 479.87 258.45 482 259 482C259.55 482 260.01 479.64 260.02 476.75C260.02 473.86 260.43 470.82 260.91 470C261.63 468.77 262.02 468.95 263.05 471C263.75 472.38 265.74 477.77 267.48 483C269.8 490 272.09 494.48 276.15 500C279.18 504.13 282.43 508.18 283.38 509C284.97 510.39 285.09 510.14 285.06 505.5C285.04 502.75 284.1 496.9 282.98 492.5C281.85 488.1 279.53 482.02 277.82 479C276.1 475.98 272.85 471.31 270.6 468.64C268.34 465.97 263.51 461.24 259.85 458.14C256.19 455.04 249.44 450.41 244.85 447.87C240.26 445.32 232.22 441.64 227 439.69C221.78 437.74 211.76 434.54 204.75 432.57C197.74 430.61 191.32 429 190.5 429C189.68 429 189 429.34 189.01 429.75ZM347 476.13C342.88 478.39 337.02 481.93 334 484.01C330.98 486.09 327.31 489.07 325.85 490.64C324.39 492.22 321.79 495.75 320.07 498.5C318.34 501.25 316.03 506.43 314.94 510C313.85 513.58 312.97 518.64 312.98 521.25C312.99 523.86 313.34 526.21 313.75 526.46C314.16 526.71 315.58 525.02 316.9 522.71C318.22 520.39 321.36 515.35 323.88 511.5C326.4 507.65 332.07 500.72 336.48 496.1C340.89 491.48 346.3 486.4 348.5 484.82C350.7 483.24 353.06 481.96 353.75 481.97C354.44 481.99 355 482.68 355 483.5C355 484.32 351.67 492.31 347.61 501.25C343.54 510.19 338.81 521.77 337.08 527C335.36 532.23 333.62 538.26 333.22 540.41L332.5 544.32C341.02 543.54 345.52 542.35 348 541.17C350.48 540 355.15 536.44 358.38 533.27C361.61 530.09 365.98 524.58 368.08 521C370.18 517.42 373.22 511.13 374.84 507C376.46 502.88 378.06 498.49 378.39 497.25C378.9 495.37 377.08 493.12 367.25 483.48C360.79 477.15 355.27 471.98 355 472C354.73 472.01 351.13 473.87 347 476.13ZM312.26 488.81L307.01 490.5C310.88 497.09 312.34 498.99 312.75 498.99C313.16 498.98 315.19 496.51 317.25 493.49C319.31 490.47 321 487.77 321 487.5C321 487.23 320.21 487.03 319.25 487.06C318.29 487.09 315.14 487.88 312.26 488.81ZM333.67 508.22C330.66 512.22 326.6 518.42 324.65 522C322.71 525.58 319.49 532.33 317.5 537C315.52 541.67 312.97 549.1 311.84 553.5C310.26 559.67 309.94 563.1 310.43 568.5C310.79 572.35 311.73 578.54 312.54 582.25L314 589L321 589C321.9 576.99 322.82 568.77 323.63 563C324.44 557.23 326.27 547.55 327.7 541.5C329.13 535.45 332.71 524.09 335.65 516.25C338.59 508.41 340.58 501.76 340.07 501.47C339.57 501.18 336.68 504.22 333.67 508.22ZM272.73 507.65C273.01 509.22 273.86 511.4 274.63 512.5C275.39 513.6 277.16 516.18 278.55 518.23C279.93 520.28 282.8 526.36 284.93 531.73C287.05 537.1 289.96 545.33 291.39 550C292.82 554.67 294.9 563 296.01 568.5C297.21 574.41 298.33 585.35 298.77 595.25L299.5 612.01L310.5 612.01C309.27 594.57 308.04 585 306.97 579.5C305.91 574 303.48 564.55 301.57 558.5C299.66 552.45 294.93 541.2 291.06 533.5C287.19 525.8 281.88 516.39 279.26 512.59C276.64 508.78 273.99 505.48 273.36 505.24C272.61 504.95 272.4 505.77 272.73 507.65ZM221.81 528.86C220.68 531.41 219.11 535.3 218.33 537.5C217.56 539.7 216.26 545.89 215.46 551.25C214.66 556.61 214.01 562.46 214.02 564.25C214.03 567.17 213.65 567.6 210.27 568.5C208.19 569.05 206.53 569.95 206.56 570.5C206.59 571.05 212.1 576.34 218.81 582.25L231 593C239.38 577.89 242.98 571.36 244.41 568.75C245.83 566.14 246.78 563.55 246.5 563C246.21 562.42 244.19 562.25 241.75 562.58L237.5 563.17C238.66 553.74 240.12 547.74 241.5 543.75C242.87 539.76 244.11 536.16 244.25 535.73C244.39 535.31 239.86 532.55 234.19 529.6L223.88 524.23L221.81 528.86ZM368 530.48C365.52 533.66 361.59 538 359.25 540.13L355 544C357.74 555.63 358.02 560.13 357.61 567C357.3 572.23 356.56 578.3 355.97 580.5C355.37 582.7 355.25 584.83 355.69 585.23C356.14 585.64 360.89 587.55 366.25 589.48L376 593C378.16 587.96 379.38 583.8 380.1 580.5C380.83 577.2 381.39 569.1 381.36 562.5C381.3 552.45 380.85 549.04 378.57 541.5C377.08 536.55 375.1 530.75 374.18 528.6L372.5 524.71L368 530.48ZM466.58 538.57C466.05 539.02 465.74 559.76 465.83 588.67L466 638L405 638L405.5 652.28L476.5 653.17C480.44 647.58 480.5 645.96 480.41 593.6C480.32 541.36 480.26 539.7 478.41 539.46C477.36 539.32 474.48 538.89 472 538.51C469.52 538.12 467.09 538.15 466.58 538.57Z" />
		<path id="Path 11" class="shp0" d="M981.48 550.8C979.78 552.46 978.68 554.51 978.8 555.8C978.91 557.01 980.09 559.24 981.41 560.75L983.83 563.5L1157.5 564.26C1161.76 559.41 1163 557.21 1163 556.25C1162.99 555.29 1162.09 553.04 1161 551.25L1159 548L984.37 548L981.48 550.8ZM981.47 593.08C979.98 594.77 978.82 597.02 978.88 598.08C978.95 599.13 980.09 601.24 981.41 602.75L983.83 605.5L1157.5 606.21C1161.76 601.4 1163 599.1 1163 598C1163 596.9 1162.1 594.65 1161 593L1159 590L984.16 590L981.47 593.08Z" />
		<path id="Path 12" class="shp3" d="M242.11 606.79C238.05 609.93 234.22 613.31 233.61 614.31C232.66 615.86 233.63 617.2 240.52 623.81C244.93 628.04 251.46 633.2 255.02 635.27C258.58 637.34 264.99 640.38 269.25 642.02C273.51 643.66 280.04 645.43 283.75 645.96C287.46 646.48 296.35 646.65 303.5 646.32C314.8 645.8 317.68 645.3 325.5 642.46C330.45 640.66 335.95 638.58 337.72 637.84C340.83 636.55 341.07 636.63 344.37 640C346.25 641.92 348.02 643.05 348.29 642.5C348.57 641.95 350.21 634.98 351.94 627C353.67 619.02 355.29 611.71 355.54 610.75C355.96 609.13 354.7 609 339 609L322 609L326 617C319.02 620.1 314.64 621.5 311.75 622.12C308.78 622.75 301.5 623.04 295 622.8C286.47 622.48 281.95 621.8 277.5 620.16C274.2 618.95 269.25 616.47 266.5 614.64C263.75 612.81 258.91 608.99 255.75 606.16C252.59 603.32 249.89 601.02 249.75 601.04C249.61 601.06 246.18 603.64 242.11 606.79Z" />
		<path id="Path 13" class="shp4" d="M182.46 693.25C180.47 695.04 178.38 698.08 177.8 700C177.23 701.92 177.05 705.52 177.4 708C177.75 710.48 178.85 713.85 179.85 715.5C180.85 717.15 182.76 719.11 184.09 719.85C185.79 720.8 187.97 720.98 191.5 720.47C194.78 719.98 197.28 718.92 198.75 717.37C199.99 716.06 201 714.1 201 713C201 711.44 200.42 711.05 198.34 711.25C196.8 711.39 195.43 712.27 195.09 713.32C194.77 714.33 193.6 715.38 192.5 715.67C191.4 715.96 189.49 715.92 188.25 715.6C186.89 715.24 185.37 713.52 184.4 711.25C183.36 708.79 183.01 706.12 183.4 703.5C183.73 701.3 184.6 698.8 185.34 697.95C186.09 697.09 187.66 696.08 188.85 695.7C190.42 695.19 191.68 695.68 193.5 697.5C195.06 699.06 197.13 700 199 700L202 700C199.05 694.96 196.69 692.71 194.85 691.75C193.01 690.79 190.28 690 188.79 690C187.13 690 184.66 691.27 182.46 693.25ZM308 690.66C307.18 690.99 305.66 691.99 304.64 692.88C303.62 693.77 302.01 696.08 301.06 698C300.12 699.92 299.26 703.19 299.17 705.25C299.08 707.31 299.9 711.02 301 713.5C302.1 715.98 303.9 718.45 305 719C306.1 719.55 309.25 720 312 720C314.75 720 317.9 719.55 319 719C320.1 718.45 321.63 716.76 322.39 715.25C323.15 713.74 324.06 710.25 324.41 707.5C324.92 703.44 324.61 701.66 322.77 698.07C321.52 695.63 319.6 693.05 318.5 692.33C317.4 691.6 314.93 690.8 313 690.54C311.07 690.28 308.82 690.34 308 690.66ZM335.07 691.36C333.19 692.06 331.02 693.5 330.26 694.57C329.4 695.76 329.13 697.46 329.55 699C329.92 700.38 331.04 702.4 332.03 703.5C333.02 704.6 336.11 706.63 338.9 708C341.69 709.38 344.2 711.29 344.48 712.25C344.77 713.21 344.42 714.46 343.71 715.02C343 715.59 340.91 715.93 339.07 715.77C336.89 715.6 335.15 714.68 334.11 713.17C333.12 711.75 331.72 710.97 330.5 711.17C329.14 711.4 328.6 712.14 328.8 713.5C328.97 714.6 330.2 716.51 331.55 717.75C333.56 719.6 335.15 720 340.43 720C344.78 720 347.37 719.51 348.43 718.5C349.29 717.67 350.03 716.66 350.07 716.25C350.12 715.84 350.34 714.49 350.57 713.25C350.81 712.01 350.32 709.88 349.5 708.5C348.68 707.13 347.55 706 347 706C346.45 706 343.52 704.54 340.49 702.75C337.45 700.96 334.98 699.16 334.99 698.75C334.99 698.34 335.71 697.33 336.57 696.5C337.44 695.67 339.12 694.99 340.32 694.97C341.52 694.95 343.4 695.86 344.5 697C345.6 698.14 347.29 699.05 348.25 699.03C349.21 699.01 350.23 698.55 350.5 698C350.77 697.45 350.21 695.86 349.25 694.46C348.29 693.06 346.15 691.47 344.5 690.94C342.85 690.4 340.82 689.99 340 690.02C339.18 690.05 336.96 690.65 335.07 691.36ZM85.36 705.75L85.5 720.5C90.47 720.5 90.5 720.42 90.25 712.75C90.11 708.49 90.38 704.21 90.84 703.25C91.56 701.76 92.05 702.1 94.08 705.5C95.39 707.7 96.65 709.95 96.88 710.5C97.11 711.05 98.58 713.41 100.15 715.75C102.44 719.17 103.58 720 106 720L109 720L109 691L102.84 691L102.5 709.5C94.99 697.88 91.84 693.72 90.65 692.77C89.47 691.82 87.76 691.03 86.86 691.02C85.41 691 85.24 692.68 85.36 705.75ZM118.65 693.5C117.19 694.88 115.5 697.91 114.9 700.25C114.29 702.59 113.98 706.3 114.2 708.5C114.42 710.7 115.65 713.85 116.92 715.5C118.2 717.15 120.42 719.1 121.87 719.84C123.48 720.66 126.05 720.95 128.5 720.6C130.7 720.29 133.33 719.23 134.35 718.26C135.37 717.29 136.77 715.38 137.45 714C138.14 712.63 138.78 709.25 138.89 706.5C139 703.75 138.39 699.81 137.55 697.75C136.7 695.69 134.99 693.32 133.75 692.49C132.47 691.64 129.3 690.99 126.4 690.99C122.34 691 120.76 691.51 118.65 693.5ZM141 692.02C139.77 692.76 139.73 693.15 140.8 694.21C141.52 694.92 143.32 695.58 144.8 695.67C146.29 695.76 148.06 695.87 148.75 695.92C149.68 695.98 150 699.11 150 708L150 720L156 720L156 696C163.83 695.54 164.54 695.14 164.75 693.25C165 691.03 164.84 691 153.75 691.07C147.56 691.1 141.82 691.53 141 692.02ZM210.25 693.02C208.03 694.37 206.68 696.19 206.01 698.75C205.46 700.81 205.01 703.96 205.01 705.75C205 707.54 205.79 710.87 206.75 713.15C207.71 715.44 209.74 718.14 211.25 719.15C213.31 720.54 215.19 720.88 218.75 720.51C222.19 720.16 224.26 719.26 226.26 717.26C227.94 715.58 229.46 712.55 230.14 709.5C230.97 705.81 230.97 703.58 230.14 701C229.53 699.08 227.67 696.04 226.01 694.25C223.42 691.45 222.34 691 218.25 691.02C215.3 691.03 212.27 691.78 210.25 693.02ZM235.09 706L235 721C240.14 720.53 240.52 720.04 240.66 717C240.75 715.08 240.87 711.36 240.91 708.75C240.96 706.14 241.45 704 242 704C242.55 704 244.29 707.49 245.86 711.75C248.11 717.85 249.18 719.55 250.86 719.75C252.67 719.96 253.49 718.79 256.12 712.25C257.83 707.99 259.52 704.05 259.87 703.5C260.21 702.95 260.73 706.33 261 711C261.49 719.27 261.57 719.5 264 719.5L266.5 719.5L266.88 691.24C260.77 691.05 258.8 691.34 258.56 691.75C258.32 692.16 256.55 697 254.63 702.5L251.15 712.5C248.89 707.08 247.17 702.23 245.87 698.24L243.5 690.97L235.17 691L235.09 706ZM273.04 705.46L273 720C278.26 719.52 278.53 719.1 278.78 715L279.07 710.5C287.96 709.34 291.33 708.23 292.36 707.25C293.39 706.29 294.63 704.49 295.11 703.25C295.69 701.78 295.54 699.7 294.66 697.25C293.91 695.15 292.25 692.99 290.91 692.33C289.58 691.69 285.03 691.11 280.79 691.05L273.08 690.92L273.04 705.46ZM354 693C354 694.1 354.68 695.23 355.5 695.5C356.32 695.77 358.35 696 360 696L363 696L363 720L369 720L369 696C376.83 695.54 377.54 695.14 377.75 693.25C378 691.03 377.85 691 366 691C354.67 691 354 691.11 354 693ZM387.62 693.25C386.85 694.49 385.91 696.63 385.54 698C385.17 699.38 384.46 701.4 383.96 702.5C383.45 703.6 381.68 707.99 380.02 712.25C378.36 716.51 377.34 720.24 377.75 720.53C378.16 720.82 379.4 721.04 380.5 721.02C381.64 721 383.25 719.7 384.25 717.99C385.8 715.34 386.54 715 390.75 714.98C394.59 714.96 395.93 715.44 397.75 717.48C399.02 718.9 401.09 720 402.5 720L405 720C400.2 707.21 398.15 701.7 397.35 699.5C396.56 697.3 395.25 694.49 394.45 693.25C393.65 692.01 392.11 691 391.02 691C389.93 691 388.4 692.01 387.62 693.25ZM408 705.5L408 720C425.66 720 426.08 719.9 428.03 717.25C429.15 715.74 430.05 713.26 430.03 711.75C430.02 710.24 429.21 708.29 428.25 707.42C426.76 706.07 426.69 705.47 427.75 703.42C428.44 702.09 429 699.65 429 698C429 695.89 428.19 694.4 426.25 692.97C424.03 691.32 422.01 690.94 415.75 690.97L408 691L408 705.5ZM435 705.5C435 717.5 435.26 720.09 436.5 720.5C437.32 720.77 441.71 720.77 446.25 720.49C450.79 720.21 454.73 719.76 455 719.5C455.27 719.24 455.16 718.34 454.75 717.51C454.2 716.4 452.3 716 447.5 716L441 716L441 691L435 691L435 705.5ZM458.04 705.46L458 720C477.93 720 478.97 719.82 478.74 718.25C478.59 717.29 477.92 716.39 477.24 716.25C476.56 716.11 473.52 716 470.5 716L465 716C465 708.16 465.13 708 468.25 707.99C470.04 707.98 472.51 707.75 473.75 707.49C475.17 707.18 476 706.26 476 705C476 703.9 475.66 703.05 475.25 703.12C474.84 703.18 472.36 703.18 469.75 703.12C465.08 703 465 702.94 464.99 699.75C464.98 696.51 465 696.5 471.24 695.73C474.68 695.3 477.89 694.63 478.36 694.23C478.83 693.83 478.94 692.94 478.61 692.25C478.18 691.38 474.98 690.99 468.04 690.96L458.08 690.92L458.04 705.46ZM500.26 695.2C499.14 697.56 496.83 703.44 495.11 708.25C493.4 713.06 492 717.67 492 718.5C492 719.33 492.79 720.01 493.75 720.03C494.71 720.04 496.63 718.9 498 717.5C499.86 715.61 501.53 714.95 504.5 714.95C507.47 714.95 509.14 715.61 511 717.5C512.38 718.9 514.29 720.04 515.25 720.03C516.68 720 516.89 719.41 516.37 716.75C516.03 714.96 515.41 712.6 514.99 711.5C514.58 710.4 514.11 709.05 513.95 708.5C513.79 707.95 512.25 703.9 510.54 699.5C507.87 692.64 507.07 691.46 504.86 691.2C502.71 690.94 501.98 691.58 500.26 695.2ZM518 692.11C516.71 692.91 516.78 693.25 518.5 694.54C519.6 695.36 521.74 696.03 523.25 696.02L526 696C526.24 708.79 526.25 713.17 526.17 714C526.09 714.83 526.24 716.51 526.51 717.75C526.86 719.35 527.72 720 529.5 720C530.88 720 532.07 719.44 532.15 718.75C532.24 718.06 532.41 717.05 532.54 716.5C532.66 715.95 532.82 711.11 532.88 705.75L533 696C539.81 695.55 540.55 695.09 540.75 693.25C541 691.04 540.83 691 530.25 691.09C524.34 691.15 518.83 691.61 518 692.11ZM555.06 703.75C555.14 710.76 555.61 717.29 556.1 718.25C556.6 719.21 557.9 720 559 720C560.1 720 560.95 719.66 560.88 719.25C560.82 718.84 560.82 716.14 560.88 713.25L561 708L573 708L573 720L579 720L579 691L573 691L573 703L561 703L561 691L554.91 691L555.06 703.75ZM589.29 692.77C588.07 693.72 586.39 696.19 585.54 698.25C584.69 700.31 584 703.58 584 705.5C584 707.42 584.79 710.87 585.75 713.15C586.71 715.44 588.85 718.21 590.5 719.31C592.87 720.9 594.45 721.19 598 720.7C601.06 720.29 603.39 719.19 605.26 717.29C606.93 715.6 608.47 712.52 609.14 709.5C609.95 705.89 609.96 703.52 609.18 701C608.59 699.08 606.73 696.04 605.05 694.25C602.35 691.38 601.39 691 596.75 691.02C593.32 691.04 590.73 691.64 589.29 692.77ZM615 694.75C615 696.81 614.67 703.34 614.25 709.26L613.5 720.01C618.29 720 619.13 719.42 619.49 717.75C619.75 716.51 619.98 712.91 619.99 709.75C619.99 706.59 620.34 703.99 620.75 703.97C621.16 703.96 622.02 704.97 622.67 706.22C623.31 707.48 624.66 710.92 625.67 713.88C626.67 716.84 628.11 719.54 628.86 719.88C629.66 720.24 630.99 719.47 632.08 718C633.1 716.63 634.74 713.32 635.72 710.66C636.7 707.99 638.08 705.29 638.79 704.66C639.83 703.73 640.1 704.21 640.17 707C640.21 708.92 640.19 712.64 640.12 715.25C640 719.89 640.07 720 643 720L646 720L646 691C642.13 691 640.21 691.39 639.25 691.87C638.29 692.35 636.44 695.61 635.15 699.12C633.86 702.63 632.29 706.52 631.65 707.78C631.02 709.03 630.27 710.06 630 710.06C629.73 710.07 627.92 705.99 626 701.01C624.08 696.02 621.94 691.73 621.25 691.47C620.56 691.21 618.88 691 617.5 691C615.28 691 615 691.42 615 694.75ZM652.04 705.46L652 720C669.98 720 670.97 719.81 670.74 718.25C670.53 716.83 669.3 716.45 664.24 716.25L658 716L658 708C667.5 708 669.14 707.59 669.5 706.5C669.77 705.67 669.77 704.55 669.5 704C669.23 703.45 666.52 703 663.5 703L658 703C657.98 696.51 658 696.5 664.24 695.73C667.68 695.3 670.89 694.63 671.36 694.23C671.83 693.83 671.98 693.05 671.7 692.5C671.43 691.95 666.9 691.37 661.64 691.21L652.08 690.92L652.04 705.46ZM1229.5 694.99C1227.85 696.07 1225.71 698.43 1224.75 700.23C1223.78 702.03 1223.01 705.08 1223.02 707C1223.04 708.92 1223.48 712.3 1224 714.5C1224.53 716.74 1226.17 719.58 1227.73 720.94C1229.38 722.4 1232.12 723.55 1234.5 723.78C1237.51 724.08 1239.37 723.59 1242 721.8C1244.23 720.29 1245.98 717.99 1246.83 715.46C1247.56 713.28 1247.99 709.25 1247.78 706.5C1247.53 703.2 1246.57 700.39 1244.95 698.23C1243.6 696.44 1241.15 694.52 1239.5 693.97C1237.85 693.42 1235.6 692.98 1234.5 692.99C1233.4 693 1231.15 693.9 1229.5 694.99ZM1345.41 694.62C1343.71 695.49 1341.63 697.17 1340.79 698.35C1339.95 699.53 1338.94 702.75 1338.55 705.5C1338.14 708.37 1338.3 712.31 1338.92 714.75C1339.51 717.09 1341.01 719.81 1342.25 720.79C1343.49 721.78 1347.09 722.9 1350.25 723.29C1353.41 723.68 1356.79 723.61 1357.75 723.13C1358.71 722.65 1360.29 721.53 1361.25 720.63C1362.51 719.46 1363 717.45 1363 713.5L1363 708C1353.37 708.42 1351.5 708.92 1351.5 709.78C1351.5 710.49 1352.63 711.63 1354 712.31C1355.38 713 1356.65 714.45 1356.82 715.53C1357 716.61 1356.55 717.83 1355.82 718.23C1355.1 718.64 1353.04 718.98 1351.25 718.98C1348.98 719 1347.54 718.32 1346.48 716.75C1345.65 715.51 1344.73 712.7 1344.43 710.5C1344.06 707.74 1344.45 705.42 1345.7 703.01C1346.69 701.09 1348.72 699.07 1350.23 698.51C1352.58 697.64 1353.33 697.87 1355.73 700.23C1357.25 701.73 1359.29 702.97 1360.25 702.98C1361.25 702.99 1362.01 702.25 1362.03 701.25C1362.04 700.29 1361.03 698.54 1359.78 697.37C1358.52 696.21 1356.49 694.74 1355.25 694.12C1354.01 693.51 1351.99 693.01 1350.75 693.02C1349.51 693.04 1347.11 693.76 1345.41 694.62ZM1410.08 694.03C1408.2 694.54 1405.72 696.13 1404.58 697.56C1402.96 699.59 1402.46 701.73 1402.34 707.33C1402.22 712.46 1402.68 715.5 1403.94 718C1404.92 719.92 1406.56 721.9 1407.61 722.39C1408.65 722.88 1411.53 723.43 1414 723.61C1417.98 723.91 1418.94 723.55 1422.25 720.47C1424.31 718.56 1425.85 716.44 1425.67 715.75C1425.49 715.06 1424.48 714.35 1423.42 714.17C1422.28 713.98 1420.85 714.79 1419.89 716.17C1418.96 717.53 1417.08 718.61 1415.39 718.77C1413.8 718.91 1411.73 718.46 1410.79 717.77C1409.85 717.07 1408.7 714.7 1408.24 712.5C1407.78 710.3 1407.64 706.84 1407.95 704.81C1408.25 702.79 1409.4 700.44 1410.5 699.59C1411.6 698.75 1413.4 698.04 1414.5 698C1415.6 697.97 1417.74 699.3 1419.25 700.97C1420.76 702.64 1422.75 703.89 1423.67 703.75C1424.58 703.61 1425.48 702.94 1425.67 702.25C1425.85 701.56 1424.54 699.42 1422.75 697.5C1420.85 695.45 1418.25 693.81 1416.5 693.55C1414.85 693.31 1411.96 693.52 1410.08 694.03ZM1437.03 694.73C1435.13 695.7 1432.69 698.08 1431.61 700C1430.43 702.1 1429.62 705.49 1429.59 708.5C1429.55 711.25 1430.28 715.07 1431.21 717C1432.21 719.09 1434.32 721.2 1436.44 722.25C1438.4 723.21 1441.13 724 1442.5 724C1443.88 724 1446.24 723.38 1447.75 722.63C1449.26 721.88 1451.39 719.97 1452.48 718.38C1453.98 716.19 1454.47 713.82 1454.48 708.5C1454.5 703.05 1454.06 700.9 1452.5 698.8C1451.4 697.31 1449.38 695.64 1448 695.08C1446.63 694.52 1444.38 693.82 1443 693.51C1441.55 693.19 1439.05 693.7 1437.03 694.73ZM897.74 695.71C896.83 696.69 895.14 700.2 893.97 703.5C892.8 706.8 891.72 709.95 891.57 710.5C891.42 711.05 891.02 712.17 890.67 713C890.32 713.83 889.35 716.41 888.52 718.75C887.03 722.91 887.05 723.01 889.25 723.44C890.49 723.69 891.84 723.69 892.25 723.44C892.66 723.2 893.45 721.88 894 720.5C894.87 718.32 895.62 718 899.75 718C903.75 718 904.93 718.47 907.25 721C908.9 722.8 911 724 912.5 724L915 724C911.66 715.09 909.07 708.45 907.09 703.5C904.35 696.63 903.01 694.43 901.44 694.21C900.31 694.04 898.64 694.72 897.74 695.71ZM920.89 696.39C919.57 697.7 917.9 700.74 917.17 703.14C916.29 705.99 916.09 709.05 916.58 712C917.11 715.15 918.41 717.64 920.92 720.3C923.86 723.41 925.17 724.08 928.25 724.05C930.31 724.02 933.35 723.33 935 722.5C936.65 721.67 938.67 719.65 939.5 718C940.33 716.35 940.66 714.76 940.25 714.47C939.84 714.18 938.49 713.96 937.25 713.97C935.94 713.99 934.38 715.04 933.5 716.5C932.61 717.98 931.08 719 929.75 719.01C928.51 719.01 926.49 718.34 925.25 717.51C923.33 716.22 923 715.1 922.97 709.75C922.94 704.71 923.37 702.95 925.22 700.65C927.04 698.38 928 697.94 930 698.49C931.38 698.86 932.73 699.47 933 699.83C933.27 700.2 934.4 701.29 935.5 702.26C936.6 703.23 938.29 703.79 939.25 703.51C940.21 703.23 941 702.55 941 702C941 701.45 939.65 699.42 938 697.5C935.2 694.24 934.6 694 929.14 694C924.29 694 922.86 694.41 920.89 696.39ZM948.42 697.18C947.09 698.73 945.71 701.24 945.37 702.75C945.02 704.26 944.9 708.35 945.12 711.83C945.46 717.46 945.85 718.47 948.75 721.08C950.54 722.68 953.01 724.01 954.25 724.01C955.49 724.02 958.04 723.68 959.91 723.26C961.79 722.84 964.38 721.49 965.66 720.25C966.95 719.01 968 717.1 968 716C968 714.53 967.33 714 965.5 714C963.9 714 962.46 714.9 961.5 716.5C960.43 718.28 959.13 719 957 719C954.8 719 953.55 718.27 952.33 716.25C951.09 714.21 950.76 711.93 951.08 707.43C951.35 703.55 952.1 700.76 953.18 699.68C954.1 698.76 955.79 698 956.93 698C958.07 698 959.67 698.67 960.5 699.5C961.33 700.33 962 701.45 962 702C962 702.55 962.67 703.23 963.5 703.5C964.33 703.77 965.9 704 967 704C968.1 704 969.01 703.89 969.02 703.75C969.03 703.61 968.36 702.04 967.52 700.25C966.68 698.46 964.99 696.32 963.75 695.48C962.32 694.52 959.57 694.04 956.17 694.17C951.68 694.33 950.45 694.81 948.42 697.18ZM973 708.5C973 722.73 973.04 723.01 975.25 723.49C976.49 723.75 979.98 723.97 983 723.97C986.02 723.97 989.54 723.64 990.81 723.24C992.12 722.82 992.97 721.86 992.79 721C992.62 720.17 991.92 719.39 991.24 719.25C990.56 719.11 987.52 719 984.5 719L979 719L979 711C988.5 711 990.14 710.59 990.5 709.5C990.77 708.67 990.77 707.55 990.5 707C990.23 706.45 987.52 706 984.5 706L979 706L979 699C990.39 699 992.12 698.63 992.5 697.5C992.77 696.67 993 695.55 993 695C993 694.4 989 694 983 694L973 694L973 708.5ZM997 709L997 724C1002.97 724 1003 723.94 1003 718.5C1003 715.48 1003.34 712.98 1003.75 712.95C1004.16 712.93 1006.64 712.7 1009.25 712.45C1011.86 712.2 1014.9 711.55 1016 711C1017.1 710.45 1018.45 708.42 1019 706.5C1019.55 704.58 1019.77 702.1 1019.5 701C1019.23 699.9 1017.65 697.88 1016 696.5C1013.35 694.29 1012.07 694 1005 694L997 694L997 709ZM1023 696C1023 697.1 1023.67 698.23 1024.5 698.5C1025.33 698.77 1027.35 699 1029 699C1031.9 699 1032 699.16 1032.08 703.75C1032.12 706.36 1032.1 711.65 1032.04 715.5C1031.96 720.27 1032.33 722.73 1033.21 723.23C1033.92 723.64 1035.29 723.98 1036.25 723.98C1037.82 724 1038 722.74 1038 711.5L1038 699C1045.83 698.54 1046.54 698.14 1046.75 696.25C1047 694.03 1046.85 694 1035 694C1023.67 694 1023 694.11 1023 696ZM1056.56 696.25C1055.74 697.49 1054.93 699.4 1054.74 700.5C1054.55 701.6 1053.92 703.4 1053.32 704.5C1052.72 705.6 1051.06 709.76 1049.62 713.75C1048.18 717.74 1047 721.45 1047 722C1047 722.55 1048.13 723 1049.5 723C1051.1 723 1052.54 722.1 1053.5 720.5C1054.78 718.37 1055.73 718 1060 718C1064.27 718 1065.22 718.37 1066.5 720.5C1067.46 722.1 1068.9 723 1070.5 723C1071.88 723 1072.99 722.44 1072.98 721.75C1072.97 721.06 1070.9 715.1 1068.38 708.5C1065.86 701.9 1063.28 695.92 1062.65 695.21C1062.02 694.49 1060.72 693.93 1059.77 693.96C1058.82 693.98 1057.37 695.01 1056.56 696.25ZM1077 708.5L1077 723C1094.89 723 1095.02 722.96 1097 720C1098.1 718.35 1099.01 715.99 1099.02 714.75C1099.03 713.51 1098.19 711.6 1097.15 710.5C1095.48 708.74 1095.42 708.2 1096.59 706C1097.33 704.63 1097.95 702.04 1097.96 700.25C1097.99 697.62 1097.43 696.71 1095 695.5C1093.13 694.57 1089.17 694 1084.5 694L1077 694L1077 708.5ZM1104.04 707.25C1104.09 714.54 1104.44 721 1104.82 721.61C1105.19 722.21 1107.08 723.02 1109 723.39C1110.92 723.76 1114.88 723.71 1117.79 723.28C1121.71 722.7 1123 722.11 1122.78 721C1122.61 720.17 1121.92 719.39 1121.24 719.25C1120.56 719.11 1117.75 719 1115 719L1110 719L1110 694L1103.93 694L1104.04 707.25ZM1127 708.5L1127 723C1133.59 723.92 1137.53 723.9 1140 723.54C1142.47 723.19 1145.17 722.5 1146 722.01C1146.83 721.51 1147.13 720.75 1146.67 720.31C1146.21 719.86 1145.42 719.39 1144.92 719.25C1144.41 719.11 1141.53 719 1138.5 719L1133 719L1133 711C1140.87 711.07 1142.93 710.56 1143.75 709.54C1144.44 708.7 1144.78 707.55 1144.5 707C1144.22 706.45 1141.53 706 1138.5 706L1133 706L1133 699C1144.39 699 1146.12 698.63 1146.5 697.5C1146.78 696.67 1147 695.55 1147 695C1147 694.4 1143 694 1137 694L1127 694L1127 708.5ZM1169.62 696.75C1168.83 698.26 1166.34 704.45 1164.08 710.5C1161.81 716.55 1159.97 721.84 1159.98 722.25C1159.99 722.66 1161.24 723.01 1162.75 723.03C1164.71 723.05 1165.86 722.33 1166.75 720.53C1167.82 718.36 1168.68 718 1172.75 717.98C1176.59 717.96 1177.93 718.44 1179.75 720.48C1180.99 721.86 1182.9 723 1184 723C1185.1 723 1186 722.55 1186 722C1186 721.45 1184.38 716.39 1182.4 710.75C1180.42 705.11 1178.23 699.38 1177.54 698C1176.85 696.63 1175.54 695.16 1174.64 694.75C1173.74 694.34 1172.56 694 1172.02 694C1171.48 694 1170.4 695.24 1169.62 696.75ZM1186.04 695.96C1186.02 697.08 1186.67 698.23 1187.5 698.5C1188.33 698.77 1190.35 699 1192 699L1195 699C1195.2 711.79 1195.31 717.08 1195.38 719C1195.48 721.85 1195.92 722.55 1197.75 722.75C1198.99 722.89 1200.07 722.44 1200.15 721.75C1200.24 721.06 1200.41 720.05 1200.54 719.5C1200.66 718.95 1200.82 714.11 1200.88 708.75L1201 699C1206.04 699.03 1208.36 698.46 1209.4 697.77C1210.45 697.07 1211.01 695.94 1210.65 695.25C1210.19 694.36 1206.56 693.99 1198.04 693.96C1186.67 693.92 1186.08 694.02 1186.04 695.96ZM1253 708.5L1253 723C1258.22 722.53 1258.55 722.04 1259 718C1259.39 714.48 1259.94 713.43 1261.5 713.18C1262.6 713 1264.17 713.65 1265 714.61C1265.83 715.58 1267.17 717.73 1268 719.38C1268.86 721.12 1270.67 722.74 1272.25 723.2C1273.95 723.69 1275 723.62 1275 723C1275 722.45 1273.88 719.75 1272.5 717L1270 712C1273.92 706.19 1275.05 703.26 1275.03 701.75C1275.01 699.94 1273.97 698.14 1272 696.5C1269.35 694.29 1268.07 694 1261 694L1253 694L1253 708.5ZM1286.91 698.75C1285.8 701.36 1284.62 704.63 1284.29 706C1283.95 707.38 1282.83 710.52 1281.79 713C1280.75 715.48 1279.7 718.74 1279.45 720.25C1279.03 722.8 1279.2 722.96 1281.75 722.4C1283.26 722.08 1285.06 720.95 1285.75 719.9C1286.69 718.47 1288.17 718.01 1291.75 718.03C1295.83 718.05 1296.85 718.49 1299 721.12C1300.69 723.2 1302.2 724.08 1303.66 723.85C1305.76 723.51 1305.68 723.13 1300.78 710C1298.01 702.58 1295.24 695.92 1294.62 695.21C1294 694.49 1292.47 693.93 1291.22 693.96C1289.47 693.99 1288.47 695.1 1286.91 698.75ZM1309.07 708.44L1309 723L1315 723C1315 710.6 1315.45 706.77 1316 706.5C1316.55 706.23 1317.91 707.69 1319.03 709.75C1320.14 711.81 1322 715.08 1323.17 717C1324.33 718.92 1325.9 721.06 1326.64 721.75C1327.39 722.44 1329.01 722.89 1330.25 722.75C1332.46 722.5 1332.5 722.24 1332.65 708.25L1332.79 694L1327 694C1327 707.92 1326.68 709.91 1325.75 709.65C1325.06 709.45 1322.46 705.97 1319.97 701.9C1316.05 695.5 1315.01 694.46 1312.29 694.19L1309.14 693.87L1309.07 708.44ZM1368 708.5L1368 723C1373.04 723.9 1377.42 723.96 1381 723.73C1386.57 723.36 1387.5 723.03 1387.5 721.4C1387.5 719.75 1386.63 719.47 1380.75 719.25L1374 719L1374 711C1383.5 711 1385.14 710.59 1385.5 709.5C1385.78 708.67 1385.78 707.55 1385.5 707C1385.22 706.45 1382.53 706 1379.5 706L1374 706L1374 699C1385.39 699 1387.12 698.63 1387.5 697.5C1387.78 696.67 1388 695.55 1388 695C1388 694.4 1384 694 1378 694L1368 694L1368 708.5ZM1459 706L1459 718C1463.26 720.68 1464.72 721.8 1465 722.22C1465.28 722.65 1467.08 723.29 1469 723.65C1471.17 724.06 1473.79 723.77 1475.89 722.9C1477.77 722.12 1479.96 720.17 1480.81 718.5C1481.84 716.5 1482.46 711.9 1482.68 704.75L1483 694L1476 694C1476 709.5 1475.55 715.13 1475 716.5C1474.24 718.39 1473.27 719 1471 719C1469 719 1467.67 718.33 1467 717C1466.45 715.9 1466 710.27 1466 704.5L1466 694L1459 694L1459 706ZM1488.15 707.18C1488.19 714.51 1488.4 721.06 1488.61 721.75C1488.83 722.44 1489.79 723.01 1490.75 723.02C1491.91 723.04 1492.76 721.95 1493.26 719.77C1493.68 717.97 1494.02 714.36 1494.01 711.75C1494.01 709.14 1494.45 707 1495 707C1495.55 707 1497.65 709.81 1499.66 713.25C1501.67 716.69 1504.03 720.3 1504.91 721.28C1505.78 722.26 1507.74 723.05 1509.25 723.03L1512 723L1512 694L1505.84 694L1505.5 712.5C1500.85 705.03 1498.13 700.98 1496.46 698.68C1494.43 695.9 1492.52 694.39 1490.74 694.18L1488.07 693.86L1488.15 707.18ZM1516 695.08C1514.71 695.9 1514.78 696.25 1516.5 697.54C1517.6 698.36 1519.74 699.03 1521.25 699.02L1524 699C1524.24 711.01 1524.25 715.17 1524.18 716C1524.11 716.83 1524.26 718.74 1524.52 720.25C1524.92 722.55 1525.45 722.96 1527.75 722.75C1529.34 722.61 1530.56 721.87 1530.63 721C1530.71 720.17 1530.82 714.89 1530.88 709.25L1531 699C1538.83 698.54 1539.54 698.14 1539.75 696.25C1540 694.03 1539.84 694 1528.75 694.07C1522.56 694.1 1516.83 694.56 1516 695.08ZM1546.33 703.19C1548.49 708.31 1550.53 714.98 1550.88 718C1551.4 722.6 1551.82 723.5 1553.48 723.5C1554.72 723.5 1555.72 722.58 1556.18 721C1556.58 719.63 1557.63 716.02 1558.51 713C1559.39 709.98 1561.67 704.46 1563.56 700.75C1566.95 694.1 1566.97 694 1564.75 693.97C1563.51 693.95 1561.78 694.74 1560.89 695.72C1560.01 696.7 1558.21 699.64 1556.89 702.26C1555.58 704.87 1554.18 706.67 1553.79 706.26C1553.4 705.84 1551.83 703.02 1550.29 700C1548.15 695.78 1546.91 694.43 1544.96 694.19L1542.42 693.88L1546.33 703.19Z" />
		<path id="Path 14" class="shp0" d="M122.5 697.64C120.23 699.79 119.75 701.07 119.86 704.64C119.94 707.04 120.67 710.35 121.5 712C122.33 713.65 124.01 715.27 125.25 715.6C126.49 715.92 128.51 715.59 129.74 714.85C130.97 714.11 132.2 712.6 132.47 711.5C132.75 710.4 132.98 707.81 132.99 705.75C132.99 703.69 132.48 700.99 131.84 699.75C131.2 698.51 129.96 696.95 129.09 696.28C128.21 695.61 127 695.05 126.39 695.03C125.77 695.01 124.02 696.19 122.5 697.64ZM214 697C212.38 698.62 212 700.33 212 706C212 712.14 212.28 713.19 214.25 714.54C215.49 715.39 217.61 715.95 218.97 715.79C220.43 715.62 221.97 714.47 222.71 713C223.4 711.63 223.98 708.14 223.99 705.25C224 700.97 223.54 699.54 221.5 697.5C220.13 696.13 218.32 695 217.5 695C216.68 695 215.1 695.9 214 697ZM308.03 697.75C306.87 699.26 305.67 701.85 305.35 703.5C305.04 705.15 305.28 708.19 305.89 710.25C306.5 712.31 307.9 714.45 309 715C310.1 715.55 312.01 715.89 313.25 715.75C314.74 715.58 316.08 714.25 317.25 711.75C318.52 709.02 318.82 706.85 318.32 703.75C317.93 701.32 316.65 698.54 315.32 697.25C314.04 696.01 312.35 695 311.57 695C310.78 695 309.18 696.24 308.03 697.75ZM593 697C591.38 698.62 591 700.33 591 706C591 712.14 591.28 713.19 593.25 714.54C594.49 715.39 596.61 715.95 597.97 715.79C599.43 715.62 600.97 714.47 601.71 713C602.4 711.63 602.98 708.14 602.99 705.25C603 700.97 602.54 699.54 600.5 697.5C599.13 696.13 597.33 695 596.5 695C595.67 695 594.1 695.9 593 697ZM279 700.5L279 705C284.81 704.11 287.11 703.32 287.85 702.68C288.7 701.94 288.98 700.48 288.6 698.75C288.05 696.25 287.6 696 283.5 696L279 696L279 700.5ZM414 699.5C414 702.16 414.42 703 415.75 703.02C416.71 703.03 418.96 702.58 420.75 702.02C422.54 701.46 424 700.33 424 699.5C424 698.67 423.1 697.55 422 697C420.9 696.45 418.65 696 417 696C414.24 696 414 696.28 414 699.5ZM1231.52 700.75C1228.95 703.31 1228.81 703.9 1229.36 709.5C1229.74 713.26 1230.62 716.17 1231.73 717.28C1232.7 718.26 1234.4 719.07 1235.5 719.07C1236.6 719.07 1238.4 718.1 1239.5 716.92C1240.88 715.44 1241.61 713.03 1241.86 709.14C1242.18 704.02 1241.95 703.24 1239.36 700.71C1237.79 699.18 1236 697.94 1235.39 697.96C1234.77 697.98 1233.03 699.24 1231.52 700.75ZM1437.96 700.63C1436.31 702.64 1435.82 704.49 1435.91 708.38C1435.98 711.2 1436.6 714.63 1437.29 716C1438.02 717.45 1439.59 718.63 1441.02 718.82C1442.39 718.99 1444.52 718.32 1445.78 717.32C1447.7 715.79 1448.09 714.43 1448.28 708.66C1448.48 702.42 1448.28 701.65 1446 699.87C1444.63 698.79 1442.74 697.93 1441.82 697.96C1440.89 697.98 1439.15 699.19 1437.96 700.63ZM1003 703.5L1003 708C1008.81 707.98 1011.1 707.64 1011.83 707.23C1012.56 706.83 1013.15 705.15 1013.15 703.5C1013.15 701.85 1012.56 700.17 1011.83 699.77C1011.1 699.36 1008.81 699.02 1006.75 699.02L1003 699L1003 703.5ZM1083.5 699.67C1083.04 700.03 1082.73 701.72 1082.81 703.42C1082.96 706.43 1083.04 706.48 1086.73 705.75C1088.8 705.33 1090.81 704.43 1091.18 703.75C1091.56 703.06 1091.44 701.71 1090.93 700.75C1090.38 699.71 1088.84 699 1087.17 699C1085.61 699 1083.96 699.3 1083.5 699.67ZM1259.19 703.25L1259.5 707.5C1265.7 707.22 1267.83 706.54 1268.23 705.82C1268.64 705.09 1268.98 703.49 1268.98 702.25C1268.99 701.01 1268.33 699.77 1267.5 699.5C1266.67 699.23 1264.4 699 1262.44 699L1258.88 699L1259.19 703.25ZM390.26 701.5C389.66 702.6 389.02 704.85 388.84 706.5C388.54 709.14 388.83 709.53 391.25 709.75C393.52 709.96 393.99 709.61 393.95 707.75C393.93 706.51 393.33 704.15 392.63 702.5C391.41 699.66 391.29 699.6 390.26 701.5ZM502.19 704.75C501.59 706.81 501.31 708.84 501.55 709.25C501.8 709.66 503.13 710 504.5 710C505.88 710 507.23 709.55 507.5 709C507.77 708.45 507.32 706.42 506.5 704.5C505.68 702.58 504.61 701 504.14 701C503.66 701 502.78 702.69 502.19 704.75ZM1058.1 706.25C1057.48 708.04 1056.97 710.29 1056.98 711.25C1056.99 712.45 1057.79 713 1059.5 713C1060.88 713 1062.22 712.55 1062.5 712C1062.78 711.45 1062.55 709.42 1062 707.5C1061.45 705.58 1060.6 703.78 1060.11 703.5C1059.63 703.23 1058.72 704.46 1058.1 706.25ZM1171.14 706.75C1170.53 708.81 1170.03 711.06 1170.02 711.75C1170.01 712.48 1171.26 713 1173 713C1175.18 713 1176 712.52 1176.02 711.25C1176.03 710.29 1175.58 708.04 1175.02 706.25C1174.46 704.46 1173.61 703 1173.13 703C1172.65 703 1171.76 704.69 1171.14 706.75ZM898.19 707.75C897.59 709.81 897.31 711.84 897.55 712.25C897.8 712.66 899.13 713 900.5 713C901.88 713 903.23 712.55 903.5 712C903.77 711.45 903.33 709.42 902.5 707.5C901.67 705.58 900.61 704 900.14 704C899.66 704 898.78 705.69 898.19 707.75ZM1289.59 708C1288.71 710.2 1288 712.23 1288 712.5C1288 712.77 1289.35 713 1291 713C1292.65 713 1294.2 712.66 1294.45 712.25C1294.7 711.84 1294.48 709.81 1293.95 707.75C1293.43 705.69 1292.59 704 1292.09 704C1291.58 704 1290.46 705.8 1289.59 708ZM414 712C414 715.89 414.1 716 417.43 716C419.31 716 421.56 715.33 422.43 714.5C423.29 713.67 424 712.33 424 711.5C424 710.67 423.1 709.55 422 709C420.9 708.45 418.65 708 417 708C414.17 708 414 708.22 414 712ZM1083 715C1083 718.89 1083.1 719 1086.43 719C1088.31 719 1090.56 718.33 1091.43 717.5C1092.29 716.67 1093 715.33 1093 714.5C1093 713.67 1092.1 712.55 1091 712C1089.9 711.45 1087.65 711 1086 711C1083.17 711 1083 711.22 1083 715Z" />
		<path id="Path 15" class="shp4" d="M897.5 745.1C895.85 745.6 893.47 747.03 892.2 748.26C890.94 749.49 889.43 752.3 888.85 754.5C888.27 756.7 888.06 760.41 888.4 762.75C888.73 765.09 889.79 768.17 890.75 769.59C891.71 771.02 893.85 772.81 895.5 773.57C897.15 774.33 900.52 774.79 903 774.6C906.36 774.35 908.07 773.59 909.75 771.63C910.99 770.18 912.5 767.09 913.1 764.75C913.9 761.67 913.91 759.12 913.12 755.5C912.49 752.6 911.08 749.66 909.77 748.5C908.52 747.4 906.49 745.94 905.25 745.25C904.01 744.56 902.44 744.04 901.75 744.09C901.06 744.13 899.15 744.59 897.5 745.1ZM1052.25 745.97C1050.46 747.09 1048.34 749.01 1047.54 750.25C1046.73 751.49 1045.78 753.85 1045.42 755.5C1045.07 757.15 1045.05 760.64 1045.39 763.25C1045.76 766.16 1046.97 769.17 1048.5 771C1049.96 772.75 1052.36 774.24 1054.25 774.58C1056.04 774.91 1059.41 774.68 1061.75 774.08C1064.91 773.28 1066.38 772.23 1067.5 770C1068.33 768.35 1068.78 766.55 1068.5 766C1068.22 765.45 1067.21 764.99 1066.25 764.98C1065.29 764.96 1063.49 766.09 1062.25 767.48C1061.01 768.86 1058.99 770.01 1057.75 770.03C1056.51 770.05 1054.6 769.1 1053.5 767.93C1051.93 766.24 1051.5 764.41 1051.5 759.31C1051.5 753.58 1051.79 752.6 1054 750.87C1055.38 749.79 1057.06 748.93 1057.75 748.96C1058.44 748.98 1060.24 750.35 1061.75 752C1063.26 753.65 1065.29 755 1066.25 755C1067.21 755 1068.22 754.55 1068.5 754C1068.78 753.45 1068.33 751.65 1067.5 750C1066.67 748.35 1065.21 746.59 1064.25 746.1C1063.29 745.6 1060.92 744.91 1059 744.56C1056.41 744.1 1054.65 744.46 1052.25 745.97ZM1155.34 744.93C1154.15 745.37 1152.35 746.75 1151.34 747.98C1150.33 749.22 1149.39 751.2 1149.25 752.37C1149.12 753.54 1149.61 755.4 1150.34 756.5C1151.08 757.6 1154.46 759.96 1157.84 761.75C1161.23 763.54 1164.34 765.68 1164.75 766.51C1165.16 767.34 1165.28 768.25 1165 768.52C1164.72 768.8 1162.7 769.3 1160.5 769.64C1156.96 770.18 1156.3 769.95 1154.75 767.62C1153.61 765.92 1152.24 765.09 1150.83 765.25C1149.63 765.39 1148.51 766.06 1148.33 766.75C1148.15 767.44 1149.24 769.38 1150.75 771.07C1153 773.58 1154.49 774.24 1159 774.68C1163.88 775.17 1164.87 774.93 1167.75 772.61C1169.71 771.03 1170.99 769.11 1170.97 767.75C1170.95 766.51 1170.05 764.04 1168.97 762.25C1167.63 760.03 1165.81 758.68 1163.25 757.99C1161.19 757.44 1158.38 756.08 1157 754.98L1154.5 752.97C1158.38 749.83 1160.06 748.93 1160.75 748.96C1161.44 748.98 1163.01 750.14 1164.25 751.52C1165.49 752.91 1167.29 754.04 1168.25 754.02C1169.21 754.01 1170.22 753.55 1170.5 753C1170.78 752.45 1170.33 750.88 1169.5 749.5C1168.67 748.13 1166.42 746.33 1164.5 745.5C1162.58 744.67 1160.21 744.03 1159.25 744.06C1158.29 744.1 1156.53 744.49 1155.34 744.93ZM918 760L918 775L925 775C925.45 765.65 925.88 764.46 927.25 764.26C928.37 764.09 929.99 765.53 931.75 768.25C933.26 770.59 935.06 773.06 935.75 773.75C936.44 774.44 937.9 775 939 775C940.59 775 940.87 774.54 940.37 772.75C940.03 771.51 938.9 768.81 937.87 766.75C936.84 764.69 936.23 762.33 936.5 761.5C936.77 760.67 937.34 760.02 937.75 760.04C938.16 760.06 939.1 758.82 939.83 757.29C940.57 755.76 940.91 753.49 940.58 752.25C940.26 751.01 938.65 748.88 937 747.5C934.35 745.29 933.07 745 926 745L918 745L918 760ZM950.02 747.75C948.29 749.26 946.39 752.08 945.8 754C945.21 755.93 945.02 759.75 945.38 762.5C945.73 765.25 946.69 768.51 947.51 769.75C948.33 770.99 950.69 772.72 952.75 773.61C955.36 774.73 957.86 775.02 961 774.57C963.48 774.22 966.3 773.16 967.28 772.21C968.6 770.95 969.06 768.99 969.03 764.75L969 759C962.41 759.02 959.83 759.43 959 759.93C958.06 760.49 957.78 761.42 958.25 762.41C958.66 763.29 959.9 764 961 764C962.23 764 963.01 764.67 963.02 765.75C963.03 766.71 962.49 768.06 961.82 768.75C961.15 769.44 959.34 770 957.8 770C956.01 770 954.46 769.19 953.51 767.75C952.69 766.51 951.74 763.92 951.41 762C951.08 760.08 951.3 756.59 951.9 754.25C952.76 750.93 953.55 749.89 955.5 749.5C956.88 749.23 959.01 749.38 960.25 749.85C961.49 750.31 962.84 751.44 963.25 752.35C963.68 753.29 964.93 753.89 966.17 753.75C967.37 753.61 968.45 752.99 968.58 752.38C968.7 751.76 967.73 749.85 966.4 748.13C964.23 745.31 963.47 745 958.58 745C954.11 745 952.62 745.48 950.02 747.75ZM982.38 748.25C981.46 750.04 979.24 755.55 977.45 760.5C975.65 765.45 973.69 770.74 973.09 772.25C972.05 774.88 972.13 775 975 775C977.3 775 978.29 774.36 979.26 772.25C980.37 769.82 981.12 769.47 985.76 769.25C990.6 769.02 991.15 769.23 993 772C994.11 773.67 995.89 775 997 775C998.1 775 999.23 774.55 999.5 774C999.77 773.45 999.6 772.21 999.12 771.25C998.63 770.29 997.77 768.38 997.21 767C996.65 765.63 994.99 761.13 993.53 757C992.07 752.88 990.23 748.49 989.44 747.25C988.65 746.01 987.11 745 986.02 745C984.8 745 983.41 746.24 982.38 748.25ZM1003.15 759.94L1003 775L1009 775C1009 762.6 1009.45 758.77 1010 758.5C1010.55 758.23 1013.09 761.26 1015.63 765.25C1018.18 769.24 1021 773.07 1021.88 773.77C1022.77 774.46 1024.51 775.03 1025.75 775.02C1027.98 775 1028 774.88 1028 760L1028 745L1022 745C1021.98 756.24 1021.64 760.08 1021.23 760.8C1020.75 761.66 1018.66 759.32 1015 753.8C1010.29 746.7 1009.05 745.46 1006.4 745.19L1003.31 744.89L1003.15 759.94ZM1034 760L1034 775L1040 775L1040 745L1034 745L1034 760ZM1083.71 750.19C1084.43 753.11 1085.28 757.08 1085.6 759C1085.92 760.92 1086.75 764.98 1087.44 768C1088.13 771.02 1089.44 773.95 1090.35 774.5C1091.47 775.18 1092.56 775.15 1093.75 774.41C1094.78 773.76 1096.32 770.18 1097.5 765.65C1098.6 761.44 1099.84 757.99 1100.25 757.99C1100.66 758 1101.52 760.14 1102.15 762.75C1102.79 765.36 1103.46 768.06 1103.65 768.75C1103.84 769.44 1104.19 770.79 1104.42 771.75C1104.66 772.71 1104.88 773.73 1104.92 774C1104.96 774.27 1106.35 774.61 1108 774.75C1109.69 774.89 1111.21 774.45 1111.47 773.75C1111.73 773.06 1112.16 771.38 1112.44 770C1112.71 768.63 1114.03 762.77 1115.37 757C1116.72 751.23 1117.63 746.16 1117.41 745.75C1117.18 745.34 1116.21 744.98 1115.25 744.96C1114.29 744.93 1112.83 745.63 1112 746.5C1111.17 747.37 1110.72 748.08 1111 748.06C1111.28 748.05 1110.83 750.94 1110 754.48C1109.17 758.03 1108.07 761.06 1107.54 761.22C1107.01 761.37 1106.21 759.92 1105.76 758C1105.31 756.08 1104.69 753.15 1104.37 751.5C1104.06 749.85 1103.4 747.71 1102.9 746.75C1102.41 745.79 1101.44 744.98 1100.75 744.96C1100.06 744.93 1098.98 745.49 1098.35 746.21C1097.71 746.92 1096.68 749.52 1096.04 752C1095.41 754.48 1094.41 758.08 1093.82 760C1093.02 762.64 1092.56 763.13 1091.94 762C1091.49 761.17 1090.83 758.7 1090.47 756.5C1090.12 754.3 1089.51 750.92 1089.13 749C1088.53 746.03 1087.96 745.45 1085.41 745.19L1082.39 744.88L1083.71 750.19ZM1128.62 747.75C1127.83 749.26 1125.34 755.45 1123.08 761.5C1120.81 767.55 1118.97 773.06 1118.98 773.75C1118.99 774.44 1120.13 775 1121.5 775C1123.28 775 1124.43 774.13 1125.5 772C1126.87 769.27 1127.44 769 1132 769C1136.44 769 1137.22 769.33 1139 772C1140.22 773.83 1141.88 775.01 1143.25 775.02C1145.2 775.04 1145.41 774.68 1144.85 772.27C1144.49 770.75 1142.34 764.55 1140.08 758.5C1137.82 752.45 1135.19 746.93 1134.24 746.23C1133.28 745.54 1131.95 744.97 1131.27 744.98C1130.59 744.99 1129.4 746.24 1128.62 747.75ZM1174.17 747.25C1174.45 749.13 1175.2 749.54 1178.75 749.75L1183 750L1183 775C1188.46 774.46 1188.5 774.35 1188.69 766.98C1188.8 762.86 1188.91 757.36 1188.94 754.75L1189 750C1196.83 749.54 1197.54 749.14 1197.75 747.25C1198 745.03 1197.85 745 1185.92 745C1173.96 745 1173.84 745.02 1174.17 747.25ZM1202 760L1202 775C1219.32 775 1222 774.67 1222.02 773.75C1222.03 773.06 1221.46 771.93 1220.77 771.23C1220.03 770.5 1217.08 769.97 1213.75 769.98L1208 770L1208 761C1219.15 761 1219.96 760.75 1219.74 759.25C1219.53 757.85 1218.33 757.45 1213.74 757.25L1208 757L1208 750C1219.39 750 1221.12 749.63 1221.5 748.5C1221.78 747.67 1222 746.55 1222 746C1222 745.4 1218 745 1212 745L1202 745L1202 760ZM1236 760L1236 775C1246.46 774.41 1250.4 773.77 1251.5 773.21C1252.6 772.64 1254.63 770.98 1256 769.5C1257.84 767.52 1258.6 765.45 1258.86 761.66C1259.09 758.4 1258.63 755.12 1257.61 752.75C1256.72 750.69 1254.54 748.1 1252.75 747C1250.35 745.53 1247.74 745.01 1242.75 745L1236 745L1236 760ZM1264 760L1264 775C1269.27 774.52 1269.54 774.09 1270 769.5C1270.45 765.01 1270.75 764.5 1272.93 764.5C1274.75 764.5 1276.02 765.61 1277.93 768.89C1279.35 771.3 1281.17 773.73 1282 774.29C1282.83 774.85 1284.29 775.01 1285.25 774.65C1286.85 774.06 1286.75 773.49 1284.1 768.25L1281.2 762.5C1284.99 758.16 1286 755.74 1286 754C1286 752 1285 750 1283 748C1280.17 745.17 1279.56 745 1272 745L1264 745L1264 760ZM1294.25 748.75C1290.77 752.49 1290.76 752.52 1291.13 760.64C1291.47 768.02 1291.76 769.04 1294.37 771.64C1296.47 773.73 1298.35 774.56 1301.37 774.72C1303.64 774.85 1306.85 774.33 1308.5 773.57C1310.15 772.81 1312.29 771.02 1313.25 769.59C1314.21 768.17 1315.22 764.98 1315.5 762.5C1315.78 760.02 1315.55 756.2 1315 754C1314.4 751.61 1312.79 748.99 1311 747.5C1308.66 745.55 1306.88 745 1302.87 745C1298.23 745 1297.41 745.36 1294.25 748.75ZM1321.05 759.95L1321 775C1326.31 774.52 1326.52 774.15 1326.78 769.5L1327.06 764.5C1336.96 763.24 1339.17 762.36 1341 760.5C1342.89 758.58 1343.45 757.05 1343.28 754.23C1343.17 752.18 1342.27 749.69 1341.28 748.7C1340.3 747.7 1337.92 746.52 1336 746.05C1334.08 745.59 1329.94 745.14 1326.8 745.06L1321.11 744.9L1321.05 759.95ZM1362.1 748.5C1360.36 750.46 1358.73 753.65 1358.38 755.75C1358.04 757.81 1358.04 761.41 1358.38 763.75C1358.77 766.41 1360.09 769.22 1361.92 771.25C1364.55 774.18 1365.39 774.5 1370.4 774.5C1375.35 774.5 1376.32 774.14 1379.23 771.23C1382.38 768.08 1382.5 767.68 1382.5 759.87L1382.5 751.77C1375.18 745.52 1373.71 744.95 1369.85 744.97C1365.8 745 1364.79 745.46 1362.1 748.5ZM1388.04 759.96L1388 775L1394 775L1394 763C1405.63 763 1405.98 762.86 1405.75 760.75C1405.53 758.74 1404.89 758.47 1399.75 758.25L1394 758L1393.98 750.5C1403.68 749.3 1406.89 748.63 1407.36 748.23C1407.83 747.83 1407.98 747.05 1407.7 746.5C1407.43 745.95 1402.9 745.37 1397.64 745.21L1388.08 744.92L1388.04 759.96ZM1411 760L1411 775C1417.45 774.5 1417.51 774.42 1418 768.66L1418.5 762.81C1426.25 762.26 1428.89 761.74 1429.36 761.3C1429.83 760.86 1429.94 759.94 1429.61 759.25C1429.23 758.47 1426.91 758 1423.5 758L1418 758L1418 750C1425.75 750 1428.34 750.04 1428.75 750.09C1429.16 750.13 1429.83 749.57 1430.23 748.84C1430.64 748.1 1430.98 746.94 1430.98 746.25C1431 745.33 1428.34 745 1421 745L1411 745L1411 760Z" />
		<path id="Path 16" class="shp0" d="M897.64 750.75C896.73 751.71 895.53 754.52 894.97 757C894.27 760.08 894.27 762.53 894.97 764.75C895.54 766.54 896.9 768.45 898 769C899.1 769.55 900.67 770 901.5 770C902.33 770 903.9 769.1 905 768C906.5 766.5 907 764.68 906.99 760.75C906.98 757.86 906.75 754.6 906.47 753.5C906.2 752.4 904.86 750.94 903.49 750.25C902.12 749.56 900.62 749 900.15 749C899.68 749 898.55 749.79 897.64 750.75ZM1300.78 749.7C1299.84 749.96 1298.6 751.26 1298.03 752.58C1297.47 753.91 1297.01 757.14 1297.01 759.75C1297.02 762.36 1297.6 765.63 1298.29 767C1298.98 768.38 1300.55 769.61 1301.78 769.75C1303 769.89 1304.9 769.55 1306 769C1307.1 768.45 1308.51 766.31 1309.14 764.25C1310.04 761.31 1309.98 759.45 1308.89 755.62C1308.13 752.94 1306.71 750.35 1305.75 749.87C1304.79 749.39 1303.66 749.05 1303.25 749.12C1302.84 749.18 1301.73 749.44 1300.78 749.7ZM1366.52 751.75C1363.95 754.31 1363.81 754.9 1364.36 760.5C1364.74 764.26 1365.62 767.17 1366.73 768.28C1367.7 769.26 1369.4 770.07 1370.5 770.07C1371.6 770.07 1373.4 769.1 1374.5 767.92C1375.88 766.44 1376.61 764.03 1376.86 760.14C1377.18 755.02 1376.95 754.24 1374.36 751.71C1372.79 750.18 1371 748.94 1370.39 748.96C1369.77 748.98 1368.03 750.24 1366.52 751.75ZM925 754.5C925 758.92 925.06 759 928.3 759C930.12 759 932.15 758.44 932.82 757.75C933.49 757.06 934.03 755.26 934.02 753.75C934.01 752.21 933.34 750.78 932.5 750.5C931.67 750.23 929.65 750 928 750C925.11 750 925 750.17 925 754.5ZM1242 760C1242 767.32 1242.33 770 1243.25 770.02C1243.94 770.03 1245.85 769.59 1247.5 769.04C1249.15 768.49 1251.11 767.02 1251.85 765.77C1252.76 764.26 1253.02 761.84 1252.64 758.5C1252.32 755.68 1251.29 752.72 1250.29 751.72C1249.29 750.72 1247.07 749.95 1245.25 749.97L1242 750L1242 760ZM1270.19 754.25L1270.5 758.5C1276.7 758.22 1278.83 757.54 1279.23 756.82C1279.64 756.09 1279.98 754.94 1279.98 754.25C1279.99 753.56 1279.33 752.33 1278.5 751.5C1277.67 750.67 1275.4 750 1273.44 750L1269.88 750L1270.19 754.25ZM1327.19 754.25C1327.5 758.43 1327.56 758.5 1331.5 758.79C1333.98 758.97 1335.78 758.59 1336.23 757.79C1336.64 757.08 1336.98 755.71 1336.98 754.75C1336.99 753.79 1336.33 752.33 1335.5 751.5C1334.67 750.67 1332.4 750 1330.44 750L1326.88 750L1327.19 754.25ZM984.14 757.75C983.53 759.81 983.03 762.06 983.02 762.75C983.01 763.48 984.26 764 986 764C988.18 764 989 763.52 989.02 762.25C989.03 761.29 988.58 759.04 988.02 757.25C987.46 755.46 986.61 754 986.13 754C985.65 754 984.76 755.69 984.14 757.75ZM1130.14 757.75C1129.53 759.81 1129.03 762.06 1129.02 762.75C1129.01 763.48 1130.26 764 1132 764C1134.18 764 1135 763.52 1135.02 762.25C1135.03 761.29 1134.58 759.04 1134.02 757.25C1133.46 755.46 1132.61 754 1132.13 754C1131.65 754 1130.76 755.69 1130.14 757.75Z" />
	</g>
</svg>