<svg xmlns="http://www.w3.org/2000/svg" viewBox="0 0 1568 882" width="1568" height="882">
	<style>
		tspan { white-space:pre }
		.shp0 { fill: #ffffff } 
		.shp1 { fill: #3e862b } 
		.shp2 { fill: #c04039 } 
		.shp3 { fill: #6a6969 } 
		.shp4 { fill: #434343 } 
	</style>
	<g >
		<path class="shp0" d="M0 441L0 882L1568 882L1568 0L0 0L0 441Z" />
		<path class="shp1" d="M653.5 93.53C649.65 94.33 644.25 95.73 641.5 96.63C638.75 97.54 633.58 99.73 630 101.51C626.42 103.29 620.13 107.41 616 110.67C611.88 113.93 604.45 120.64 599.5 125.58C594.55 130.52 586.06 139.72 580.64 146.03C575.22 152.34 565.52 164.47 559.08 173C552.64 181.53 542.67 195.25 536.91 203.5C531.15 211.75 522.59 224.35 517.9 231.5C513.2 238.65 505.29 251.03 500.3 259C495.32 266.98 486.99 280.7 481.79 289.5C476.59 298.3 468.72 312.02 464.3 320C459.89 327.98 454.25 338.55 451.78 343.5C448.03 351 446.8 352.62 444.39 353.21C442.8 353.6 440.15 353.57 438.5 353.14C436.85 352.72 433.93 351.21 432 349.8C430.07 348.39 426.93 346.43 425 345.45C423.07 344.47 419.48 341.54 417 338.95C414.52 336.36 408.64 330.25 403.93 325.37C399.22 320.49 394.04 314.38 392.43 311.79C390.6 308.84 388.87 307.15 387.82 307.29C386.89 307.4 385.56 308.06 384.87 308.75C384.17 309.44 383.24 310 382.8 310C382.36 310 379.3 311.91 375.99 314.25C372.69 316.59 369.65 318.18 369.24 317.79C368.83 317.41 365.13 319.4 361 322.21C356.88 325.03 353.27 327.64 353 328.02C352.73 328.39 349.46 330.79 345.75 333.35C342.04 335.91 339 337.77 339 337.5C339 337.23 334.84 339.77 329.75 343.15C324.66 346.53 320.39 349.45 320.25 349.65C320.11 349.84 325.08 355.96 331.28 363.25C337.49 370.54 345.95 380.55 350.1 385.5C354.25 390.45 361.91 399.9 367.14 406.5C372.36 413.1 380.48 423.68 385.19 430C389.89 436.32 396.27 445.44 399.37 450.25C402.46 455.06 406.24 461.47 407.75 464.5L410.5 470C454.32 470.44 460.99 470.19 462.5 469.23C463.92 468.34 465.23 468.25 467 468.94C468.38 469.47 469.88 469.59 470.35 469.2C470.81 468.82 471.94 468.36 472.85 468.19C473.76 468.02 475.06 467.8 475.75 467.69C476.44 467.59 477.74 465.25 478.65 462.5C479.55 459.75 483.19 450.3 486.75 441.5C490.3 432.7 493.31 425.05 493.45 424.5C493.58 423.95 494.06 422.15 494.52 420.5C494.98 418.85 496.26 415.93 497.38 414C498.5 412.07 499.67 410.27 499.98 410C500.29 409.73 502.73 404.77 505.38 399C508.04 393.23 515.4 378.38 521.73 366C528.06 353.63 537.75 335.4 543.27 325.5C548.79 315.6 556.91 301.43 561.32 294C565.73 286.57 573.16 274.43 577.83 267C582.5 259.57 591.15 246.3 597.05 237.5C602.96 228.7 613.82 213.4 621.2 203.5C628.57 193.6 639.2 179.99 644.8 173.25C650.41 166.51 661.19 154.63 668.75 146.84C676.31 139.06 686.55 129.33 691.5 125.24C696.64 120.99 701.5 116.02 702.82 113.65C704.53 110.59 704.99 108.58 704.57 106C704.25 104.08 702.76 101.25 701.25 99.71C699.74 98.18 696.02 95.97 693 94.8C688.57 93.09 684.87 92.62 674 92.38C664.98 92.18 658.17 92.56 653.5 93.53Z" />
		<path class="shp2" d="M1271 149.16C1266.33 149.65 1257.33 151.21 1251 152.63C1244.67 154.05 1235.45 156.54 1230.5 158.15C1225.55 159.76 1215.88 163.79 1209 167.11C1202.13 170.43 1192 176.11 1186.5 179.72C1181 183.33 1173.35 188.87 1169.5 192.03C1165.65 195.2 1158.19 202.22 1152.92 207.64C1147.64 213.06 1140.7 221.1 1137.47 225.5C1134.25 229.9 1130.47 235.07 1129.08 237C1127.68 238.93 1126.39 241.4 1126.21 242.5C1126.03 243.6 1124.55 246.3 1122.93 248.5C1121.3 250.7 1119.98 252.95 1120 253.5C1120.01 254.05 1119.45 255.73 1118.76 257.24C1118.07 258.75 1117.16 259.99 1116.75 259.99C1116.34 260 1116.01 260.56 1116.01 261.25C1116.02 261.94 1114.96 264.75 1113.66 267.5C1112.36 270.25 1110.47 275.2 1109.46 278.5C1108.45 281.8 1107.35 284.73 1107.01 285C1106.67 285.27 1105.38 289.1 1104.15 293.5C1102.92 297.9 1101.93 303.41 1101.95 305.75C1101.98 308.09 1101.66 310.18 1101.25 310.4C1100.84 310.62 1100.35 313.88 1100.16 317.65C1099.98 321.42 1099.51 325.4 1099.13 326.5C1098.75 327.6 1098.58 335.25 1098.74 343.5C1098.9 351.75 1099.21 360.75 1099.43 363.5C1099.64 366.25 1100.05 370.52 1100.34 373C1100.62 375.48 1101.79 381.55 1102.93 386.5C1104.07 391.45 1105.45 396.06 1106 396.75C1106.55 397.44 1106.78 398.45 1106.5 399C1106.22 399.55 1106.45 400.23 1107 400.5C1107.55 400.77 1108 402.35 1108 404C1108 405.65 1108.45 407.23 1109 407.5C1109.55 407.77 1109.78 408.45 1109.5 409C1109.22 409.55 1109.7 410.56 1110.54 411.25C1111.39 411.94 1112.07 413.29 1112.04 414.25C1112.02 415.21 1112.9 417.57 1114 419.5C1115.1 421.43 1116 423.45 1116 424C1116 424.55 1116.67 425.68 1117.5 426.5C1118.33 427.32 1119.31 429.24 1119.68 430.75C1120.06 432.26 1121.64 435.41 1123.18 437.75C1124.73 440.09 1126 442.23 1126 442.5C1126 442.77 1128.36 446.49 1131.25 450.75C1134.14 455.01 1136.74 458.73 1137.02 459C1137.31 459.27 1139.86 462.43 1142.68 466C1145.51 469.57 1152.25 476.81 1157.66 482.08C1163.07 487.35 1170.09 493.54 1173.25 495.83C1176.41 498.12 1179.22 500.68 1179.5 501.5C1179.78 502.32 1180.45 502.77 1181 502.5C1181.55 502.23 1182 502.45 1182 503C1182 503.55 1183.01 504.28 1184.25 504.62C1185.49 504.95 1187.85 506.25 1189.5 507.49C1191.15 508.73 1197.67 512.34 1204 515.52C1210.33 518.69 1215.79 521.79 1216.14 522.4C1216.49 523 1217.28 523.16 1217.89 522.75C1218.5 522.34 1219.11 522.49 1219.25 523.09C1219.39 523.68 1224.9 525.9 1231.5 528C1238.1 530.11 1248 532.75 1253.5 533.87C1259 534.99 1268.22 536.38 1274 536.96C1279.78 537.54 1288.55 538 1293.5 537.99C1298.45 537.98 1306.78 537.52 1312 536.98C1317.22 536.44 1326.22 535.05 1332 533.9C1337.78 532.75 1347.67 530.09 1354 527.98C1360.33 525.88 1369.78 522.18 1375 519.75C1380.22 517.32 1388.1 513.16 1392.5 510.51C1396.9 507.86 1404.55 502.65 1409.5 498.95C1414.45 495.25 1422.33 488.64 1427 484.27C1431.67 479.9 1438.93 472.09 1443.13 466.91C1447.33 461.74 1452.99 454.13 1455.73 450C1458.46 445.88 1462.74 438.68 1465.25 434C1467.76 429.32 1471.88 420.21 1474.4 413.75C1476.93 407.29 1480.12 397.61 1481.48 392.25C1482.85 386.89 1484.73 377.77 1485.67 372C1486.85 364.73 1487.38 355.65 1487.38 342.5C1487.38 327.14 1486.94 321.01 1485.08 310.5C1483.82 303.35 1481.49 293.11 1479.89 287.75C1478.3 282.39 1474.53 272.26 1471.51 265.25C1468.49 258.24 1463.2 247.85 1459.76 242.17C1456.32 236.49 1449.85 227.26 1445.38 221.67C1440.91 216.08 1433.49 207.89 1428.88 203.48C1424.27 199.07 1417.35 192.95 1413.5 189.88C1409.65 186.81 1402.9 181.94 1398.5 179.05C1394.1 176.16 1385.1 171.16 1378.5 167.94C1371.9 164.73 1361.1 160.3 1354.5 158.1C1347.9 155.9 1338 153.21 1332.5 152.11C1327 151.01 1318.11 149.64 1312.75 149.06C1307.39 148.48 1297.71 148.06 1291.25 148.13C1284.79 148.21 1275.67 148.67 1271 149.16Z" />
		<path class="shp0" d="M1269 185.55C1263.78 186.37 1254.89 188.38 1249.25 190.02C1243.61 191.66 1235.06 194.7 1230.25 196.78C1225.44 198.85 1218.58 202.19 1215 204.2C1211.42 206.2 1205.13 210.18 1201 213.03L1193.5 218.22L1215.5 240.01L1238 240C1238 251.61 1237.8 252.11 1235.01 253.75C1233.36 254.71 1232.01 255.73 1232.01 256C1232 256.27 1273.74 298.27 1324.75 349.33L1417.5 442.16C1427 428.47 1431.8 420.45 1434.29 415.5C1436.78 410.55 1440 403.57 1441.46 400C1442.91 396.43 1445.17 389.45 1446.47 384.5C1447.77 379.55 1449.6 370.1 1450.53 363.5C1451.78 354.68 1452.08 347.79 1451.68 337.5C1451.39 329.8 1450.41 319.68 1449.52 315C1448.63 310.32 1446.96 303.13 1445.82 299C1444.68 294.88 1441.73 286.77 1439.27 281C1436.8 275.23 1432.96 267.35 1430.72 263.5C1428.49 259.65 1424.21 253.13 1421.21 249C1418.22 244.88 1411.66 237.3 1406.63 232.16C1401.61 227.02 1394.13 220.23 1390 217.05C1385.88 213.88 1379.35 209.35 1375.5 206.98C1371.65 204.62 1364.45 200.79 1359.5 198.48C1354.55 196.16 1346.9 193.12 1342.5 191.72C1338.1 190.31 1330 188.2 1324.5 187.02C1317.08 185.44 1309.85 184.78 1296.5 184.47C1283.65 184.18 1275.78 184.49 1269 185.55Z" />
		<path fill-rule="evenodd" class="shp3" d="M288.71 230C290 230 294.89 232.96 299.85 236.75C304.72 240.46 310.91 245.36 313.6 247.63C316.3 249.9 322.77 255.3 328 259.63C333.23 263.96 341.75 271.1 346.94 275.5C352.13 279.9 362.48 288.8 369.94 295.27C377.4 301.75 383.84 307.04 384.25 307.02C384.66 307.01 385.23 306.55 385.5 306C385.77 305.45 386.68 305 387.5 305C388.32 305 388.83 305.56 388.63 306.25C388.42 306.94 387.74 307.39 387.13 307.25C386.51 307.11 385.44 307.7 384.75 308.54C384.06 309.39 383.16 310.07 382.75 310.04C382.34 310.02 379.26 311.91 375.91 314.25C370.92 317.73 369.67 318.23 369.03 317C368.6 316.18 355.03 304.08 338.87 290.12C322.72 276.17 306.59 262.22 303.04 259.12C299.49 256.03 294.99 252.05 293.04 250.29C291.09 248.52 289.16 247.06 288.75 247.04C288.34 247.02 286.28 248.46 284.18 250.25C282.07 252.04 267.83 264.3 252.52 277.5C237.22 290.7 217.23 307.96 208.1 315.85C198.97 323.74 183.85 336.78 174.5 344.82C165.15 352.86 148.92 366.87 138.43 375.97C127.94 385.06 110.21 400.38 99.02 410C87.83 419.63 78.19 427.96 77.59 428.52C76.99 429.08 71.89 433.47 66.25 438.27C58.71 444.69 55.27 446.99 53.25 446.98C51.74 446.97 49.48 445.95 48.22 444.73C46.81 443.34 45.97 441.37 46.02 439.5C46.07 437.16 47.35 435.36 51.79 431.33C54.93 428.49 70.32 414.8 114.5 375.63L115.5 273.5L175.5 273.5L175.75 296.75C175.89 309.54 176.34 320.01 176.75 320.01C177.16 320.02 186.98 311.81 198.57 301.76C210.16 291.72 226.53 277.65 234.95 270.5C243.37 263.35 256.17 252.77 263.38 246.99C270.6 241.21 278.73 235.02 281.46 233.24C284.19 231.46 287.45 230 288.71 230ZM1012.73 240.25C1125.88 240.5 1126.5 240.51 1126.15 242.5C1125.96 243.6 1124.49 246.3 1122.88 248.5C1121.28 250.7 1119.98 252.95 1120 253.5C1120.01 254.05 1119.45 255.73 1118.76 257.24C1118.07 258.75 1117.16 259.99 1116.75 259.99C1116.34 260 1116.01 260.56 1116.01 261.25C1116.02 261.94 1114.95 264.75 1113.64 267.5C1112.33 270.25 1110.41 275.32 1109.38 278.76C1108.16 282.81 1106.97 285.02 1106 285.02C1105.17 285.03 1103.6 284.37 1102.5 283.55C1100.83 282.31 1095.23 282.06 1068.75 282.03C1047.31 282.01 1036.27 282.36 1034.75 283.12C1033.51 283.73 1031.72 285.19 1030.77 286.37C1029.82 287.54 1029.03 290.07 1029.01 292C1029 293.93 1029.66 296.51 1030.49 297.75C1031.32 298.99 1033.35 300.68 1035 301.5C1037.49 302.74 1043.44 302.99 1101.5 302.88L1101.77 306.19C1101.92 308.01 1101.65 309.95 1101.17 310.5C1100.69 311.05 1100.18 314.43 1100.05 318C1099.91 321.57 1099.5 325.4 1099.12 326.5C1098.75 327.6 1098.57 335.25 1098.73 343.5C1098.88 351.75 1099.17 360.98 1099.37 364C1099.56 367.02 1100.01 370.51 1100.36 371.75C1100.73 373.04 1100.46 374.55 1099.75 375.29C1099.06 375.99 1096.7 376.94 1094.5 377.39C1092.3 377.83 1088.92 378.99 1087 379.96C1085.08 380.93 1081.77 383.7 1079.65 386.11C1077.54 388.52 1075.4 391.51 1074.9 392.75C1074.28 394.29 1073.61 394.72 1072.75 394.11C1072.06 393.62 1070.93 390.81 1070.23 387.86C1069.53 384.91 1067.67 380.25 1066.1 377.5C1064.52 374.75 1061.04 370.34 1058.36 367.7C1055.61 364.97 1050.25 361.3 1046 359.21C1040.79 356.65 1037.13 355.52 1034.02 355.51C1029.86 355.5 1029.5 355.71 1028.89 358.5C1028.53 360.15 1028.18 364.88 1028.11 369C1028.05 373.13 1028.69 379.2 1029.54 382.5C1030.39 385.8 1032.53 390.91 1034.29 393.86C1036.06 396.81 1039.53 401.01 1042 403.2C1044.47 405.39 1049.65 408.7 1053.5 410.57C1057.35 412.43 1061.29 413.96 1062.25 413.98C1063.21 413.99 1064.22 414.45 1064.5 415C1064.78 415.55 1064.28 419.71 1063.39 424.25C1062.51 428.79 1061.61 432.84 1061.39 433.25C1061.18 433.66 1058.53 432.65 1055.5 431C1051.18 428.64 1048.77 428 1044.25 428.02C1041.09 428.02 1037.83 428.46 1037 428.98C1035.69 429.8 1035.76 430.39 1037.5 433.56C1038.6 435.56 1040.85 438.41 1042.5 439.89C1044.15 441.38 1046.4 442.97 1047.5 443.42C1048.6 443.87 1052.2 444.53 1061.5 445.5L1062.14 454C1062.49 458.68 1063.05 464.41 1063.39 466.75C1063.96 470.7 1063.81 471.08 1061.25 472.08C1059.74 472.68 1056.81 474.03 1054.75 475.08C1052.44 476.26 1048.98 476.99 1045.75 476.98C1042.86 476.97 1038.92 477.47 1037 478.08C1035.08 478.7 1032.15 479.83 1030.5 480.6C1028.85 481.36 1026.6 482.78 1025.5 483.75C1024.4 484.72 1022.33 487.08 1020.9 489C1018.96 491.61 1017.05 492.82 1013.4 493.75C1010.7 494.44 1006.25 496.4 1003.5 498.11C1000.75 499.81 997.48 502.17 996.22 503.35C994.97 504.53 993.96 505.84 993.97 506.25C993.99 506.66 1027.45 507 1068.33 507C1109.22 507 1142.94 506.66 1143.28 506.25C1143.62 505.84 1143.58 504.88 1143.2 504.13C1142.81 503.38 1141.15 501.94 1139.5 500.93C1137.85 499.92 1133.8 498.15 1130.5 496.98C1126.15 495.45 1123.51 493.71 1120.89 490.68C1118.9 488.38 1115.3 485.51 1112.89 484.3C1110.47 483.08 1105.58 481.47 1102 480.72C1098.42 479.97 1093.7 478.17 1091.5 476.73C1089.3 475.28 1085.47 473.64 1083 473.07C1080.53 472.5 1077.94 471.47 1077.26 470.77C1076.58 470.07 1075.26 466.13 1074.32 462C1073.27 457.4 1072.59 450.05 1072.56 443C1072.53 434.93 1073.07 429.26 1074.39 424C1075.42 419.88 1076.99 415.7 1077.88 414.72C1078.77 413.74 1079.95 412.96 1080.5 412.99C1081.05 413.02 1084.2 411.71 1087.5 410.08C1090.96 408.37 1095.83 404.72 1099 401.45C1102.19 398.15 1105.02 396.03 1105.75 396.39C1106.44 396.72 1106.78 397.68 1106.5 398.5C1106.22 399.32 1106.45 400.23 1107 400.5C1107.55 400.77 1108 402.35 1108 404C1108 405.65 1108.45 407.23 1109 407.5C1109.55 407.77 1109.78 408.45 1109.5 409C1109.22 409.55 1109.7 410.56 1110.54 411.25C1111.39 411.94 1112.07 413.29 1112.04 414.25C1112.02 415.21 1112.9 417.57 1114 419.5C1115.1 421.43 1116 423.45 1116 424C1116 424.55 1116.67 425.68 1117.5 426.5C1118.33 427.32 1119.31 429.24 1119.68 430.75C1120.06 432.26 1121.64 435.41 1123.18 437.75C1124.73 440.09 1126 442.23 1126 442.5C1126 442.77 1128.36 446.49 1131.25 450.75C1134.14 455.01 1136.74 458.73 1137.02 459C1137.31 459.27 1139.86 462.43 1142.68 466C1145.51 469.57 1152.25 476.81 1157.66 482.08C1163.07 487.35 1170.09 493.54 1173.25 495.83C1176.41 498.12 1179.22 500.68 1179.5 501.5C1179.78 502.32 1180.45 502.77 1181 502.5C1181.55 502.23 1182 502.45 1182 503C1182 503.55 1183.01 504.28 1184.25 504.62C1185.49 504.95 1187.85 506.25 1189.5 507.49C1191.15 508.73 1197.67 512.34 1204 515.52C1210.33 518.69 1215.79 521.79 1216.14 522.4C1216.49 523 1217.16 523.18 1217.64 522.79C1218.11 522.4 1219.07 523.07 1219.76 524.29C1220.73 525.98 1221.08 539.65 1221.5 638.5L1225.53 640.5C1227.75 641.6 1231.46 643.29 1238 646L1237.5 658.5L898.5 658.5L898.5 646.5L904 643.77C907.02 642.26 910.74 640.58 915 639L915 260L909.25 257.5C906.09 256.13 902.38 254.43 901 253.72C898.98 252.68 898.41 251.5 898.04 247.59C897.79 244.93 897.9 242.13 898.27 241.37C898.85 240.21 916.76 240.03 1012.73 240.25ZM1237.56 240L1237.53 246.2C1237.5 252.14 1237.37 252.47 1231 256L1223.52 248.75C1219.41 244.76 1216.28 241.16 1216.57 240.75C1216.86 240.34 1221.7 240 1237.56 240ZM1168.82 244.01C1169.19 244.02 1181.06 255.6 1195.19 269.76C1209.32 283.92 1220.68 295.84 1220.44 296.25C1220.2 296.66 1220.34 297 1220.75 297C1221.16 297 1221.39 339.07 1221 484L1218.75 484.03C1217.51 484.05 1215.38 483.13 1214 482C1212.63 480.87 1211.16 479.95 1210.75 479.97C1210.34 479.99 1209.43 479.44 1208.73 478.75C1208.03 478.06 1205.9 476.64 1203.98 475.58C1202.07 474.53 1199.04 472.39 1197.25 470.83C1195.46 469.28 1193.55 468 1193 468C1192.45 468 1192 467.32 1192 466.5C1192 465.68 1191.57 465.11 1191.05 465.25C1190.53 465.39 1186.93 462.24 1183.05 458.25C1179.17 454.26 1175.55 451 1175 451C1174.45 451 1173.98 450.44 1173.96 449.75C1173.94 449.06 1173.15 447.97 1172.21 447.33C1171.27 446.69 1170.5 445.67 1170.5 445.08C1170.5 444.49 1170.18 444.11 1169.79 444.25C1169.4 444.39 1166.81 441.24 1164.04 437.25C1161.27 433.26 1159.01 429.66 1159.03 429.25C1159.05 428.84 1158.26 427.75 1157.28 426.84C1156.3 425.92 1153.4 420.97 1150.84 415.84C1148.28 410.7 1145.83 405.6 1145.4 404.5C1144.97 403.4 1144.56 402.05 1144.49 401.5C1144.42 400.95 1143.55 398.7 1142.57 396.5C1141.58 394.3 1140.34 390.93 1139.81 389C1139.28 387.07 1138.44 383.48 1137.93 381C1137.43 378.52 1136.73 374.25 1136.38 371.5C1136.03 368.75 1135.38 366.27 1134.95 366C1134.52 365.73 1134.05 361.9 1133.91 357.5C1133.77 353.1 1133.65 346.57 1133.66 343C1133.66 339.43 1133.74 332.79 1133.83 328.25C1133.92 323.71 1134.34 320 1134.75 320C1135.16 320 1135.62 317.64 1135.76 314.75C1135.91 311.86 1136.41 309.05 1136.88 308.5C1137.35 307.95 1137.74 306.82 1137.75 306C1137.77 305.18 1138.52 301.8 1139.44 298.5C1140.35 295.2 1141.4 292.05 1141.77 291.5C1142.14 290.95 1142.48 290.05 1142.53 289.5C1142.57 288.95 1143.18 287.15 1143.88 285.5C1144.59 283.85 1146.02 280.59 1147.08 278.25C1148.14 275.91 1149.01 273.66 1149.02 273.25C1149.04 272.84 1150.72 269.63 1152.77 266.12C1154.82 262.61 1157.17 258.75 1158 257.53C1158.83 256.31 1160.67 253.56 1162.09 251.41C1163.52 249.26 1165.46 246.71 1166.41 245.75C1167.36 244.79 1168.45 244 1168.82 244.01ZM288.17 277C288.63 277 290.01 277.52 291.25 278.16C292.49 278.8 304.02 288.14 316.88 298.91C329.74 309.69 343.07 320.75 352.74 328.5L346.12 333.14C341.02 336.72 339.27 337.49 338.5 336.52C337.95 335.82 326.59 326.19 313.25 315.12C299.91 304.06 288.66 295.02 288.25 295.04C287.84 295.06 276.93 303.95 264.01 314.79C251.1 325.63 239.62 335.26 238.51 336.2C237.41 337.13 230.13 343.21 222.34 349.7C214.55 356.19 187.67 378.6 117.04 437.5L117 635L178.5 635.5L178.5 649.5L107 650L102 645L102.06 431.5L105.83 428C107.9 426.07 129.6 407.8 154.05 387.39C178.5 366.98 212.68 338.44 230 323.96C247.32 309.48 265.55 294.18 270.5 289.97C275.45 285.76 281.26 281.11 283.42 279.65C285.58 278.19 287.71 277 288.17 277Z" />
		<path class="shp0" d="M1034.5 283.16C1033.4 283.77 1031.72 285.21 1030.77 286.38C1029.82 287.55 1029.03 290.07 1029.01 292C1029 293.93 1029.66 296.51 1030.49 297.75C1031.32 298.99 1033.35 300.68 1035 301.5C1037.47 302.74 1043.44 303 1068.93 303C1092.28 303 1100.19 302.69 1101.21 301.75C1101.95 301.06 1103.37 297.13 1104.36 293C1105.35 288.88 1106.01 285.48 1105.83 285.45C1105.65 285.42 1104.26 284.63 1102.75 283.7C1100.31 282.19 1096.4 282 1068.25 282.03C1047.1 282.05 1035.83 282.43 1034.5 283.16ZM130 324.5C130 355.72 130.21 360.89 131.42 360.25C132.2 359.84 139.18 353.88 146.92 347L161 334.5L161 288L130 288L130 324.5ZM1221 391.5L1221 485C1231.46 489.79 1238.55 492.51 1243.5 494.13C1248.45 495.75 1257.22 498.07 1263 499.27C1271.76 501.11 1276.72 501.46 1293 501.45C1309.08 501.43 1314.34 501.04 1323 499.25C1328.78 498.05 1337.1 495.87 1341.5 494.41C1345.9 492.94 1353.55 489.93 1358.5 487.7C1363.45 485.48 1369.75 482.33 1372.5 480.71C1375.25 479.09 1380.79 475.46 1384.82 472.63L1392.14 467.5C1260.67 336.14 1222.16 298 1221.75 298C1221.34 298 1221 340.07 1221 391.5Z" />
		<path class="shp3" d="M412.2 334C413.66 335.93 416.57 339.02 418.68 340.87C420.78 342.72 423.85 344.87 425.5 345.66C427.86 346.77 427.32 345.98 423 341.95C419.98 339.14 415.71 335.41 413.52 333.66L409.54 330.5L412.2 334Z" />
		<path class="shp0" d="M1029.56 356.03C1029.11 356.72 1028.53 361.38 1028.25 366.39C1027.89 372.99 1028.21 377.29 1029.41 382C1030.33 385.57 1032.52 390.91 1034.29 393.86C1036.05 396.81 1039.53 401.01 1042 403.2C1044.47 405.39 1049.65 408.7 1053.5 410.57C1057.35 412.43 1061.29 413.96 1062.25 413.98C1063.21 413.99 1064.22 414.45 1064.5 415C1064.78 415.55 1064.28 419.71 1063.39 424.25C1062.51 428.79 1061.61 432.84 1061.39 433.25C1061.18 433.66 1058.53 432.65 1055.5 431C1051.18 428.64 1048.77 428 1044.25 428.02C1041.09 428.02 1037.83 428.46 1037 428.98C1035.69 429.8 1035.76 430.39 1037.5 433.56C1038.6 435.56 1040.85 438.41 1042.5 439.89C1044.15 441.38 1046.4 442.97 1047.5 443.42C1048.6 443.87 1052.2 444.53 1055.5 444.87L1061.5 445.5C1062.49 458.68 1063.05 464.41 1063.39 466.75C1063.96 470.7 1063.81 471.08 1061.25 472.08C1059.74 472.68 1056.81 474.03 1054.75 475.08C1052.44 476.26 1048.98 476.99 1045.75 476.98C1042.86 476.97 1038.92 477.47 1037 478.08C1035.08 478.7 1032.15 479.83 1030.5 480.6C1028.85 481.36 1026.6 482.78 1025.5 483.75C1024.4 484.72 1022.33 487.08 1020.9 489C1018.96 491.61 1017.05 492.82 1013.4 493.75C1010.7 494.44 1006.25 496.4 1003.5 498.11C1000.75 499.81 997.48 502.17 996.22 503.35C994.97 504.53 993.96 505.84 993.97 506.25C993.99 506.66 1027.45 507 1068.33 507C1109.22 507 1142.94 506.66 1143.28 506.25C1143.62 505.84 1143.58 504.88 1143.2 504.13C1142.81 503.38 1141.15 501.94 1139.5 500.93C1137.85 499.92 1133.8 498.15 1130.5 496.98C1126.15 495.45 1123.51 493.71 1120.89 490.68C1118.9 488.38 1115.3 485.51 1112.89 484.3C1110.47 483.08 1105.58 481.47 1102 480.72C1098.42 479.97 1093.7 478.17 1091.5 476.73C1089.3 475.28 1085.47 473.64 1083 473.07C1080.53 472.5 1077.94 471.47 1077.26 470.77C1076.58 470.07 1075.26 466.13 1074.32 462C1073.27 457.4 1072.59 450.05 1072.56 443C1072.53 434.97 1073.08 429.24 1074.38 424C1075.41 419.88 1076.75 415.93 1077.37 415.23C1077.99 414.53 1081.2 412.83 1084.5 411.45C1087.8 410.08 1092.3 407.52 1094.5 405.78C1096.7 404.03 1099.93 401 1101.67 399.05L1104.84 395.5C1101.67 380.77 1100.69 376.38 1100.62 376.23C1100.56 376.08 1098.25 376.48 1095.5 377.13C1092.75 377.77 1088.92 379.07 1087 380.01C1085.08 380.95 1081.77 383.7 1079.65 386.11C1077.54 388.52 1075.4 391.51 1074.9 392.75C1074.28 394.29 1073.61 394.72 1072.75 394.11C1072.06 393.62 1070.93 390.81 1070.23 387.86C1069.53 384.91 1067.67 380.25 1066.1 377.5C1064.52 374.75 1061.04 370.34 1058.36 367.7C1055.69 365.05 1050.35 361.31 1046.5 359.38C1042.65 357.45 1037.44 355.62 1034.93 355.32C1031.83 354.95 1030.1 355.17 1029.56 356.03Z" />
		<path class="shp3" d="M497.46 413.75C496.45 415.81 495.11 418.85 494.48 420.5C493.36 423.42 493.5 423.64 499.41 428.65C502.76 431.48 508.99 436.76 513.25 440.4C518.66 445 521.83 447.01 523.75 447.03C525.32 447.04 527.46 446.07 528.73 444.78C529.95 443.52 530.99 441.38 531.02 440C531.06 438.63 530.28 436.55 529.29 435.4C528.31 434.24 521.54 428.05 514.25 421.65C506.96 415.24 500.62 410 500.15 410C499.68 410 498.47 411.69 497.46 413.75ZM183.63 429.25C183.95 431.04 185.32 437.68 186.69 444C188.06 450.32 190.77 460.45 192.72 466.5C194.66 472.55 198.02 481.32 200.18 486C202.34 490.68 205.52 496.75 207.24 499.5C208.96 502.25 212.43 506.94 214.94 509.91C217.45 512.89 221.97 517.23 225 519.56C228.03 521.88 232.97 524.78 236 525.99C239.03 527.19 244.65 528.43 248.5 528.74C252.5 529.06 258.29 528.77 262 528.05C265.57 527.36 269.29 526.4 270.25 525.9C271.86 525.07 271.88 524.71 270.48 521.25C269.65 519.19 267.96 516.6 266.73 515.49C265.51 514.39 260.68 511.98 256 510.14C251.32 508.31 243.9 505.4 239.5 503.69C235.1 501.98 230.92 500.11 230.21 499.54C229.49 498.97 228.93 497.94 228.96 497.25C228.98 496.56 229.56 495.83 230.25 495.62C230.94 495.41 237.13 496.31 244 497.62C250.88 498.93 256.73 499.78 257 499.52C257.27 499.25 256.19 497.11 254.59 494.77C252.99 492.42 247.36 486.21 242.09 480.97C236.81 475.72 231.04 470.21 229.25 468.72C227.34 467.12 226.21 465.38 226.5 464.5C226.78 463.68 227.68 463 228.5 463C229.32 463 231.24 463.62 232.75 464.38C234.26 465.14 239.1 468.58 243.5 472.03C247.9 475.48 252.09 478.79 252.82 479.4C253.9 480.3 254.08 479.36 253.82 474.33C253.64 470.93 253.83 467.78 254.24 467.33C254.65 466.87 255.66 466.84 256.49 467.25C257.32 467.66 258.91 471.26 260.02 475.25C261.12 479.24 262.82 484.52 263.79 487C264.75 489.48 268.23 494.97 271.52 499.2C274.81 503.44 277.84 506.93 278.25 506.95C278.66 506.98 279.22 505.99 279.49 504.75C279.76 503.51 279.29 498.68 278.46 494C277.47 488.45 275.65 482.97 273.22 478.21C271.18 474.21 267.25 468.33 264.5 465.15C261.75 461.97 257.25 457.52 254.5 455.26C251.75 452.99 245.9 448.96 241.5 446.3C237.1 443.63 228.78 439.59 223 437.31C217.22 435.02 210.25 432.46 207.5 431.6C204.75 430.75 198.68 429.14 194 428.03C189.32 426.92 184.95 426.01 184.28 426.01C183.45 426 183.25 427.05 183.63 429.25ZM369.47 462.57C364.54 463.86 357.8 465.89 354.5 467.09C351.2 468.28 345.13 470.95 341 473.02C336.88 475.09 330.8 478.77 327.5 481.19C324.2 483.62 319.89 487.6 317.92 490.05C315.95 492.5 313.4 496.07 312.26 498C311.12 499.93 309.47 503.98 308.59 507C307.7 510.02 306.98 515.31 306.99 518.75C307 522.19 307.34 525 307.75 525C308.16 524.99 309.95 522.18 311.71 518.75C313.48 515.31 317.59 508.9 320.84 504.5C324.1 500.1 328.5 494.67 330.63 492.44C332.76 490.21 336.98 486.29 340 483.73C343.02 481.16 346.29 479.05 347.25 479.03C348.21 479.02 349.23 479.45 349.5 480C349.77 480.55 347.4 486.06 344.23 492.25C341.05 498.44 336.6 508.45 334.34 514.5C332.08 520.55 329.28 528.76 328.12 532.75C326.12 539.58 326.1 540.04 327.75 540.65C328.71 541.01 331.52 541.06 334 540.76C336.48 540.46 340.52 539.19 343 537.94C345.48 536.69 349.67 533.6 352.33 531.08C354.98 528.56 358.89 523.8 361.02 520.5C363.15 517.2 366.7 510 368.91 504.5C371.12 499 374.04 490 375.39 484.5C376.75 479 378.23 471.63 378.69 468.12C379.15 464.61 379.28 461.39 378.99 460.98C378.69 460.56 374.41 461.28 369.47 462.57ZM473.89 468C473.12 468.48 472.16 468.67 471.75 468.43C471.34 468.2 470.77 468.45 470.5 469C470.17 469.66 469.1 469.65 467.32 468.97C465.27 468.19 464.1 468.3 462.32 469.47L460 471L460 635L399 635L399 650L470.09 650L475 645C475 502.83 475.36 471.29 476 470C476.55 468.9 476.61 467.8 476.14 467.57C475.66 467.33 474.65 467.52 473.89 468ZM307.5 485.58C304.75 486.35 302.21 487.32 301.85 487.74C301.5 488.16 302.29 490.19 303.6 492.25C304.92 494.31 306.34 495.98 306.75 495.96C307.16 495.94 309.19 493.47 311.25 490.46C313.31 487.46 315 484.77 315 484.5C315 484.23 314.44 484.04 313.75 484.09C313.06 484.14 310.25 484.81 307.5 485.58ZM327.39 505.28C323.63 510.35 318.38 518.77 315.74 524C313.09 529.23 309.77 537.1 308.38 541.5C306.98 545.9 305.22 552.42 304.47 556C303.24 561.9 303.3 563.47 305.19 573C306.33 578.77 307.43 584.06 307.63 584.75C307.86 585.52 309.43 585.9 311.75 585.75L315.5 585.5C316.46 569.23 317.28 560.9 317.93 556.5C318.59 552.1 320.43 543.33 322.02 537C323.62 530.67 326.68 520.77 328.83 515C330.98 509.23 333.47 502.81 334.37 500.75C335.27 498.69 335.6 496.79 335.11 496.53C334.62 496.27 331.15 500.21 327.39 505.28ZM266.12 502.42C266.05 502.74 266.45 503.9 267 505C267.73 506.47 267.67 507 266.75 506.98C266.06 506.98 267.12 508.66 269.11 510.73C271.09 512.81 273.64 516.52 274.78 519C275.92 521.48 278.06 526.42 279.54 530C281.03 533.58 283.3 539.65 284.6 543.5C285.91 547.35 288.15 555.9 289.59 562.5C291.7 572.22 292.26 577.73 292.52 591.5L292.83 608.5L304 609C304 598.15 303.31 590.39 302.46 584.75C301.61 579.11 300.02 570.9 298.92 566.5C297.82 562.1 295.78 555.13 294.38 551C292.99 546.88 289.22 538.1 286 531.5C282.78 524.9 277.53 515.7 274.33 511.06C271.12 506.42 267.99 502.44 267.37 502.23C266.74 502.01 266.18 502.1 266.12 502.42ZM216.15 524.75C215.12 526.81 213.25 531.65 212 535.5C210.75 539.35 209.21 547.45 208.59 553.5C207.6 563.2 207.23 564.54 205.48 564.87C204.39 565.07 202.38 565.67 201 566.2C198.54 567.13 198.53 567.17 200.5 568.63C201.6 569.44 206.73 574.02 211.91 578.8C217.08 583.59 222.15 588.06 223.16 588.75C224.77 589.84 225.23 589.6 226.87 586.75C227.9 584.96 231.57 578.33 235.01 572C238.46 565.67 241.55 560.09 241.89 559.58C242.26 559.03 240.31 558.99 237 559.47L231.5 560.28C232.66 550.76 234.05 544.96 235.34 541.25C236.62 537.54 237.97 533.83 238.34 533C238.84 531.89 237.78 531.01 234.26 529.63C231.64 528.6 227.14 526.23 224.25 524.38C221.36 522.52 218.78 521 218.52 521C218.25 521 217.19 522.69 216.15 524.75ZM363.29 526C361.63 528.48 357.74 532.86 354.64 535.75C349.34 540.69 349.07 541.16 350.1 543.75C350.7 545.26 351.43 551 351.71 556.5C352 562.02 351.74 568.96 351.14 572C350.54 575.02 349.82 578.51 349.53 579.75C349.1 581.57 349.62 582.25 352.25 583.32C354.04 584.05 358.76 585.97 362.73 587.57C366.71 589.18 370.19 590.27 370.45 590C370.72 589.73 371.92 586.35 373.12 582.5C374.95 576.65 375.31 573.04 375.34 560.5C375.38 546.21 375.23 545.05 372.17 536C370.41 530.77 368.36 525.38 367.63 524L366.29 521.5L363.29 526Z" />
		<path class="shp0" d="M977.91 543.28C977.04 543.95 975.76 545.63 975.06 547C974.37 548.38 974.07 550.51 974.4 551.75C974.73 552.99 976.01 554.91 977.25 556.02C979.47 558.01 980.61 558.04 1066.11 558.02L1152.73 558C1157.02 553.58 1158.06 551.42 1158.04 549.75C1158.02 548.19 1156.92 545.92 1155.5 544.5L1153 542C999.63 542.06 979.13 542.35 977.91 543.28ZM976.51 586.65C975.19 588.1 974.08 590.13 974.05 591.15C974.02 592.17 974.52 594.01 975.16 595.25C975.8 596.49 977.04 598.05 977.91 598.72C979.13 599.65 999.6 599.94 1066.11 599.97L1152.73 600C1156.87 595.74 1158.07 593.38 1158.07 592C1158.07 590.63 1157.15 588.26 1156.03 586.75L1154 584L978.91 584L976.51 586.65Z" />
		<path class="shp3" d="M235 604.59C230.32 608.2 226.39 611.57 226.25 612.08C226.11 612.58 229.31 616.26 233.36 620.25C237.41 624.24 244.27 629.62 248.61 632.21C252.95 634.8 260.77 638.4 266 640.2C275.21 643.39 275.98 643.49 291.5 643.48C303.81 643.47 309 643.05 314 641.66C317.57 640.67 323.88 638.26 328 636.32C335.08 632.99 335.55 632.89 336.47 634.64C337.01 635.66 338.42 637.63 339.62 639L341.79 641.5C343.5 635.3 345.36 627.42 347.03 620C348.69 612.58 349.93 606.45 349.78 606.38C349.63 606.32 342.19 605.98 333.25 605.63C324.31 605.28 316.8 605.34 316.55 605.75C316.31 606.16 316.98 607.96 318.05 609.75C319.12 611.54 320 613.23 320 613.5C320 613.77 317.86 614.92 315.25 616.04C312.64 617.17 306.9 618.8 302.5 619.67C297.3 620.71 292.23 621.05 288 620.66C284.43 620.33 278.35 619.09 274.5 617.91C270.65 616.72 265.03 614.34 262 612.63C258.98 610.91 253.81 606.93 250.5 603.79C247.2 600.65 244.28 598.07 244 598.05C243.72 598.04 239.68 600.98 235 604.59Z" />
		<path class="shp4" d="M112.08 688.22C110.75 688.94 108.71 690.87 107.54 692.51C106.01 694.67 105.36 697.24 105.21 701.75C105.07 706.02 105.56 709.15 106.75 711.64C107.71 713.64 109.74 715.89 111.25 716.64C112.76 717.39 115.58 718 117.5 718C119.42 718 122.35 717.33 124 716.5C125.65 715.67 127.45 714.1 128 713C128.55 711.9 129 710.33 129 709.5C129 708.53 128.03 708 126.25 708C124.36 707.99 123.19 708.69 122.5 710.25C121.7 712.04 120.69 712.5 117.53 712.5C114.3 712.5 113.32 712.03 112.29 710C111.6 708.63 111.01 705.25 110.98 702.5C110.95 698.98 111.53 696.69 112.97 694.75C114.24 693.03 115.93 692 117.5 692C118.88 692 120.67 692.67 121.5 693.5C122.33 694.33 123 695.67 123 696.5C123 697.56 123.89 697.93 126 697.75C128.1 697.58 129 696.97 129 695.75C129 694.79 127.76 692.61 126.25 690.92C124.15 688.56 122.44 687.72 119 687.37C116.34 687.1 113.51 687.45 112.08 688.22ZM139.25 689C137.46 690.1 135.27 692.46 134.38 694.25C133.21 696.59 132.86 699.42 133.13 704.36C133.49 710.95 133.66 711.36 137.5 714.64C140.53 717.23 142.41 718.05 145.25 718.03C147.31 718.01 150.24 717.39 151.75 716.64C153.26 715.89 155.29 713.64 156.25 711.64C157.29 709.47 158 705.68 158 702.25C157.99 698.26 157.38 695.5 156 693.25C154.9 691.46 152.65 689.33 151 688.5C149.35 687.67 146.76 687 145.25 687C143.74 687.01 141.04 687.91 139.25 689ZM234 688.7C232.04 689.71 229.73 692.04 228.75 694C227.75 696 227 699.76 227 702.75C227 705.64 227.68 709.35 228.5 711C229.32 712.65 231.24 714.92 232.75 716.03C234.4 717.25 237 718.06 239.25 718.03C241.31 718.02 244.35 717.33 246 716.5C247.65 715.67 249.61 713.76 250.36 712.25C251.11 710.74 252.03 708.15 252.41 706.5C252.79 704.85 252.78 701.48 252.38 699C251.9 696.05 250.59 693.36 248.58 691.19C246.38 688.82 244.36 687.74 241.5 687.39C238.8 687.05 236.36 687.48 234 688.7ZM260.99 689.35C258.51 691.09 257.52 692.6 257.25 695.1C256.98 697.65 257.46 699.06 259.19 700.73C260.46 701.95 263.75 703.82 266.5 704.88C269.25 705.94 271.95 707.49 272.5 708.32C273.21 709.39 273.07 710.3 272 711.46C271.18 712.35 269.04 713.07 267.25 713.04C264.79 713.01 263.69 712.38 262.75 710.47C261.86 708.67 260.71 707.95 258.75 707.97C256.99 707.99 256 708.54 256 709.5C256 710.33 256.45 711.9 257 713C257.55 714.1 259.35 715.67 261 716.5C262.65 717.33 265.8 718 268 718C270.2 718 273.24 717.39 274.75 716.64C276.26 715.89 277.84 714.54 278.25 713.64C278.66 712.74 279.02 710.99 279.03 709.75C279.05 708.51 278.15 706.26 277.03 704.75C275.85 703.15 272.8 701.21 269.75 700.1C266.86 699.06 264.05 697.52 263.5 696.69C262.79 695.61 262.93 694.7 264 693.54C264.82 692.65 266.51 691.93 267.75 691.96C268.99 691.98 270.79 692.9 271.75 694.01C272.72 695.12 274.73 696.01 276.25 696.01C277.76 696 279 695.55 279 695C279 694.45 278.55 693.1 278 692C277.45 690.9 275.31 689.31 273.25 688.48C271.19 687.64 268.34 686.96 266.93 686.98C265.52 686.99 262.84 688.06 260.99 689.35ZM518.92 688.92C517.51 689.97 515.29 692.33 514.01 694.17C511.98 697.07 511.72 698.39 512.09 704.36C512.48 710.93 512.67 711.37 516.5 714.64C519.53 717.23 521.41 718.05 524.25 718.03C526.31 718.01 529.24 717.39 530.75 716.64C532.26 715.89 534.29 713.64 535.25 711.64C536.29 709.47 537 705.68 537 702.25C536.99 698.26 536.38 695.5 535 693.25C533.9 691.46 531.65 689.33 530 688.5C528.35 687.67 525.76 687 524.25 687.01C522.74 687.01 520.34 687.87 518.92 688.92ZM920.07 688.77C917.67 689.98 916.05 691.86 914.71 695C913.25 698.41 912.93 700.77 913.39 704.75C913.73 707.64 914.79 711.1 915.75 712.45C916.71 713.79 918.85 715.65 920.5 716.57C922.71 717.81 924.75 718.09 928.25 717.63C931.87 717.15 933.6 716.29 935.5 714C936.88 712.35 938.27 709.54 938.59 707.75C938.92 705.96 938.92 702.59 938.59 700.25C938.27 697.91 937.33 694.65 936.5 693C935.65 691.3 933.48 689.35 931.5 688.5C929.58 687.67 926.99 687.01 925.75 687.02C924.51 687.04 921.95 687.82 920.07 688.77ZM1012.08 688.22C1010.75 688.94 1008.6 691.1 1007.3 693.01C1005.49 695.69 1004.95 697.83 1004.97 702.25C1004.99 705.41 1005.67 709.58 1006.5 711.5C1007.35 713.48 1009.3 715.65 1011 716.5C1012.65 717.33 1015.58 718 1017.5 718C1019.42 718 1022.01 717.5 1023.25 716.88C1024.49 716.27 1026.28 714.81 1027.23 713.63C1028.18 712.46 1028.97 710.71 1028.98 709.75C1028.99 708.47 1028.2 708 1026 708C1023.83 708 1022.86 708.56 1022.5 710C1022.23 711.1 1020.99 712.26 1019.75 712.58C1018.51 712.91 1016.61 713.02 1015.53 712.83C1014.45 712.65 1012.99 711.38 1012.3 710C1011.6 708.63 1011.02 705.36 1011.01 702.75C1011.01 700.14 1011.56 696.84 1012.25 695.43C1012.94 694.02 1014.63 692.61 1016 692.3C1017.38 691.99 1019.17 692.17 1020 692.71C1020.83 693.25 1021.95 694.55 1022.5 695.6C1023.05 696.64 1024.74 697.61 1026.25 697.75C1028.42 697.95 1029 697.58 1029 696C1029 694.9 1027.76 692.61 1026.25 690.92C1024.15 688.56 1022.44 687.72 1019 687.37C1016.34 687.1 1013.51 687.45 1012.08 688.22ZM1040.02 688.1C1039.02 688.43 1037.15 689.93 1035.85 691.43C1033.96 693.62 1033.43 695.58 1033.13 701.33C1032.87 706.35 1033.21 709.4 1034.26 711.5C1035.08 713.15 1036.38 715.05 1037.13 715.73C1037.88 716.41 1040.75 717.26 1043.5 717.63C1047.46 718.16 1049.17 717.91 1051.73 716.4C1053.5 715.36 1055.42 713.49 1055.98 712.25C1056.54 711.01 1057 709.55 1057 709C1057 708.45 1055.65 708 1054 708C1052.35 708 1051 708.45 1051 709C1051 709.55 1050.29 710.67 1049.43 711.5C1048.56 712.33 1046.54 713 1044.93 713C1042.81 713 1041.54 712.24 1040.33 710.25C1039.07 708.19 1038.76 705.9 1039.08 701.17C1039.4 696.31 1039.96 694.52 1041.5 693.41C1042.6 692.61 1044.29 691.97 1045.25 691.98C1046.21 691.99 1048.13 693.13 1049.5 694.5C1050.88 695.88 1052.9 697.23 1054 697.5C1055.23 697.81 1056.19 697.42 1056.5 696.5C1056.78 695.67 1056.33 693.88 1055.5 692.5C1054.67 691.13 1052.65 689.33 1051 688.5C1049.35 687.67 1046.61 687.11 1044.92 687.25C1043.23 687.39 1041.02 687.77 1040.02 688.1ZM1318.5 688.34C1316.85 689.07 1314.65 690.98 1313.62 692.58C1312.58 694.19 1311.5 697.75 1311.23 700.5C1310.95 703.25 1311.23 707.08 1311.83 709C1312.44 710.92 1313.96 713.52 1315.22 714.77C1316.47 716.02 1319.3 717.31 1321.5 717.65C1324.37 718.09 1326.58 717.73 1329.33 716.38C1331.89 715.12 1333.8 713.18 1335.09 710.5C1336.49 707.6 1336.89 705.13 1336.56 701.5C1336.31 698.75 1335.38 695.15 1334.49 693.5C1333.6 691.85 1332 689.94 1330.94 689.25C1329.87 688.56 1327.31 687.78 1325.25 687.51C1323.19 687.24 1320.15 687.62 1318.5 688.34ZM1433.5 688.56C1431.85 689.34 1429.65 691.45 1428.61 693.24C1427.26 695.58 1426.77 698.25 1426.86 702.75C1426.94 706.19 1427.67 710.35 1428.5 712C1429.33 713.65 1431.35 715.67 1433 716.5C1434.65 717.33 1437.8 718 1440 718C1442.2 718 1445.58 717.33 1447.5 716.5C1450.99 715.01 1451 714.98 1451 708.5L1451 702C1439.67 702 1439 702.22 1439 704C1439 705.56 1439.67 706 1442 706C1444.67 706 1445 706.33 1445 709C1445 711.27 1444.39 712.24 1442.5 713C1440.65 713.74 1439.22 713.61 1437 712.5C1435.35 711.67 1433.71 709.99 1433.35 708.75C1432.99 707.51 1432.71 704.7 1432.73 702.5C1432.74 700.3 1433.49 697.04 1434.38 695.25C1435.67 692.67 1436.61 692 1439 692C1441 692 1442.67 692.83 1444 694.5C1445.17 695.97 1447.03 697 1448.5 697C1449.88 697 1451.01 696.44 1451.01 695.75C1451.02 695.06 1449.78 692.98 1448.26 691.11C1445.98 688.31 1444.73 687.68 1441 687.43C1438.53 687.27 1435.15 687.78 1433.5 688.56ZM163.07 702.69L163.01 717.5L168.5 717.4C169.39 701 169.78 699.03 170.47 700.5C170.99 701.6 172.57 705.88 173.98 710C176.15 716.33 176.9 717.5 178.79 717.5C180.59 717.5 181.43 716.42 183.06 712C184.18 708.98 185.86 704.48 186.8 702L188.5 697.5L189 718L195 717.5L195 688L186.5 687.99C181.07 703.5 179.28 708.02 179 708.04C178.72 708.05 176.91 703.66 174.96 698.28L171.42 688.5L163.12 687.89L163.07 702.69ZM200 702.75L199.99 717.5C203.87 717.89 205.29 717.44 205.65 716.75C206 716.06 206.26 714.15 206.22 712.5C206.18 710.85 206.45 708.97 206.82 708.32C207.2 707.67 209.75 707 212.5 706.84C215.91 706.64 218.38 705.82 220.25 704.27C222.48 702.43 222.99 701.19 222.97 697.75C222.95 695.41 222.39 692.79 221.72 691.91C221.05 691.04 219.49 689.8 218.25 689.16C217.01 688.52 212.4 688 208 688L200 688L200 702.75ZM281.17 690.25C281.45 692.18 282.18 692.54 286.25 692.75L291 693C291 713.89 291.32 717.02 292.25 717.08C292.94 717.12 294.29 717.34 295.25 717.58C296.85 717.96 297 716.9 297 705.5L297 693C305.63 693 306 692.8 306 690.5L306 688C280.94 688 280.84 688.02 281.17 690.25ZM315.19 689.75C314.71 690.71 313.3 694.42 312.05 698C310.8 701.58 309.15 705.96 308.39 707.75C307.62 709.54 307.01 711.56 307.02 712.25C307.03 712.94 306.53 713.95 305.91 714.5C305.29 715.05 305.02 715.95 305.3 716.5C305.58 717.05 307.04 717.5 308.54 717.5C310.65 717.5 311.48 716.87 312.14 714.75C312.95 712.15 313.33 712 319 712C324.75 712 325.02 712.11 325.52 714.75C325.98 717.12 326.53 717.5 329.54 717.5C332.24 717.5 332.88 717.16 332.41 716C332.07 715.17 330.7 711.58 329.37 708C328.03 704.42 326.55 700.6 326.08 699.5C325.6 698.4 324.49 695.36 323.61 692.75C322.17 688.51 321.68 688 319.03 688C317.2 688 315.72 688.67 315.19 689.75ZM336.22 702.75L336.5 717.49C346.57 717.64 350.96 717.3 352.75 716.84C354.54 716.38 356.45 715.1 357 714C357.55 712.9 358.02 710.54 358.05 708.75C358.08 706.5 357.42 705.04 355.91 704C353.98 702.67 353.9 702.33 355.21 701C356.02 700.17 356.98 698.49 357.34 697.25C357.71 696.01 357.39 693.77 356.64 692.25C355.89 690.74 354.54 689.16 353.64 688.75C352.74 688.34 348.39 688 343.97 688L335.95 688L336.22 702.75ZM363 702.75L363 717.5C375.4 717.11 379.68 717 380.5 717C381.33 717 382 716.11 382 715C382 713.21 381.33 713 375.5 713L369 713L369 688L363 688L363 702.75ZM386 702.75L386 717.5C405.01 717.38 405.51 717.26 405.75 715.19C405.99 713.12 405.61 713 399 713L392 713L392 704.5C403.8 704.99 404 704.92 404 702.5C404 700.11 403.73 700 398 700L392 700L392 693C405.8 693 406 692.93 406 690.5L406 688L386 688L386 702.75ZM428.28 690.71C427.62 692.24 426.43 695.3 425.64 697.5C424.85 699.7 422.8 705.21 421.1 709.75L418 718C424.4 717.54 425.04 717.06 425.48 714.75C425.98 712.11 426.25 712 432 712C437.6 712 438.03 712.17 438.5 714.5C438.77 715.88 439.34 717.05 439.75 717.11C440.16 717.18 441.74 717.4 443.25 717.61C444.76 717.83 446 717.66 445.99 717.25C445.99 716.84 443.61 710.2 440.71 702.5C435.65 689.09 435.3 688.49 432.46 688.21C430.03 687.97 429.27 688.42 428.28 690.71ZM445 690.5C445 692.8 445.37 693 449.5 693L454 693L454.5 717.5L459.5 717.48L460 693C468.85 692.53 469.53 692.19 469.75 690.25C470 688.02 469.87 688 457.5 688L445 688L445 690.5ZM482.19 702.75L482.5 717.5L489 717.5L489 705L501 705C501 715.92 501.32 717.06 502.75 717.34C503.71 717.52 505.06 717.52 505.75 717.34C506.68 717.09 507 713.25 507 702.5L507 688L501 688L501 700L489 700L489 688L481.89 688L482.19 702.75ZM542 702.75L542 717.5L548 718C547.8 704.44 548.13 700.34 548.62 700.14C549.1 699.93 550.77 703.53 552.32 708.14C553.88 712.74 555.45 716.87 555.82 717.33C556.2 717.79 557.4 717.74 558.5 717.21C559.8 716.59 561.73 712.95 564 706.88L567.5 697.5L568.5 717.5L574 717.5L574 688L565.5 687.99C560.08 703.5 558.16 708.01 557.75 708C557.34 708 556.27 705.64 555.38 702.75C554.48 699.86 552.8 695.34 551.63 692.71C549.63 688.2 549.28 687.92 545.75 687.96L542 688L542 702.75ZM579 702.75L579 717.5C593.34 717.29 598.06 717.17 598.75 717.11C599.44 717.05 600 716.1 600 715C600 713.21 599.25 712.97 592.75 712.75L585.5 712.5L585 705C596.73 705 597 704.89 597 702.5C597 700.15 596.65 699.98 591.25 699.75L585.5 699.5L584.9 692.5C598.87 693 599 692.95 599 690.5L599 688L579 688L579 702.75ZM884.01 702.75C884.01 717.4 884.03 717.5 886.26 717.38C887.49 717.31 888.84 717.2 889.25 717.13C889.66 717.06 890 713.17 890 708.5C890 703.83 890.34 699.99 890.75 699.98C891.16 699.98 893.91 703.91 896.86 708.73C901.51 716.33 902.57 717.48 904.86 717.38C906.31 717.31 907.84 717.2 908.25 717.13C908.66 717.06 909 710.48 909 702.5L909 688L901.84 688L901.5 706.17C890.88 688.64 890.27 688.01 887.25 688L884 688L884.01 702.75ZM940 690.5C940 692.8 940.37 693 944.5 693L949 693C949 714.78 949.28 717.09 950.5 717.5C951.33 717.77 952.67 717.77 953.5 717.5C954.72 717.09 955 714.78 955 705L955 693C963.63 693 964 692.8 964 690.5L964 688L940 688L940 690.5ZM985.19 690.19C984.7 691.46 982.82 696.55 981.02 701.5C979.23 706.45 977.14 711.96 976.38 713.75C975.62 715.54 975 717.11 975 717.25C975 717.39 976.46 717.46 978.25 717.41C980.81 717.33 981.71 716.75 982.5 714.64C983.43 712.17 983.93 711.97 989.25 711.98C994.74 712 995.04 712.13 996 715C996.61 716.82 997.69 717.99 998.75 717.98C999.71 717.98 1001 717.64 1001.61 717.23C1002.37 716.73 1001.07 712.09 997.47 702.5C992.39 688.96 992.11 688.49 989.16 688.19C986.73 687.94 985.91 688.35 985.19 690.19ZM1061.22 702.71L1061.5 717.43C1068.47 717.24 1073.09 717.15 1076.25 717.09C1081.3 717.01 1082 716.76 1082 715C1082 713.19 1081.33 713 1075 713L1068 713L1068 705C1078.89 704.53 1079.53 704.26 1079.75 702.25C1079.98 700.14 1079.63 700 1074 700L1068 700L1068 693C1080.92 692.52 1081.52 692.31 1081.75 690.25C1082 688.04 1081.8 688 1071.47 688L1060.95 688L1061.22 702.71ZM1085 702.75L1085 717.5C1091.45 717.32 1091.5 717.24 1091.75 712.16L1092 707C1100.23 706.95 1102.37 706.28 1104.75 704.47C1107.46 702.41 1108 701.34 1108 698C1108 695.8 1107.66 693.26 1107.25 692.36C1106.84 691.46 1105.26 690.11 1103.75 689.36C1102.13 688.56 1097.73 688 1093 688L1085 688L1085 702.75ZM1111 690.5C1111 692.8 1111.37 693 1115.5 693L1120 693L1119.99 717.5L1126 718L1126 693C1134.85 692.53 1135.53 692.19 1135.75 690.25C1136 688.02 1135.87 688 1123.5 688L1111 688L1111 690.5ZM1144.54 689.7C1144.13 690.69 1142.99 693.75 1142 696.5C1141.01 699.25 1138.86 705.1 1137.22 709.5L1134.24 717.5C1140.46 717.5 1141.03 717.1 1141.48 714.75C1141.98 712.11 1142.25 712 1148 712C1153.6 712 1154.03 712.17 1154.5 714.5C1154.79 715.95 1155.73 717.05 1156.75 717.12C1157.71 717.18 1159.17 717.14 1160 717.02C1160.83 716.91 1161.59 716.74 1161.71 716.65C1161.83 716.57 1159.56 710.2 1156.68 702.5C1151.59 688.94 1151.33 688.49 1148.36 688.2C1146.16 687.98 1145.08 688.4 1144.54 689.7ZM1165 702.75L1165 717.5C1179.49 717.5 1182.27 717.06 1184.29 715.75C1185.98 714.66 1187.22 712.78 1187.58 710.75C1188.01 708.36 1187.61 706.77 1186.08 704.75C1184.18 702.23 1184.13 701.85 1185.57 700.25C1186.69 699.01 1186.98 697.4 1186.57 694.75C1186.22 692.42 1185.15 690.43 1183.75 689.49C1182.2 688.45 1178.95 687.99 1173.25 687.99L1165 688L1165 702.75ZM1192 702.5L1192 717C1203.24 717.24 1207.74 717.36 1209.25 717.41C1211.46 717.48 1212 717.06 1212 715.25C1212 713.15 1211.57 713 1205.5 713L1199 713L1199 688L1192 688L1192 702.5ZM1216.22 702.67L1216.5 717.34C1235.52 717.5 1236.06 717.39 1235.79 715.5C1235.54 713.75 1234.62 713.46 1228.5 713.21L1221.5 712.92L1222 705C1232.89 704.53 1233.53 704.26 1233.75 702.25C1233.99 700.13 1233.64 700 1227.75 699.99L1221.5 699.99L1222 693C1234.92 692.52 1235.52 692.31 1235.75 690.25C1235.99 688.05 1235.78 688 1225.97 688L1215.95 688L1216.22 702.67ZM1256.11 694.75C1254.86 698.46 1253.44 702.4 1252.95 703.5C1252.46 704.6 1251.14 707.86 1250.03 710.75C1248.91 713.64 1248 716.34 1248.01 716.75C1248.01 717.16 1249.57 717.27 1251.48 717C1254.03 716.63 1255.08 715.91 1255.47 714.25C1255.94 712.25 1256.62 712 1261.5 712C1266.59 712 1267.08 712.21 1268.01 714.75C1268.84 717.01 1269.63 717.5 1272.39 717.5C1275.56 717.5 1275.71 717.35 1274.86 715C1274.36 713.63 1273.56 711.6 1273.08 710.5C1272.59 709.4 1271.18 705.58 1269.93 702C1268.69 698.42 1267.36 695.05 1266.98 694.5C1266.59 693.95 1265.99 692.26 1265.64 690.75C1265.1 688.43 1264.48 688 1261.69 688C1258.5 688 1258.3 688.23 1256.11 694.75ZM1274.17 690.25C1274.46 692.2 1275.1 692.5 1279 692.5L1283.5 692.5L1284.5 717.5L1290 717.5L1290 693C1298.63 693 1299 692.8 1299 690.5L1299 688C1273.94 688 1273.84 688.02 1274.17 690.25ZM1341 703L1341 718C1347.43 717.45 1347.51 717.34 1347.75 712.22C1347.97 707.55 1348.24 707 1350.25 706.99C1351.94 706.98 1353.21 708.29 1355.37 712.24C1357.45 716.06 1358.89 717.57 1360.62 717.75C1361.93 717.89 1363.22 717.55 1363.5 717C1363.78 716.45 1362.76 713.55 1361.25 710.56L1358.5 705.13C1362.03 702.32 1363.35 699.92 1363.7 698C1364.25 694.98 1363.91 694.06 1361.17 691.25C1358.08 688.09 1357.77 688 1349.5 688L1341 688L1341 703ZM1376.56 689.7C1376.15 690.69 1373.88 696.67 1371.5 703C1369.12 709.33 1366.91 715.17 1366.57 716C1366.12 717.14 1366.82 717.56 1369.49 717.75C1372.74 717.98 1373.04 717.76 1373.56 714.75L1374.12 711.5C1385.51 711.98 1386.04 712.21 1386.5 714.5C1386.78 715.88 1387.56 717.06 1388.25 717.13C1388.94 717.2 1390.5 717.31 1391.73 717.38C1393.53 717.48 1393.84 717.11 1393.34 715.5C1393 714.4 1390.6 707.88 1388 701C1383.51 689.07 1383.16 688.49 1380.29 688.2C1378.15 687.98 1377.08 688.41 1376.56 689.7ZM1397 702.75L1397 717.5L1403 717.5C1403 703.94 1403.34 699.98 1403.75 699.95C1404.16 699.93 1406.97 703.87 1410 708.7C1415.08 716.83 1415.75 717.5 1418.75 717.5L1421.99 717.5L1422 688L1416 688C1416 701.17 1415.66 705.2 1415.25 705.45C1414.84 705.69 1412.7 702.97 1410.5 699.39C1408.3 695.81 1405.94 691.78 1405.25 690.44C1404.28 688.56 1403.2 688 1400.5 688L1397 688L1397 702.75ZM1456.5 702.76L1456.5 717.52C1474.94 717.31 1475.51 717.18 1475.75 715.15C1475.98 713.16 1475.5 712.98 1469.25 712.75L1462.5 712.5L1462 705C1473.73 705 1474 704.89 1474 702.5C1474 700.15 1473.65 699.98 1468.25 699.75C1462.54 699.5 1462.5 699.48 1462.25 696.25L1462 693C1475.8 693 1476 692.93 1476 690.5C1476 688 1475.98 688 1466.25 688L1456.5 688L1456.5 702.76Z" />
		<path class="shp0" d="M141.5 694.45C139.62 696.37 139.08 698.01 139.05 701.95C139.02 704.73 139.56 708.14 140.25 709.54C140.94 710.94 142.4 712.33 143.5 712.64C144.6 712.94 146.4 712.95 147.5 712.66C148.6 712.37 150.06 710.98 150.75 709.57C151.44 708.16 152 704.75 152 702C152 698 151.5 696.5 149.5 694.5C148.13 693.13 146.3 692 145.45 692C144.6 692 142.82 693.1 141.5 694.45ZM235.87 693.91C233.82 695.57 233.5 696.69 233.5 702.31C233.5 707.41 233.93 709.24 235.5 710.93C236.63 712.13 238.7 713.05 240.25 713.03C241.96 713.01 243.57 712.15 244.51 710.75C245.38 709.44 246.03 706.2 246.04 703C246.06 699.01 245.51 696.75 244.03 694.75C242.92 693.24 241.16 692 240.12 692C239.09 692 237.18 692.86 235.87 693.91ZM520.5 694.45C518.62 696.37 518.08 698.01 518.05 701.95C518.02 704.73 518.56 708.14 519.25 709.54C519.94 710.94 521.4 712.33 522.5 712.64C523.6 712.94 525.4 712.95 526.5 712.66C527.6 712.37 529.06 710.98 529.75 709.57C530.44 708.16 531 704.75 531 702C531 698 530.5 696.5 528.5 694.5C527.13 693.13 525.3 692 524.45 692C523.6 692 521.82 693.1 520.5 694.45ZM922.92 693.28C922.08 693.98 920.86 696.46 920.2 698.78C919.54 701.1 919.28 704.24 919.62 705.75C919.96 707.26 920.86 709.51 921.62 710.75C922.5 712.18 924 713.01 925.75 713.03C927.26 713.05 929.26 712.26 930.19 711.28C931.12 710.3 932.19 707.7 932.56 705.5C932.94 703.27 932.75 699.84 932.12 697.75C931.51 695.69 930.1 693.55 929 693C927.9 692.45 926.43 692 925.72 692C925.02 692 923.76 692.58 922.92 693.28ZM1320.98 693.04C1320.14 693.58 1318.84 695.7 1318.1 697.76C1317.26 700.11 1317.01 702.99 1317.44 705.5C1317.81 707.7 1318.88 710.3 1319.81 711.28C1320.74 712.26 1322.74 713.05 1324.25 713.03C1325.99 713.01 1327.52 712.17 1328.42 710.75C1329.2 709.51 1329.94 706.92 1330.06 705C1330.19 703.08 1330.23 700.26 1330.15 698.75C1330.07 697.24 1329.1 695.1 1328 694C1326.9 692.9 1325.21 692.01 1324.25 692.03C1323.29 692.05 1321.81 692.5 1320.98 693.04ZM206 697.5L206 702C212.66 702 215.15 701.44 215.82 700.75C216.49 700.06 217.03 698.6 217.03 697.5C217.03 696.4 216.46 694.93 215.77 694.23C215.07 693.54 212.59 692.97 210.25 692.98L206 693L206 697.5ZM342.06 696.44L342 700C350.25 699.51 350.5 699.32 350.5 696.5C350.5 693.69 350.23 693.48 346.31 693.19C342.13 692.89 342.12 692.89 342.06 696.44ZM1092 697.5L1092 702C1097.89 702 1100.15 701.44 1100.82 700.75C1101.49 700.06 1102.03 698.6 1102.03 697.5C1102.03 696.4 1101.46 694.93 1100.77 694.23C1100.07 693.54 1097.81 692.97 1095.75 692.98L1092 693L1092 697.5ZM1171 696.5C1171 699.87 1171.14 700 1174.75 700.04C1176.97 700.07 1179.01 699.46 1179.75 698.54C1180.44 697.7 1180.78 696.1 1180.5 695C1180.09 693.37 1179.17 693 1175.5 693C1171.02 693 1171 693.02 1171 696.5ZM1348 697.5C1348 701.63 1348.2 702 1350.5 702C1351.88 702 1353.74 701.66 1354.64 701.25C1355.54 700.84 1356.66 699.71 1357.14 698.75C1357.64 697.72 1357.59 696.18 1357 695C1356.25 693.5 1355 693 1352 693L1348 693L1348 697.5ZM316.83 700.76C315.91 703.37 315.46 705.85 315.83 706.28C316.2 706.71 317.74 707.04 319.25 707.03C320.76 707.01 322.01 706.44 322.02 705.75C322.03 705.06 321.51 702.92 320.88 701C320.25 699.08 319.45 697.17 319.11 696.76C318.78 696.36 317.75 698.16 316.83 700.76ZM431.04 698.5C430.39 700.15 429.55 702.75 429.18 704.27C428.53 706.93 428.65 707.05 432.25 707.02C435.66 707 435.94 706.8 435.36 704.75C435 703.51 434.15 700.92 433.47 699L432.22 695.5L431.04 698.5ZM1147.04 698.5C1146.39 700.15 1145.55 702.75 1145.18 704.27C1144.53 706.93 1144.65 707.05 1148.25 707.02C1151.66 707 1151.94 706.8 1151.36 704.75C1151 703.51 1150.15 700.92 1149.47 699L1148.22 695.5L1147.04 698.5ZM1379.04 698.5C1378.39 700.15 1377.55 702.75 1377.18 704.27C1376.54 706.88 1376.7 707.04 1379.75 707.02C1381.54 707.01 1383.17 706.66 1383.37 706.25C1383.57 705.84 1382.95 703.25 1381.98 700.5L1380.24 695.5L1379.04 698.5ZM987.14 700.75C986.53 702.81 986.03 705.06 986.02 705.75C986.01 706.48 987.26 707 989 707C990.74 707 991.99 706.48 991.98 705.75C991.97 705.06 991.59 702.81 991.13 700.75C990.66 698.69 989.83 697 989.27 697C988.71 697 987.76 698.69 987.14 700.75ZM1259.56 701.75C1258.69 704.36 1257.98 706.61 1257.99 706.75C1257.99 706.89 1259.58 707 1261.5 707C1264.59 707 1264.95 706.74 1264.56 704.75C1264.31 703.51 1263.64 701.26 1263.06 699.75C1262.48 698.24 1261.81 697 1261.58 697C1261.34 697 1260.44 699.14 1259.56 701.75ZM342.06 708.95C342 712.86 342.11 713 345.25 713.02C347.04 713.03 349.32 712.46 350.33 711.77C351.48 710.97 352.04 709.58 351.83 708C351.54 705.79 350.96 705.46 346.81 705.2L342.11 704.89L342.06 708.95ZM1171.19 708.75C1171.45 711.89 1171.9 712.55 1174 712.82C1175.38 713 1177.4 712.92 1178.5 712.65C1179.6 712.37 1180.78 711.33 1181.13 710.32C1181.48 709.32 1181.37 707.71 1180.88 706.75C1180.24 705.47 1178.78 705 1175.44 705L1170.87 705L1171.19 708.75Z" />
		<path class="shp3" d="M1196 717.73C1197.92 717.94 1201.3 717.94 1203.5 717.73C1205.7 717.51 1204.13 717.34 1200 717.34C1195.88 717.34 1194.08 717.51 1196 717.73Z" />
		<path class="shp4" d="M891 739.21C889.63 739.74 887.51 741.37 886.3 742.83C885.09 744.3 883.84 746.85 883.54 748.5C883.23 750.15 882.97 752.85 882.96 754.5C882.96 756.15 883.64 759.19 884.48 761.25C885.31 763.31 887.24 765.92 888.75 767.03C890.56 768.37 893.04 769.07 896 769.07C898.83 769.07 901.43 768.38 903 767.21C904.38 766.18 906.06 763.91 906.75 762.17L908 759C901.83 759 900.88 759.48 900.5 761C900.23 762.1 898.99 763.39 897.75 763.86C896.35 764.4 894.63 764.31 893.2 763.61C891.73 762.91 890.51 761.04 889.85 758.5C889.28 756.3 889.08 752.59 889.41 750.25C889.8 747.43 890.76 745.47 892.25 744.42C893.65 743.44 895.53 743.06 897.25 743.42C898.93 743.78 900.39 744.97 901 746.5C901.76 748.39 902.73 749 905 749C906.65 749 908 748.77 908 748.5C908 748.23 907.35 746.54 906.56 744.75C905.74 742.92 903.67 740.78 901.81 739.85C899.99 738.94 897.38 738.22 896 738.23C894.63 738.25 892.38 738.69 891 739.21ZM918.06 739.79C916.19 740.73 913.84 743.08 912.83 745C911.79 746.98 910.99 750.57 911 753.25C911 755.86 911.6 759.46 912.32 761.25C913.05 763.04 914.96 765.53 916.57 766.78C918.72 768.46 920.78 769.06 924.33 769.03C928.22 769.01 929.69 768.47 931.94 766.25C933.47 764.74 935.29 761.7 935.98 759.5C936.72 757.14 936.98 753.56 936.62 750.75C936.17 747.33 935.09 745 932.75 742.43C930.28 739.72 928.54 738.77 925.47 738.47C922.95 738.22 920.18 738.71 918.06 739.79ZM1069.07 739.4C1067.19 740.08 1065.08 741.5 1064.39 742.57C1063.69 743.63 1062.68 746.52 1062.13 749C1061.59 751.48 1061.48 755.3 1061.9 757.5C1062.31 759.7 1063.18 762.51 1063.82 763.75C1064.47 764.99 1066.58 766.67 1068.5 767.5C1070.42 768.33 1073.46 769.02 1075.25 769.03C1077.04 769.05 1079.74 768.15 1081.25 767.03C1082.76 765.92 1084.67 763.65 1085.5 762C1086.33 760.35 1087 756.75 1087 754C1087 751.25 1086.51 747.76 1085.91 746.25C1085.31 744.74 1083.74 742.49 1082.41 741.25C1081.09 740.01 1079.44 738.95 1078.75 738.89C1078.06 738.82 1076.38 738.64 1075 738.47C1073.63 738.3 1070.96 738.72 1069.07 739.4ZM1125.25 739.54C1122.99 740.55 1121.39 742.38 1120 745.5C1118.47 748.94 1118.12 751.35 1118.51 755.75C1118.78 758.91 1119.68 762.51 1120.51 763.75C1121.33 764.99 1123.24 766.75 1124.75 767.68C1126.75 768.89 1129.03 769.23 1133.14 768.93C1136.95 768.64 1139.47 767.85 1140.92 766.5C1142.64 764.89 1143.06 763.37 1143.03 758.75L1143 753C1131.27 753 1131 753.11 1131 755.5C1131 757.61 1131.47 758 1134 758C1136.67 758 1136.97 758.31 1136.75 760.75C1136.55 763 1135.95 763.56 1133.5 763.82C1131.85 763.99 1129.49 763.88 1128.25 763.57C1126.55 763.14 1125.8 761.96 1125.17 758.75C1124.72 756.41 1124.43 753.15 1124.54 751.5C1124.64 749.85 1125.23 747.49 1125.86 746.25C1126.49 745.01 1127.9 743.77 1129 743.5C1130.1 743.23 1131.9 743.23 1133 743.5C1134.1 743.77 1135.45 744.9 1136 746C1136.67 747.33 1138 748 1140 748C1141.65 748 1143 747.77 1143 747.5C1143 747.23 1142.33 745.65 1141.5 744C1140.67 742.35 1138.99 740.49 1137.75 739.88C1136.51 739.26 1133.92 738.6 1132 738.41C1130.08 738.22 1127.04 738.73 1125.25 739.54ZM1225.25 739.56C1223.05 740.53 1221.37 742.38 1220.06 745.25C1218.72 748.21 1218.22 751.17 1218.43 755C1218.6 758.02 1219.18 761.4 1219.73 762.5C1220.27 763.6 1222.02 765.53 1223.61 766.78C1225.72 768.46 1227.78 769.06 1231.25 769.03C1235.03 769.01 1236.6 768.44 1238.92 766.25C1240.53 764.74 1242.1 762.49 1242.42 761.25C1242.93 759.29 1242.62 759 1240 759C1238 759 1236.67 759.67 1236 761C1235.45 762.1 1233.99 763.39 1232.75 763.86C1231.35 764.4 1229.62 764.31 1228.18 763.61C1226.91 763 1225.58 761.38 1225.23 760C1224.88 758.63 1224.6 755.92 1224.6 754C1224.6 752.08 1224.91 749.26 1225.3 747.75C1225.68 746.24 1227.01 744.5 1228.25 743.9C1229.49 743.29 1231.51 743.07 1232.75 743.4C1233.99 743.73 1235.45 745.13 1236 746.5C1236.76 748.39 1237.73 749 1240 749C1241.65 749 1243.01 748.89 1243.02 748.75C1243.03 748.61 1242.6 747.15 1242.06 745.5C1241.53 743.85 1239.83 741.65 1238.29 740.6C1236.76 739.56 1233.92 738.58 1232 738.42C1230.08 738.26 1227.04 738.77 1225.25 739.56ZM1327.02 739.7C1324.72 740.89 1323.2 742.6 1322.52 744.75C1321.66 747.5 1321.83 748.44 1323.59 750.75C1324.74 752.26 1327.93 754.4 1330.67 755.5C1333.42 756.6 1336.41 758.06 1337.33 758.75C1338.61 759.7 1338.76 760.47 1338 762C1337.3 763.39 1336.01 764 1333.75 763.98C1331.96 763.98 1330.02 763.64 1329.43 763.23C1328.84 762.83 1328.05 761.71 1327.68 760.75C1327.22 759.57 1326.1 759.08 1324.25 759.25C1322.13 759.44 1321.57 759.96 1321.8 761.5C1321.96 762.6 1323.43 764.74 1325.05 766.25C1327.48 768.51 1328.93 769.01 1333.25 769.03C1337 769.06 1339.28 768.49 1341.25 767.03C1343.45 765.41 1344 764.2 1344 761C1344 757.78 1343.42 756.51 1341 754.5C1339.35 753.13 1336.15 751.44 1333.88 750.75C1331.62 750.06 1329.37 748.71 1328.88 747.75C1328.27 746.55 1328.49 745.53 1329.57 744.5C1330.44 743.67 1332.01 743 1333.07 743C1334.13 743 1336.01 744.11 1337.25 745.46C1338.49 746.81 1340.51 747.94 1341.75 747.96C1343.59 747.99 1343.95 747.51 1343.75 745.35C1343.61 743.89 1342.38 741.85 1341 740.81C1339.63 739.77 1336.7 738.69 1334.5 738.41C1331.77 738.06 1329.4 738.47 1327.02 739.7ZM1471.5 739.38C1469.85 740.07 1467.5 742.18 1466.28 744.07C1464.58 746.7 1464.06 749.01 1464.04 754C1464.02 758.86 1464.52 761.26 1466.01 763.5C1467.11 765.15 1469.02 767.05 1470.25 767.71C1471.49 768.38 1474.19 768.95 1476.25 768.96C1478.31 768.98 1481.24 768.39 1482.75 767.64C1484.26 766.89 1486.29 764.64 1487.25 762.64C1488.29 760.47 1489 756.68 1489 753.25C1488.99 749.26 1488.38 746.5 1487 744.25C1485.9 742.46 1484.1 740.55 1483 740C1481.9 739.45 1479.54 738.8 1477.75 738.56C1475.96 738.32 1473.15 738.69 1471.5 739.38ZM941.17 751.25C941.48 762.78 941.65 763.65 944 765.97C945.87 767.82 947.89 768.55 952 768.9C957.12 769.32 957.73 769.13 960.75 766.18L964 763L964 739L958 739C958 755.27 957.55 760.9 957 762C956.29 763.43 955 764 952.5 764C950 764 948.71 763.43 948 762C947.45 760.9 947 755.27 947 749.5L947 739L940.83 739L941.17 751.25ZM969 754L969 769L975.5 768.5L976.5 750.5C986.98 767.6 987.86 768.52 990.77 768.75L994 769L994 739L988 739C988 752.17 987.55 756.23 987 756.5C986.45 756.77 985.69 756.21 985.31 755.25C984.93 754.29 982.57 750.22 980.06 746.21C975.9 739.57 975.22 738.93 972.25 738.96L969 739L969 754ZM997 741.5C997 743.8 997.37 744 1001.5 744L1006 744L1006 769L1012 769L1012 743.5C1019.04 744.05 1020.75 743.7 1021.23 742.83C1021.64 742.1 1021.98 740.94 1021.98 740.25C1022 739.32 1018.84 739 1009.5 739L997 739L997 741.5ZM1027.74 748.82C1031.47 756.31 1032.67 759.87 1032.81 763.82C1033 768.87 1033.08 769 1036 769L1039 769C1039 757.67 1039.56 756 1044 748L1049 739C1042.15 739 1041.87 739.28 1038.95 745.75L1035.91 752.5C1029.69 739.33 1029.31 738.94 1026.18 738.97L1022.86 739L1027.74 748.82ZM1092 754L1092 769C1097.97 769 1098 768.94 1098 763.5C1098 758.3 1098.14 758 1100.5 758C1102.53 758 1103.51 759.03 1105.75 763.51C1108.24 768.51 1108.8 769.03 1111.75 769.01C1113.54 769.01 1114.99 768.66 1114.98 768.25C1114.97 767.84 1113.59 765.02 1111.91 762L1108.87 756.5C1113.24 752.21 1113.97 750.43 1113.98 747.75C1113.99 745.07 1113.29 743.29 1111.5 741.5C1109.23 739.23 1108.23 739 1100.5 739L1092 739L1092 754ZM1156 740.5C1156 741.33 1155.55 742.79 1155.01 743.75C1154.47 744.71 1152.21 750.45 1149.99 756.5C1147.77 762.55 1145.97 767.84 1145.98 768.25C1145.99 768.66 1147.35 769 1149 769C1151.51 769 1152.12 768.5 1152.75 765.98C1153.48 763.05 1153.68 762.95 1159.25 762.98C1164.74 763 1165.04 763.13 1166 766C1166.81 768.44 1167.56 769 1170 769C1171.65 769 1173 768.55 1173 768C1173 767.45 1170.64 760.69 1167.75 752.97L1162.5 738.93C1157.04 738.99 1156 739.48 1156 740.5ZM1177.07 753.94L1177 769L1183 769C1182.61 753.5 1182.61 749 1182.75 749C1182.89 749 1185.7 753.5 1189 759C1194.47 768.11 1195.27 769 1198 769L1201 769L1201 739L1194.86 739L1194.5 758.16C1188.3 747.82 1185.79 743.62 1184.93 742.16C1183.86 740.36 1182.35 739.4 1180.24 739.19L1177.14 738.87L1177.07 753.94ZM1207 754L1207 769L1213 769L1213 739L1207 739L1207 754ZM1256.01 740.25C1256.01 740.94 1256.51 743.3 1257.12 745.5C1257.72 747.7 1258.39 750.4 1258.59 751.5C1258.79 752.6 1259.76 757 1260.73 761.27C1262.46 768.85 1262.57 769.04 1265.5 769.03C1268.47 769.02 1268.52 768.92 1270.82 759.26C1272.1 753.89 1273.45 749.88 1273.82 750.35C1274.19 750.81 1274.55 751.71 1274.62 752.35C1274.68 752.98 1275.58 756.99 1276.62 761.26C1278.49 768.98 1278.52 769.03 1281.75 769.01C1284.64 769 1285.06 768.64 1285.5 765.75C1285.78 763.96 1286.2 761.6 1286.43 760.5C1286.66 759.4 1287.78 754.56 1288.92 749.75C1290.07 744.94 1291 740.55 1291 740C1291 739.45 1289.76 738.99 1288.25 738.98C1285.7 738.96 1285.41 739.38 1284.28 744.73C1283.61 747.9 1282.79 752.08 1282.46 754C1282.13 755.92 1281.67 757.73 1281.43 758C1281.19 758.27 1280.85 758.27 1280.67 758C1280.49 757.73 1279.44 753.45 1278.34 748.5C1276.4 739.74 1276.27 739.5 1273.5 739.5C1270.73 739.5 1270.6 739.74 1268.66 748.5C1267.56 753.45 1266.51 757.73 1266.33 758C1266.15 758.27 1265.81 758.27 1265.57 758C1265.33 757.73 1264.87 755.92 1264.54 754C1264.21 752.08 1263.51 748.02 1262.97 745C1262.43 741.98 1261.99 739.39 1261.99 739.25C1262 739.11 1260.65 739 1259 739C1257.26 739 1256 739.53 1256.01 740.25ZM1297.15 753.25C1294.29 761.09 1291.96 767.84 1291.97 768.25C1291.99 768.66 1293.35 769 1295 769C1297.44 769 1298.19 768.44 1299 766C1299.95 763.15 1300.28 763 1305.5 763C1310.72 763 1311.05 763.15 1312 766C1312.81 768.44 1313.56 769 1316 769C1317.65 769 1319.01 768.66 1319.03 768.25C1319.04 767.84 1316.68 761.08 1313.78 753.24C1308.55 739.12 1308.47 738.98 1305.42 738.99C1302.38 739 1302.3 739.14 1297.15 753.25ZM1347 741.5C1347 743.8 1347.37 744 1351.5 744L1356 744L1356 769L1362 769L1362 744C1370.63 744 1371 743.8 1371 741.5L1371 739L1347 739L1347 741.5ZM1375 754L1375 769L1395 769C1395 764.07 1394.8 764 1388 764L1381 764C1381 756.66 1381.37 755.92 1383.25 755.51C1384.49 755.25 1387.19 755.02 1389.25 755.01C1392.33 755 1393 754.64 1393 753C1393 751.22 1392.33 751 1387 751L1381 751L1381 743.5C1394.87 744 1395 743.95 1395 741.5L1395 739L1375 739L1375 754ZM1410 754L1410 769C1419.25 769 1422.84 768.31 1424.93 767.25C1426.81 766.29 1429.2 764.38 1430.22 763C1431.24 761.63 1432.34 758.48 1432.65 756C1433.02 753.05 1432.66 750.04 1431.61 747.25C1430.59 744.55 1428.82 742.27 1426.75 741C1424.35 739.53 1421.74 739.01 1416.75 739L1410 739L1410 754ZM1437 754L1437 769C1443.44 768.5 1443.5 768.4 1443.75 763.25C1443.97 758.55 1444.24 758 1446.25 757.99C1447.98 757.98 1449.13 759.24 1451.25 763.49C1453.67 768.33 1454.36 769 1457 769C1458.75 769 1459.99 768.48 1459.98 767.75C1459.96 767.06 1458.72 764.25 1457.22 761.5L1454.48 756.5C1458.92 752.67 1459.5 751.21 1459.5 748C1459.5 744.7 1458.93 743.32 1456.75 741.41C1454.3 739.27 1453.06 739 1445.5 739L1437 739L1437 754ZM1494 754L1494 769C1499.97 769 1500 768.94 1500 763.5L1500 758C1510.46 758 1511.52 757.63 1514.08 755C1516.18 752.84 1517 751.02 1517 748.5C1517 745.94 1516.19 744.19 1514 742C1511.14 739.14 1510.61 739 1502.5 739L1494 739L1494 754Z" />
		<path class="shp0" d="M920 745C918.9 746.1 917.72 748.69 917.38 750.75C917.04 752.81 917.06 755.85 917.43 757.5C917.79 759.15 918.85 761.3 919.79 762.28C920.73 763.26 922.74 764.05 924.25 764.03C925.96 764.01 927.57 763.15 928.51 761.75C929.45 760.34 930.01 757.17 930.01 753.25C930 747.6 929.74 746.81 927.25 744.97C925.74 743.85 923.94 742.95 923.25 742.97C922.56 742.98 921.1 743.9 920 745ZM1070.5 745.45C1068.53 747.46 1068.08 748.97 1068.04 753.7C1068 757.29 1068.56 760.36 1069.49 761.75C1070.48 763.23 1072 764 1073.93 764C1075.54 764 1077.56 763.33 1078.43 762.5C1079.29 761.67 1080.29 759.76 1080.64 758.25C1080.99 756.74 1081.02 753.48 1080.72 751C1080.34 747.9 1079.44 745.94 1077.83 744.71C1076.55 743.72 1074.92 742.93 1074.2 742.96C1073.49 742.98 1071.83 744.1 1070.5 745.45ZM1472.5 745.45C1470.62 747.37 1470.08 749.01 1470.05 752.95C1470.02 755.73 1470.45 759.13 1471 760.5C1471.55 761.88 1473.01 763.27 1474.25 763.6C1475.49 763.92 1477.4 763.95 1478.5 763.66C1479.6 763.37 1481.06 761.98 1481.75 760.57C1482.44 759.16 1483 755.75 1483 753C1483 749 1482.5 747.5 1480.5 745.5C1479.13 744.13 1477.3 743 1476.45 743C1475.6 743 1473.83 744.1 1472.5 745.45ZM1098 748.5C1098 752.96 1098.03 753 1101.43 753C1103.31 753 1105.56 752.33 1106.43 751.5C1107.29 750.67 1108.01 749.21 1108.02 748.25C1108.03 747.29 1107.46 745.93 1106.77 745.23C1106.07 744.54 1103.81 743.97 1101.75 743.98L1098 744L1098 748.5ZM1416 754L1416 764C1420.32 764.04 1422.46 763.07 1423.73 761.78C1425.48 759.99 1425.96 758.32 1425.99 754C1426 750.72 1425.41 747.59 1424.51 746.25C1423.42 744.63 1422.02 744 1419.5 744L1416 744L1416 754ZM1444 748.5L1444 753C1449.99 752.59 1451.72 751.79 1452.54 750.5C1453.4 749.15 1453.51 747.77 1452.9 746.25C1452.18 744.44 1451.21 744 1448 744L1444 744L1444 748.5ZM1500 748.5L1500 753C1508.17 753 1509.2 752.59 1510.11 750.75C1510.91 749.11 1510.91 747.89 1510.11 746.25C1509.2 744.41 1508.17 744 1504.5 744L1500 744L1500 748.5ZM1157.92 750.75C1157.35 752.26 1156.69 754.51 1156.44 755.75C1156.05 757.74 1156.41 758 1159.5 758C1162.59 758 1162.95 757.74 1162.56 755.75C1162.31 754.51 1161.64 752.26 1161.06 750.75C1160.48 749.24 1159.77 748 1159.48 748C1159.19 748 1158.49 749.24 1157.92 750.75ZM1303.92 750.75C1303.35 752.26 1302.69 754.51 1302.44 755.75C1302.05 757.74 1302.41 758 1305.5 758C1308.59 758 1308.95 757.74 1308.56 755.75C1308.31 754.51 1307.64 752.26 1307.06 750.75C1306.48 749.24 1305.77 748 1305.48 748C1305.19 748 1304.49 749.24 1303.92 750.75Z" />
		<path class="shp4" d="M892.5 789.68C891.4 789.97 889.45 791.17 888.16 792.35C886.88 793.53 885.18 796.08 884.39 798C883.6 799.92 882.96 803.19 882.98 805.25C882.99 807.31 883.6 810.46 884.32 812.25C885.05 814.04 886.96 816.53 888.57 817.78C890.63 819.39 892.83 820.07 896 820.07C899.17 820.07 901.37 819.39 903.43 817.78C905.04 816.53 906.92 814.15 907.6 812.5C908.29 810.85 908.77 807.01 908.68 803.96C908.57 800.65 907.8 797.33 906.75 795.71C905.79 794.22 903.99 792.34 902.75 791.54C901.51 790.73 899.15 789.87 897.5 789.62C895.85 789.37 893.6 789.4 892.5 789.68ZM913 805L913 820L920 820L920 808C930.89 807.53 931.53 807.26 931.75 805.25C931.98 803.14 931.63 803 926 803L920 803L920 794C932.9 794.99 933 794.96 933 792.5L933 790L913 790L913 805ZM937 805L937 820L943 820L943 808C954.73 808 955 807.89 955 805.5C955 803.11 954.73 803 949 803L943 803L943 794C955.63 794.49 955.99 794.38 955.99 792.25C956 790.07 955.69 790 946.5 790L937 790L937 805Z" />
		<path class="shp0" d="M893.46 795.01C892.27 795.53 890.89 797.67 890.13 800.2C889.38 802.68 889.11 805.98 889.5 808C889.87 809.92 890.92 812.3 891.83 813.28C892.75 814.26 894.63 815.07 896 815.07C897.38 815.07 899.4 814.1 900.5 812.92C902.04 811.28 902.5 809.4 902.5 804.81C902.5 799.53 902.17 798.54 899.75 796.41C898.24 795.09 896.66 794.03 896.25 794.06C895.84 794.1 894.58 794.53 893.46 795.01Z" />
	</g>
</svg>