<svg xmlns="http://www.w3.org/2000/svg" viewBox="0 0 1590 895" width="1590" height="895">
	<style>
		tspan { white-space:pre }
		.shp0 { fill: #ffffff } 
		.shp1 { fill: #3e862b } 
		.shp2 { fill: #696a69 } 
		.shp3 { fill: #434343 } 
	</style>
	<g >
		<path class="shp0" d="M0 447.5L0 895L1590 895L1590 0L0 0L0 447.5Z" />
		<path class="shp1" d="M658.5 99.53C654.65 100.33 649.25 101.73 646.5 102.63C643.75 103.54 638.58 105.73 635 107.51C631.42 109.29 624.9 113.6 620.5 117.08C616.1 120.57 608.67 127.28 604 132C599.33 136.71 591.07 145.73 585.64 152.04C580.22 158.34 571.19 169.57 565.56 177C559.93 184.43 552.25 194.78 548.48 200C544.72 205.22 535.49 218.72 527.98 230C520.47 241.28 510.12 257.25 504.99 265.5C499.86 273.75 492.45 285.9 488.51 292.5C484.58 299.1 477.07 312.15 471.82 321.5C466.56 330.85 459.95 343.11 457.13 348.75C452.79 357.43 451.58 359.08 449.25 359.51C447.74 359.8 445.15 359.63 443.5 359.14C441.85 358.65 438.02 356.63 435 354.64C431.98 352.66 427.57 349.57 425.22 347.77C422.86 345.97 419.03 342.27 416.72 339.54C414.4 336.82 410.3 332.54 407.61 330.04C404.93 327.54 400.88 322.75 398.61 319.39C394.91 313.89 394.2 313.31 391.5 313.63C389.85 313.83 387.6 314.88 386.5 315.97C385.4 317.06 384.05 317.96 383.5 317.97C382.95 317.98 380.81 319.34 378.75 320.99C376.69 322.65 374.66 323.8 374.25 323.54C373.84 323.29 370.24 325.32 366.25 328.04C362.26 330.77 358.1 333.9 357 335C355.9 336.1 352.75 338.13 350 339.5C347.25 340.88 345.01 342.56 345.03 343.25C345.04 343.94 344.82 344.16 344.53 343.75C344.24 343.34 339.84 345.77 334.75 349.15C329.66 352.53 325.39 355.45 325.25 355.65C325.11 355.84 332.74 365.11 342.19 376.25C351.65 387.39 364.4 402.8 370.51 410.5C376.63 418.2 385.15 429.23 389.45 435C393.74 440.77 400.07 449.77 403.51 455C406.95 460.23 411.06 467.08 412.64 470.24L415.5 475.97C454.79 476.38 466.37 476.16 466.6 475.75C466.82 475.34 467.56 475.18 468.25 475.4C468.94 475.61 471.75 475.35 474.5 474.8C477.25 474.26 480.06 473.74 480.75 473.66C481.44 473.57 482.74 471.25 483.64 468.5C484.54 465.75 487.04 459 489.21 453.5C491.38 448 494.34 440.8 495.8 437.5C497.26 434.2 499.48 430.71 500.73 429.75C501.98 428.79 503 427.44 503.01 426.75C503.01 426.06 503.74 424.15 504.62 422.5C505.5 420.85 506.19 418.15 506.15 416.5C506.11 414.55 511.11 403.37 520.48 384.5C528.4 368.55 540.14 346.05 546.57 334.5C552.99 322.95 563.65 304.5 570.25 293.5C576.85 282.5 589.12 263.15 597.51 250.5C605.9 237.85 618.29 220.07 625.04 211C631.79 201.93 642.3 188.43 648.4 181.01C654.51 173.59 665.8 161.03 673.5 153.1C681.2 145.17 691.55 135.34 696.5 131.24C701.64 126.99 706.5 122.02 707.82 119.65C709.53 116.59 709.99 114.58 709.57 112C709.25 110.08 707.76 107.25 706.25 105.71C704.74 104.18 701.02 101.97 698 100.8C693.57 99.09 689.87 98.62 679 98.38C669.98 98.18 663.17 98.56 658.5 99.53ZM1447.5 99.66C1443.65 100.49 1437.35 102.26 1433.5 103.61C1429.65 104.95 1424.1 107.51 1421.16 109.28C1418.23 111.05 1412.38 115.25 1408.16 118.61C1403.95 121.96 1395.61 129.84 1389.64 136.11C1383.66 142.37 1373.5 154.03 1367.05 162C1360.61 169.97 1351.52 181.68 1346.86 188C1342.2 194.32 1333.87 206.03 1328.34 214C1322.81 221.97 1313.66 235.7 1308 244.5C1302.34 253.3 1294.11 266.35 1289.7 273.5C1285.3 280.65 1278.89 291.23 1275.46 297C1272.04 302.77 1265.34 314.48 1260.58 323C1255.82 331.52 1249.58 343.09 1246.71 348.69C1242.13 357.65 1241.14 358.95 1238.5 359.42C1236.85 359.71 1233.7 359.5 1231.5 358.95C1229.3 358.4 1226.15 357.81 1224.5 357.65C1222.83 357.48 1218.85 355.32 1215.5 352.77C1212.2 350.25 1207.66 346.23 1205.42 343.84C1203.18 341.45 1199.26 337.02 1196.71 334C1194.15 330.98 1192.05 327.94 1192.03 327.25C1192.02 326.56 1191.21 325.43 1190.25 324.74C1189.29 324.04 1187.85 322.36 1187.07 320.99C1186.28 319.62 1185.04 317.26 1184.32 315.75C1183.59 314.24 1182.66 313.15 1182.25 313.33C1181.84 313.51 1179.81 314.41 1177.75 315.33C1175.69 316.25 1173.78 317.45 1173.5 318C1173.22 318.55 1171.88 319.45 1170.5 320C1169.13 320.55 1168 321.68 1168 322.5C1168 323.32 1167.66 323.8 1167.25 323.56C1166.84 323.31 1163.58 325.11 1160 327.55C1156.42 329.99 1153.05 331.99 1152.5 331.98C1151.95 331.98 1150.71 332.89 1149.75 333.99C1148.79 335.1 1147.44 336.01 1146.75 336.02C1146.06 336.03 1144.57 337.04 1143.43 338.27C1142.29 339.5 1139.37 341.57 1136.93 342.88C1134.49 344.19 1130.47 346.79 1128 348.66C1125.53 350.53 1123.05 352.06 1122.5 352.05C1121.95 352.04 1120.38 353.18 1119 354.58L1116.5 357.13C1123.68 363.62 1128.18 368.59 1131.13 372.38C1134.09 376.16 1136.96 379.54 1137.53 379.88C1138.1 380.22 1140.32 382.98 1142.46 386C1144.61 389.02 1148.8 394.43 1151.77 398C1154.74 401.57 1158.89 406.52 1160.98 409C1163.07 411.48 1167.14 416.65 1170.03 420.5C1172.92 424.35 1176.56 428.85 1178.13 430.5C1179.69 432.15 1180.98 433.84 1180.98 434.25C1180.99 434.66 1182.59 437.14 1184.52 439.75C1186.46 442.36 1191.12 449.23 1194.88 455C1198.65 460.77 1201.99 466.4 1202.32 467.5C1202.64 468.6 1203.78 470.63 1204.83 472L1206.75 474.5C1252.67 474.89 1266.79 474.61 1267.75 474.13C1268.71 473.65 1270.29 471.17 1271.25 468.63C1272.21 466.08 1273.34 464.19 1273.75 464.43C1274.16 464.66 1276.26 460.27 1278.41 454.68C1280.56 449.08 1286.11 435.95 1290.73 425.5C1295.35 415.05 1304.65 395.48 1311.39 382C1318.13 368.52 1327.84 349.85 1332.97 340.5C1338.1 331.15 1345.68 317.65 1349.82 310.5C1353.95 303.35 1359.14 294.57 1361.34 291C1363.53 287.43 1368.71 279.1 1372.84 272.5C1376.96 265.9 1383.94 255.1 1388.33 248.5C1392.73 241.9 1400.47 230.65 1405.54 223.5C1410.6 216.35 1419.11 204.88 1424.45 198C1429.79 191.13 1438.96 179.89 1444.83 173.02C1450.7 166.16 1460.67 155.34 1467 148.98C1473.33 142.62 1482.49 134.06 1487.38 129.96C1492.26 125.86 1496.87 121.26 1497.63 119.75C1498.38 118.24 1499 115.31 1499.01 113.25C1499.01 111.19 1498.34 108.49 1497.51 107.25C1496.68 106.01 1493.86 103.93 1491.25 102.62C1488.64 101.32 1484.14 99.74 1481.25 99.12C1478.36 98.51 1471.16 98.04 1465.25 98.08C1459.34 98.13 1451.35 98.84 1447.5 99.66Z" />
		<path class="shp2" d="M286.48 239.25C283.76 241.04 275.61 247.22 268.38 253C261.14 258.77 246.77 270.7 236.44 279.5C226.11 288.3 209.75 302.37 200.08 310.77C190.41 319.16 182.16 326.03 181.75 326.02C181.34 326.01 180.89 315.54 180.75 302.75L180.5 279.5L120.5 279.5L119.5 381.5C112.53 387.86 99.93 399.05 87 410.46C74.07 421.88 60.71 433.76 57.3 436.86C52.41 441.3 51.08 443.14 51.02 445.5C50.98 447.37 51.8 449.34 53.22 450.73C54.48 451.95 56.74 452.97 58.25 452.98C60.28 452.99 63.7 450.7 71.25 444.25C76.89 439.44 90.08 428.08 100.56 419C111.05 409.93 132.38 391.48 147.97 378C163.56 364.52 180.02 350.35 184.55 346.5C189.09 342.65 203.71 330.05 217.06 318.5C230.4 306.95 249.95 290.07 260.49 281C271.03 271.93 282.55 261.93 286.08 258.79C289.61 255.64 292.95 253.07 293.5 253.08C294.05 253.08 297.64 255.88 301.48 259.29C305.33 262.71 309.83 266.68 311.48 268.13C313.14 269.57 327.89 282.28 344.25 296.38C360.61 310.47 374.14 322.56 374.32 323.25C374.52 324.04 376.08 323.3 378.57 321.24C380.73 319.45 382.95 317.98 383.5 317.97C384.05 317.96 385.4 317.05 386.5 315.94C387.6 314.83 389.74 313.83 391.25 313.71C392.76 313.6 394 312.94 394 312.25C394 311.56 393.32 311 392.5 311C391.68 311 390.77 311.45 390.5 312C390.23 312.55 389.66 313.01 389.25 313.02C388.84 313.04 382.4 307.75 374.94 301.27C367.48 294.8 357.13 285.91 351.94 281.51C346.75 277.12 335.98 268.08 328 261.43C320.02 254.77 309.45 246.31 304.5 242.63C299.55 238.94 294.58 235.94 293.46 235.96C292.34 235.98 289.2 237.46 286.48 239.25ZM903.5 246.67C903.04 247.03 902.75 249.4 902.85 251.92C902.95 254.44 903.46 257.18 903.98 258C904.5 258.82 908.21 260.86 912.22 262.53L919.5 265.56L920 645C912.64 648.12 908.92 649.8 907 650.76C903.58 652.46 903.5 652.64 903.5 658.5L903.5 664.5L1242.5 664.5L1243 652C1236.46 649.29 1232.75 647.6 1230.53 646.5L1226.5 644.5L1226.5 476.5L1271 476C1273.45 467.86 1273.98 465.05 1273.75 464.5C1273.53 463.95 1272.48 465.69 1271.42 468.38C1270.37 471.06 1268.71 473.65 1267.75 474.13C1266.79 474.61 1252.67 474.89 1236.38 474.75L1206.75 474.5C1203.78 470.63 1202.64 468.6 1202.32 467.5C1201.99 466.4 1198.65 460.77 1194.88 455C1191.12 449.23 1186.46 442.36 1184.52 439.75C1182.59 437.14 1180.99 434.66 1180.98 434.25C1180.98 433.84 1179.69 432.15 1178.13 430.5C1176.56 428.85 1172.92 424.35 1170.03 420.5C1167.14 416.65 1163.07 411.48 1160.98 409C1158.89 406.52 1154.74 401.57 1151.77 398C1148.8 394.43 1144.61 389.02 1142.46 386C1140.32 382.98 1138.1 380.22 1137.53 379.88C1136.96 379.54 1134.09 376.16 1131.13 372.38C1128.18 368.59 1123.68 363.62 1121.13 361.32L1116.5 357.13C1120.38 353.18 1121.95 352.04 1122.5 352.05C1123.05 352.06 1125.53 350.53 1128 348.66C1130.47 346.79 1134.49 344.19 1136.93 342.88C1139.37 341.57 1142.29 339.5 1143.43 338.27C1144.57 337.04 1146.06 336.03 1146.75 336.02C1147.44 336.01 1148.79 335.1 1149.75 333.99C1150.71 332.89 1151.95 331.98 1152.5 331.98C1153.05 331.99 1156.42 329.99 1160 327.55C1163.58 325.11 1166.84 323.31 1167.25 323.56C1167.66 323.8 1168 323.32 1168 322.5C1168 321.68 1169.13 320.55 1170.5 320C1171.88 319.45 1173.22 318.55 1173.5 318C1173.78 317.45 1175.69 316.25 1177.75 315.33C1179.81 314.41 1181.84 313.51 1182.25 313.33C1182.66 313.15 1183.59 314.24 1184.32 315.75C1185.04 317.26 1186.28 319.62 1187.07 320.99C1187.85 322.36 1189.29 324.04 1190.25 324.74C1191.21 325.43 1192.02 326.56 1192.03 327.25C1192.05 327.94 1194.15 330.98 1196.71 334C1199.26 337.02 1203.18 341.45 1205.42 343.84C1207.66 346.23 1211.97 350.12 1215 352.49C1218.03 354.86 1221.74 357.07 1223.25 357.4L1226 358C1226.02 287.86 1226.36 267.02 1226.77 266.44C1227.17 265.86 1229.08 264.76 1231 263.99C1232.92 263.23 1236.3 261.67 1238.5 260.54C1242.46 258.5 1242.5 258.42 1242.75 252.24L1243 246C980.53 246 903.96 246.3 903.5 246.67ZM291 283.74C290.18 284.06 283 289.76 275.05 296.41C267.11 303.06 240.96 324.93 216.95 345C192.94 365.07 158.71 393.68 140.9 408.56C123.08 423.44 108.16 436.38 107.75 437.31C107.34 438.24 107 486.7 107 545L107 651L112 656L183.5 655.5L183.5 641.5L122 641L122.04 443.5C216.02 365.23 243.8 342.05 244.4 341.5C245.01 340.95 256.07 331.63 269 320.79C281.93 309.95 292.84 301.06 293.25 301.04C293.66 301.02 304.91 310.06 318.25 321.13C331.59 332.2 342.91 341.76 343.4 342.38C344.06 343.19 344.78 343.09 346.01 342C346.94 341.18 350.02 339.26 352.85 337.75L358 335C349.09 327.73 343.57 323.07 340 319.96C336.43 316.85 326.07 308.11 317 300.53C307.93 292.96 299.15 285.92 297.5 284.89C295.85 283.85 294.05 283.04 293.5 283.08C292.95 283.12 291.82 283.42 291 283.74Z" />
		<path class="shp0" d="M1039.5 289.16C1038.4 289.77 1036.72 291.21 1035.77 292.38C1034.82 293.55 1034.03 295.96 1034.02 297.75C1034.01 299.54 1034.56 302.14 1035.25 303.54C1035.94 304.93 1037.96 306.73 1039.75 307.54C1042.37 308.72 1048.83 309 1073 309C1095.68 309 1103.79 308.68 1106.25 307.67C1108.04 306.94 1110.29 305.14 1111.25 303.67C1112.21 302.2 1113 299.65 1113 298C1113 295.9 1111.94 293.94 1109.5 291.5L1106 288C1052.23 288.05 1040.83 288.43 1039.5 289.16ZM135 330.5C135 361.27 135.22 366.88 136.38 366.25C137.14 365.84 144.12 359.88 151.89 353L166.01 340.5L166 294L135 294L135 330.5Z" />
		<path class="shp2" d="M416.24 339C418.29 341.48 421.89 345.11 424.23 347.09C426.58 349.06 429.63 351.27 431 352C433.14 353.14 433.34 353.12 432.36 351.91C431.73 351.14 427.01 346.9 421.87 342.5C414.03 335.79 413.12 335.23 416.24 339Z" />
		<path class="shp0" d="M1034.56 362.03C1034.11 362.72 1033.53 367.38 1033.25 372.39C1032.89 378.99 1033.21 383.29 1034.41 388C1035.33 391.57 1037.52 396.91 1039.29 399.86C1041.05 402.81 1044.53 407.01 1047 409.18C1049.47 411.36 1054.65 414.7 1058.5 416.6C1062.35 418.5 1066.29 420.04 1067.25 420.03C1068.21 420.01 1069.22 420.45 1069.5 421C1069.78 421.55 1069.28 425.71 1068.39 430.25C1067.51 434.79 1066.61 438.84 1066.39 439.25C1066.18 439.66 1063.53 438.65 1060.5 437C1056.18 434.64 1053.77 434 1049.25 434.02C1046.09 434.02 1042.83 434.44 1042 434.95C1040.75 435.71 1040.71 436.29 1041.75 438.43C1042.44 439.84 1044.46 442.64 1046.25 444.64C1048.04 446.63 1050.63 448.72 1052 449.26C1053.38 449.81 1057.2 450.53 1060.5 450.88L1066.5 451.5C1067.49 464.68 1068.05 470.41 1068.39 472.75C1068.96 476.7 1068.81 477.08 1066.25 478.08C1064.74 478.68 1061.81 480.03 1059.75 481.08C1057.48 482.24 1053.93 483.01 1050.75 483.02C1047.86 483.02 1043.66 483.59 1041.41 484.27C1039.16 484.94 1035.33 486.75 1032.91 488.29C1030.48 489.82 1027.38 492.65 1026 494.59C1024.2 497.11 1022.09 498.54 1018.5 499.66C1015.75 500.52 1011.7 502.24 1009.5 503.49C1007.3 504.74 1004.04 506.93 1002.25 508.38C1000.46 509.82 999 511.45 999 512C999 512.66 1024.44 513 1073.33 513C1114.22 513 1147.94 512.66 1148.28 512.25C1148.62 511.84 1148.58 510.88 1148.2 510.13C1147.81 509.38 1146.15 507.94 1144.5 506.93C1142.85 505.92 1138.8 504.15 1135.5 502.98C1131.15 501.45 1128.51 499.71 1125.89 496.68C1123.9 494.38 1120.3 491.5 1117.89 490.27C1115.47 489.04 1110.58 487.48 1107 486.81C1103.01 486.06 1098.96 484.5 1096.5 482.77C1094.3 481.21 1090.92 479.68 1089 479.36C1087.08 479.04 1084.49 478.15 1083.25 477.39C1081.56 476.35 1080.57 474.07 1079.26 468.25C1078.17 463.36 1077.52 456.26 1077.52 449C1077.51 441.06 1078.09 435.18 1079.39 430C1080.42 425.88 1081.99 421.7 1082.88 420.72C1083.77 419.74 1084.95 418.96 1085.5 418.99C1086.05 419.02 1089.2 417.7 1092.5 416.07C1095.8 414.43 1100.46 411.16 1102.86 408.8C1105.26 406.43 1108.46 402.7 1109.97 400.5C1111.48 398.3 1113.68 393.69 1114.86 390.25C1116.04 386.81 1116.66 383.48 1116.25 382.84C1115.74 382.05 1113.14 381.87 1108 382.26C1103.88 382.57 1098.92 383.3 1097 383.87C1095.08 384.44 1091.59 386.28 1089.25 387.96C1086.91 389.63 1083.54 393.25 1081.75 395.99C1079.13 400.03 1078.25 400.75 1077.2 399.74C1076.49 399.06 1075.65 396.93 1075.34 395C1075.02 393.07 1073.5 388.8 1071.95 385.5C1070.33 382.03 1066.9 377.28 1063.82 374.24C1060.89 371.34 1055.35 367.38 1051.5 365.42C1047.65 363.46 1042.44 361.61 1039.93 361.31C1036.84 360.94 1035.1 361.18 1034.56 362.03Z" />
		<path class="shp2" d="M504.69 422C503.76 424.2 502.99 426.34 502.97 426.75C502.96 427.16 502.27 428.18 501.45 429C500.11 430.33 500.31 430.79 503.22 433.14C505.03 434.59 509.88 438.79 514 442.49C518.13 446.18 522.85 450.06 524.5 451.1C526.15 452.14 528.31 452.99 529.3 453C530.28 453 532.2 451.88 533.55 450.5C534.9 449.13 535.98 446.99 535.96 445.75C535.94 444.39 533.87 441.5 530.71 438.42C527.84 435.63 521.45 429.87 516.5 425.63C511.55 421.39 507.25 417.94 506.94 417.96C506.63 417.98 505.62 419.8 504.69 422ZM188.63 435.25C188.95 437.04 190.32 443.68 191.69 450C193.06 456.32 195.77 466.45 197.71 472.5C199.65 478.55 203.12 487.55 205.43 492.5C207.73 497.45 211.59 504.43 214.01 508C216.44 511.58 220.24 516.47 222.46 518.88C224.68 521.29 228.97 524.93 232 526.96C235.03 528.99 239.53 531.45 242 532.42C244.47 533.39 249.65 534.44 253.5 534.74C257.35 535.04 263.43 534.76 267 534.12C270.57 533.48 274.31 532.4 275.29 531.73C276.99 530.56 276.96 530.28 274.73 526C273.05 522.77 271.14 520.86 267.95 519.24C265.5 517.99 257.43 514.66 250 511.83C242.57 509 235.92 506.2 235.21 505.6C234.49 504.99 233.93 503.94 233.96 503.25C233.98 502.56 234.56 501.83 235.25 501.62C235.94 501.41 242.13 502.3 249 503.6C255.88 504.89 261.73 505.74 262 505.49C262.27 505.24 261.18 503.11 259.56 500.77C257.94 498.42 252.92 492.68 248.4 488C243.88 483.32 238.35 478.15 236.12 476.5C233.89 474.85 231.87 473.05 231.62 472.5C231.37 471.95 231.47 470.89 231.84 470.14C232.25 469.29 233.44 468.98 235 469.31C236.38 469.61 241.29 472.7 245.92 476.17C250.54 479.65 255.38 483.29 256.67 484.25L259 486C258.61 476.82 258.83 473.78 259.24 473.33C259.65 472.87 260.66 472.84 261.49 473.25C262.32 473.66 263.91 477.26 265.02 481.25C266.12 485.24 267.82 490.52 268.79 493C269.75 495.48 273.23 500.97 276.52 505.2C279.81 509.44 282.84 512.93 283.25 512.95C283.66 512.98 284.22 511.99 284.49 510.75C284.76 509.51 284.29 504.68 283.45 500C282.46 494.46 280.64 488.97 278.22 484.25C276.17 480.26 272.25 474.38 269.5 471.18C266.75 467.98 262.25 463.52 259.5 461.26C256.75 458.99 250.9 454.96 246.5 452.3C242.1 449.63 233.78 445.59 228 443.31C222.22 441.02 215.25 438.46 212.5 437.6C209.75 436.75 203.68 435.14 199 434.03C194.32 432.92 189.95 432.01 189.28 432.01C188.45 432 188.25 433.05 188.63 435.25ZM374 468.52C369.32 469.79 361.9 472.17 357.5 473.81C353.1 475.45 346.57 478.45 343 480.48C339.43 482.5 334.14 485.92 331.25 488.08C328.36 490.24 324.3 494.14 322.22 496.75C320.15 499.36 317.14 504.2 315.55 507.5C313.16 512.44 312.59 515.05 312.32 522.25C312.14 527.06 312.34 531.01 312.75 531.02C313.16 531.03 314.56 528.89 315.85 526.27C317.14 523.65 320.15 518.58 322.53 515C324.91 511.42 328.97 506.02 331.56 503C334.15 499.98 339.47 494.7 343.38 491.27C347.3 487.85 351.29 485.04 352.25 485.02C353.21 485.01 354.15 485.56 354.33 486.25C354.51 486.94 352.34 492 349.51 497.5C346.68 503 342.86 511.33 341.01 516C339.17 520.67 336.21 529.23 334.43 535C332.65 540.77 331.37 545.84 331.6 546.25C331.82 546.66 334.14 547 336.75 546.99C339.72 546.98 343.46 546.05 346.75 544.49C349.64 543.12 354.28 539.86 357.08 537.25C359.87 534.64 363.89 529.8 366.02 526.5C368.15 523.2 371.7 516 373.91 510.5C376.12 505 379.04 496 380.39 490.5C381.75 485 383.34 477.69 383.93 474.25C384.52 470.81 384.77 467.55 384.5 467C384.23 466.45 383.66 466.05 383.25 466.11C382.84 466.17 378.68 467.25 374 468.52ZM478.16 474.12C476.97 474.6 474.09 475.12 471.75 475.27C469.41 475.43 466.94 475.88 466.25 476.27C465.27 476.85 465 494.45 465 559L465 641L404.5 641.5L404 656L475.09 656L480 651C479.97 494.59 480.23 476.26 481.23 475.36C482.1 474.57 482.16 474.06 481.41 473.73C480.81 473.46 479.35 473.64 478.16 474.12ZM311.5 491.67C308.75 492.51 306.27 493.37 306 493.58C305.73 493.79 306.74 495.78 308.25 497.98C309.76 500.19 311.34 502.01 311.75 502.02C312.16 502.03 314.41 499.33 316.75 496.02C320.72 490.4 320.85 490 318.75 490.07C317.51 490.11 314.25 490.83 311.5 491.67ZM336.94 504.75C334.61 507.36 330.35 513.1 327.46 517.5C324.57 521.9 320.64 528.88 318.72 533C316.81 537.13 314.11 543.88 312.72 548C311.34 552.13 309.68 558.42 309.04 562C308.09 567.3 308.14 569.88 309.36 576C310.18 580.13 311.11 585.41 311.42 587.75L312 592L321 592C321.01 585.41 321.67 577.65 322.47 570.5C323.27 563.35 324.87 553.45 326.03 548.5C327.18 543.55 329.65 534.77 331.5 529C333.36 523.23 336.28 515.13 338 511C339.72 506.88 341.55 502.94 342.06 502.25C342.62 501.5 342.63 500.8 342.09 500.5C341.59 500.22 339.27 502.13 336.94 504.75ZM271.23 507.88C271.1 508.49 271.45 509.9 272 511C272.73 512.47 272.67 513 271.75 512.98C271.06 512.98 272.08 514.66 274 516.73C275.93 518.81 278.49 522.52 279.7 525C280.9 527.48 283.09 532.42 284.56 536C286.04 539.58 288.35 545.88 289.71 550C291.06 554.13 293.3 562.67 294.67 569C296.65 578.11 297.24 584.04 297.5 597.5L297.84 614.5L309 615C309 604.15 308.31 596.39 307.46 590.75C306.61 585.11 304.77 576 303.38 570.5C301.98 565 299.36 556.67 297.55 552C295.75 547.33 292.46 539.9 290.24 535.5C288.02 531.1 283.54 523.45 280.28 518.5C277.01 513.55 273.7 508.88 272.9 508.13C271.94 507.21 271.39 507.12 271.23 507.88ZM221.15 530.75C220.12 532.81 218.25 537.65 217 541.5C215.75 545.35 214.22 553.43 213.61 559.46L212.5 570.42C207.85 571.34 205.94 571.93 205.25 572.31C204.43 572.76 208.42 577.02 216.75 584.6C228.51 595.3 229.6 596.06 230.79 594.35C231.5 593.33 235.2 586.88 239.01 580C242.82 573.13 245.95 566.94 245.97 566.25C245.99 565.33 244.74 565.17 241.25 565.66L236.5 566.32C237.66 556.77 239.05 550.96 240.34 547.25C241.62 543.54 242.97 539.83 243.34 539C243.84 537.89 242.78 537.01 239.26 535.63C236.64 534.6 232.14 532.23 229.25 530.38C226.36 528.52 223.78 527 223.52 527C223.25 527 222.19 528.69 221.15 530.75ZM368.29 532C366.63 534.48 362.74 538.86 359.64 541.75C354.34 546.69 354.07 547.16 355.1 549.75C355.7 551.26 356.43 557 356.71 562.5C357 568.02 356.74 574.96 356.14 578C355.54 581.02 354.82 584.51 354.53 585.75C354.1 587.57 354.62 588.25 357.25 589.32C359.04 590.05 363.76 591.97 367.73 593.57C371.71 595.18 375.19 596.27 375.45 596C375.72 595.73 376.87 592.35 378 588.5C379.13 584.65 380.36 577.14 380.72 571.81C381.16 565.43 380.93 559.46 380.06 554.31C379.34 550.02 377.75 543.58 376.53 540C375.3 536.42 373.63 532.15 372.8 530.5L371.3 527.5L368.29 532Z" />
		<path class="shp0" d="M981.5 550.64C979.98 552.09 978.79 554.11 978.86 555.14C978.94 556.16 979.52 558.01 980.16 559.25C980.8 560.49 982.04 562.05 982.91 562.72C984.13 563.65 1004.6 563.94 1071.11 563.97L1157.73 564C1162.02 559.58 1163.06 557.42 1163.04 555.75C1163.02 554.19 1161.92 551.92 1160.5 550.5L1158 548L984.27 548L981.5 550.64ZM981.51 592.65C980.19 594.1 979.08 596.13 979.05 597.15C979.02 598.17 979.52 600.01 980.16 601.25C980.8 602.49 982.04 604.05 982.91 604.72C984.13 605.65 1004.6 605.94 1071.11 605.97L1157.73 606C1161.87 601.74 1163.07 599.38 1163.07 598C1163.07 596.63 1162.15 594.26 1161.03 592.75L1159 590L983.91 590L981.51 592.65Z" />
		<path class="shp2" d="M240 610.59C235.32 614.2 231.39 617.57 231.25 618.08C231.11 618.58 234.31 622.26 238.36 626.25C242.41 630.24 249.27 635.62 253.61 638.21C257.95 640.8 265.77 644.39 271 646.19C280.31 649.41 280.84 649.47 297.5 649.43C313.41 649.4 315.01 649.22 322.5 646.64C326.9 645.12 332.52 642.75 335 641.37L339.5 638.87C345.07 645.56 346.93 647.05 347.23 646.5C347.52 645.95 348.08 643.92 348.46 642C348.85 640.08 350.49 632.65 352.11 625.5C353.73 618.35 354.93 612.45 354.78 612.39C354.63 612.32 346.96 611.99 337.75 611.64C328.54 611.29 321 611.34 321 611.75C321.01 612.16 321.91 613.96 323 615.75C324.1 617.54 324.77 619.45 324.5 620C324.23 620.55 320.29 622.19 315.75 623.66C309.22 625.76 305.42 626.33 297.5 626.4C289.64 626.46 285.9 625.98 280 624.14C275.88 622.85 269.57 620.07 266 617.97C262.43 615.87 257.25 611.86 254.5 609.06C251.75 606.26 249.28 603.99 249 604C248.72 604.01 244.68 606.98 240 610.59Z" />
		<path class="shp3" d="M117.08 694.22C115.75 694.94 113.6 697.1 112.3 699.01C110.49 701.69 109.95 703.83 109.97 708.25C109.99 711.62 110.72 715.51 111.75 717.64C112.71 719.64 114.74 721.89 116.25 722.64C117.76 723.39 120.58 724 122.5 724C124.42 724 127.35 723.33 129 722.5C130.65 721.67 132.45 720.1 133 719C133.55 717.9 134 716.33 134 715.5C134 714.53 133.03 714 131.25 714C129.36 713.99 128.19 714.69 127.5 716.25C126.7 718.04 125.69 718.5 122.53 718.5C119.3 718.5 118.32 718.03 117.29 716C116.6 714.63 116.01 711.25 115.98 708.5C115.95 704.98 116.53 702.69 117.97 700.75C119.24 699.03 120.93 698 122.5 698C123.88 698 125.67 698.67 126.5 699.5C127.32 700.33 128 701.56 128 702.25C128 702.97 129.27 703.5 131 703.5C133.19 703.5 134 703.03 134 701.75C134 700.79 132.76 698.61 131.25 696.92C129.15 694.56 127.44 693.72 124 693.37C121.34 693.1 118.51 693.45 117.08 694.22ZM144.99 694.52C143.62 695.32 141.41 697.66 140.09 699.73C138.01 703 137.74 704.42 138.09 710.36C138.48 716.93 138.67 717.37 142.5 720.64C145.53 723.23 147.41 724.05 150.25 724.03C152.31 724.01 155.16 723.44 156.58 722.75C158 722.06 159.87 720.38 160.74 719C161.62 717.63 162.54 713.58 162.8 710C163.14 705.23 162.83 702.63 161.63 700.25C160.74 698.46 158.54 696.1 156.75 695C154.96 693.91 152.15 693.02 150.5 693.04C148.85 693.06 146.37 693.73 144.99 694.52ZM239 694.7C237.04 695.71 234.73 698.04 233.75 700C232.75 702 232 705.76 232 708.75C232 711.64 232.68 715.35 233.5 717C234.32 718.65 236.24 720.92 237.75 722.03C239.4 723.25 242 724.06 244.25 724.03C246.31 724.02 249.35 723.33 251 722.5C252.65 721.67 254.61 719.76 255.37 718.25C256.12 716.74 257.03 713.92 257.4 712C257.76 710.08 257.61 706.48 257.06 704C256.48 701.42 254.87 698.31 253.28 696.72C251.5 694.93 249.06 693.75 246.5 693.41C243.76 693.06 241.39 693.46 239 694.7ZM265.93 695.29C263 697.25 262.5 698.15 262.5 701.5C262.5 704.97 262.96 705.73 266.5 708.07C268.7 709.53 271.85 711.17 273.5 711.72C275.15 712.26 276.95 713.41 277.5 714.27C278.21 715.38 278.07 716.29 277 717.46C276.18 718.35 274.04 719.07 272.25 719.04C269.79 719.01 268.69 718.38 267.75 716.47C266.86 714.67 265.71 713.95 263.75 713.97C261.99 713.99 261 714.54 261 715.5C261 716.33 261.45 717.9 262 719C262.55 720.1 264.35 721.67 266 722.5C267.65 723.33 270.8 724 273 724C275.2 724 278.24 723.39 279.75 722.64C281.26 721.89 282.84 720.54 283.25 719.64C283.66 718.74 284 716.88 284 715.5C284 714.13 282.99 711.86 281.75 710.47C280.51 709.09 277.3 707.17 274.61 706.22C271.92 705.28 269.22 703.75 268.61 702.84C267.76 701.57 267.85 700.79 269 699.54C269.82 698.65 271.51 697.93 272.75 697.96C273.99 697.98 275.9 698.9 277 700C278.1 701.1 280.13 702 281.5 702C282.88 702 284 701.55 284 701C284 700.45 283.55 699.1 283 698C282.45 696.9 280.43 695.33 278.5 694.5C276.57 693.67 273.73 693 272.18 693C270.63 693 267.82 694.03 265.93 695.29ZM523.99 694.52C522.62 695.32 520.41 697.66 519.09 699.73C517.01 702.99 516.74 704.42 517.09 710.32C517.47 716.71 517.74 717.36 521.25 720.57C524.21 723.28 525.84 724 529 724C531.2 724 534.24 723.39 535.75 722.64C537.26 721.89 539.29 719.64 540.25 717.64C541.29 715.47 542 711.68 542 708.25C541.99 704.26 541.38 701.5 540 699.25C538.9 697.46 536.65 695.33 535 694.5C533.35 693.67 530.76 693.02 529.25 693.04C527.74 693.06 525.37 693.73 523.99 694.52ZM923.25 694.51C921.46 695.33 919.38 697.24 918.62 698.75C917.86 700.26 916.93 702.85 916.56 704.5C916.18 706.15 916.2 709.75 916.59 712.5C917.13 716.32 918.09 718.27 920.65 720.75C923.52 723.54 924.71 724 929 724C933.08 724 934.54 723.49 936.92 721.25C938.53 719.74 940.1 717.49 940.42 716.25C940.93 714.29 940.62 714 938 714C935.87 714 934.57 714.72 933.5 716.5C932.49 718.18 931.1 719.01 929.25 719.03C927.74 719.05 925.75 718.26 924.84 717.28C923.93 716.3 923.09 714.83 922.97 714C922.86 713.17 922.82 710.14 922.88 707.25C922.97 703.44 923.55 701.45 925 700C926.1 698.9 927.9 698 929 698C930.1 698 932.35 699.35 934 701C935.65 702.65 937.34 703.99 937.75 703.98C938.16 703.98 939.11 703.64 939.85 703.23C940.95 702.63 940.97 702.04 939.94 700C939.25 698.63 937.74 696.7 936.59 695.72C935.44 694.74 934.27 693.94 934 693.93C933.73 693.93 931.92 693.72 930 693.48C928.06 693.23 925.05 693.69 923.25 694.51ZM951.25 694.51C949.08 695.5 947.36 697.42 946.06 700.25C944.62 703.42 944.23 706.03 944.54 710.5C944.77 713.8 945.64 717.51 946.48 718.75C947.31 719.99 949.24 721.76 950.75 722.68C952.85 723.96 954.68 724.2 958.5 723.68C961.75 723.25 964.25 722.22 965.65 720.75C966.83 719.51 968.07 717.49 968.4 716.25C968.92 714.28 968.62 714 966 714C963.87 714 962.57 714.72 961.5 716.5C960.48 718.21 959.13 719 957.25 718.98C955.74 718.98 953.93 718.64 953.23 718.23C952.54 717.83 951.54 715.7 951.01 713.5C950.49 711.3 950.4 707.48 950.82 705C951.39 701.56 952.21 700.15 954.29 699C956.71 697.66 957.3 697.67 959.75 699.04C961.26 699.88 962.35 701.01 962.16 701.54C961.98 702.07 962.43 702.83 963.16 703.23C963.9 703.64 965.51 703.98 966.75 703.98C967.99 703.99 969 703.77 969 703.5C969 703.23 968.33 701.42 967.5 699.5C966.67 697.58 965.1 695.55 964 695C962.9 694.45 960.31 693.78 958.25 693.51C956.04 693.22 953.17 693.63 951.25 694.51ZM1229.25 695C1227.46 696.1 1225.26 698.46 1224.37 700.25C1223.16 702.64 1222.86 705.22 1223.21 710C1223.47 713.58 1224.32 717.49 1225.09 718.7C1225.87 719.92 1227.74 721.61 1229.25 722.45C1230.76 723.3 1233.58 724 1235.5 724C1237.42 724 1240.36 723.21 1242.02 722.25C1243.68 721.29 1245.7 719.04 1246.52 717.25C1247.33 715.46 1248 711.41 1248 708.25C1247.99 704.26 1247.38 701.5 1246 699.25C1244.9 697.46 1242.65 695.33 1241 694.5C1239.35 693.67 1236.76 693 1235.25 693C1233.74 693.01 1231.04 693.91 1229.25 695ZM1344.25 695C1342.46 696.1 1340.55 697.9 1340 699C1339.45 700.1 1338.72 703.36 1338.38 706.25C1338.03 709.17 1338.24 713.05 1338.85 715C1339.45 716.92 1340.96 719.52 1342.22 720.78C1343.9 722.46 1346.07 723.19 1350.5 723.59C1355.45 724.03 1357.07 723.76 1359.75 722.06C1362.83 720.11 1363 719.68 1363 714L1363 708C1351.67 708 1351 708.22 1351 710C1351 711.45 1351.75 712.07 1353.75 712.25C1355.95 712.45 1356.55 713.05 1356.75 715.25C1356.96 717.51 1356.51 718.13 1354.25 718.71C1352.74 719.1 1350.83 719.28 1350 719.12C1349.17 718.95 1347.7 718.07 1346.73 717.16C1345.76 716.25 1344.7 713.7 1344.37 711.5C1344.04 709.3 1344.27 705.81 1344.88 703.75C1345.52 701.6 1346.96 699.53 1348.25 698.9C1349.49 698.29 1351.51 698.07 1352.75 698.4C1353.99 698.73 1355.45 699.9 1356 701C1356.67 702.33 1358 703 1360 703C1362.98 703 1362.99 702.98 1361.7 699.75C1360.91 697.78 1359.04 695.81 1356.95 694.75C1355.05 693.79 1352.15 693 1350.5 693.01C1348.85 693.01 1346.04 693.91 1344.25 695ZM1408.08 694.74C1406.66 695.42 1404.64 697.45 1403.59 699.24C1402.29 701.46 1401.68 704.42 1401.67 708.5C1401.66 712.86 1402.25 715.53 1403.83 718.25C1405.02 720.31 1406.9 722.45 1408 723C1409.1 723.55 1412.03 724 1414.5 724C1418.2 724 1419.61 723.42 1422.46 720.75C1424.36 718.96 1425.94 716.71 1425.96 715.75C1425.99 714.46 1425.21 714 1423 714C1421 714 1420 714.5 1420 715.5C1420 716.33 1419.1 717.45 1418 718C1416.9 718.55 1414.88 719 1413.5 719C1411.88 719 1410.38 718.05 1409.25 716.3C1408.02 714.4 1407.54 711.78 1407.63 707.55C1407.74 702.44 1408.13 701.22 1410.13 699.71C1411.43 698.72 1413.17 697.93 1414 697.95C1414.83 697.97 1416.51 698.66 1417.75 699.49C1418.99 700.32 1420 701.56 1420 702.25C1420 702.94 1421.35 703.61 1423 703.75C1424.65 703.89 1426 703.55 1426 703C1426 702.45 1425.55 700.88 1425 699.5C1424.45 698.13 1422.54 696.1 1420.75 695C1418.79 693.79 1416.14 693.09 1414.08 693.25C1412.19 693.39 1409.49 694.06 1408.08 694.74ZM1437.27 694.06C1436.04 694.47 1433.99 696.09 1432.72 697.66C1431.44 699.22 1430.06 702.52 1429.65 705C1429.23 707.48 1429.21 710.85 1429.59 712.5C1429.97 714.15 1430.89 716.74 1431.64 718.25C1432.39 719.76 1434.35 721.67 1436 722.5C1437.65 723.33 1440.69 724.02 1442.75 724.03C1445.18 724.06 1447.53 723.26 1449.43 721.78C1451.04 720.53 1452.95 718.04 1453.68 716.25C1454.4 714.46 1455 710.98 1455 708.5C1455 706.02 1454.51 702.76 1453.91 701.25C1453.31 699.74 1451.85 697.57 1450.66 696.44C1449.47 695.3 1447.15 694.1 1445.5 693.76C1443.85 693.42 1441.83 693.18 1441 693.23C1440.17 693.27 1438.5 693.64 1437.27 694.06ZM168.06 708.44C168.01 719.42 168.31 723.02 169.25 723.08C169.94 723.12 171.29 723.34 172.25 723.58C173.82 723.96 173.99 723.11 173.87 715.25C173.8 710.44 174.13 706.35 174.62 706.16C175.1 705.98 176.86 709.81 178.53 714.66C181.13 722.24 181.88 723.5 183.8 723.5C185.59 723.5 186.43 722.42 188.06 718C189.18 714.98 190.86 710.48 191.8 708L193.5 703.5L194.5 723.28L200 724L200 694L191.5 693.99C186.07 709.5 184.28 714.02 184 714.04C183.72 714.05 181.91 709.66 179.96 704.28L176.42 694.5L168.12 693.89L168.06 708.44ZM205.01 708.75L205.02 723.5C209.65 723.11 211.05 722.44 211.1 721.75C211.16 721.06 211.16 719.04 211.1 717.25C211.05 715.46 211.34 713.81 211.75 713.57C212.16 713.34 214.75 713.01 217.5 712.85C220.9 712.64 223.38 711.82 225.25 710.27C227.48 708.43 227.99 707.19 227.97 703.75C227.95 701.41 227.39 698.79 226.72 697.91C226.05 697.04 224.49 695.8 223.25 695.16C222.01 694.52 217.4 694 213 694L205 694L205.01 708.75ZM286.17 696.25C286.45 698.18 287.18 698.54 291.25 698.75L296 699L296 723L301.98 723.5L302 699C310.63 699 311 698.8 311 696.5L311 694C285.94 694 285.84 694.02 286.17 696.25ZM319.59 697.25C318.86 699.04 316.81 704.55 315.04 709.5C313.27 714.45 311.42 719.29 310.91 720.25C310.41 721.21 310.11 722.16 310.25 722.36C310.39 722.56 311.74 723.01 313.25 723.36C315.66 723.92 316.12 723.63 317 721C317.96 718.11 318.22 718 324 718C329.75 718 330.02 718.11 330.52 720.75C330.97 723.1 331.54 723.5 334.41 723.5L337.77 723.5C333.26 711.1 330.72 704.46 329.22 700.75C326.78 694.69 326.22 694.01 323.71 694C321.5 694 320.64 694.68 319.59 697.25ZM341 708.75L341 723.5C353.01 723.25 357.06 723.14 357.75 723.09C358.44 723.04 359.9 722.1 361 721C362.33 719.67 363 717.67 363 715C363 712.17 362.42 710.56 361 709.5C359.34 708.26 359.23 707.79 360.34 706.75C361.08 706.06 361.98 704.49 362.34 703.25C362.7 702.01 362.48 699.99 361.84 698.75C361.2 697.51 359.96 695.95 359.09 695.28C358.14 694.56 354.15 694.05 349.25 694.03L341 694L341 708.75ZM368 708.5L368 723C381.21 723.39 385.49 723.39 386.02 723.25C386.56 723.11 387 722.1 387 721C387 719.21 386.33 719 380.5 719L374 719L374 694L368 694L368 708.5ZM391 708.75L391 723.5C410.25 723.02 411 722.85 411 721C411 719.19 410.33 719 404 719L397 719L397 710.5C408.8 710.99 409 710.92 409 708.5C409 706.11 408.73 706 403 706L397 706L397 699C410.8 699 411 698.93 411 696.5L411 694L391 694L391 708.75ZM431.56 701.2C430.05 705.21 427.5 711.99 425.91 716.25L423 724C429.27 723.54 429.95 723.03 430.42 720.75C430.98 718.12 431.26 718 437 718C442.78 718 443.04 718.11 444 721C444.87 723.6 445.36 723.92 447.75 723.42C449.26 723.1 450.59 722.76 450.71 722.67C450.83 722.58 448.56 716.2 445.68 708.5C440.6 694.95 440.33 694.49 437.37 694.2C434.41 693.9 434.21 694.15 431.56 701.2ZM450 696.5C450 698.8 450.37 699 454.5 699L459 699C459.01 723.31 459.05 723.5 461.26 723.38C462.49 723.31 463.84 723.2 464.25 723.13C464.66 723.06 465 717.6 465 711L465 699C473.85 698.53 474.53 698.19 474.75 696.25C475 694.02 474.87 694 462.5 694L450 694L450 696.5ZM487 708.5C487 719.39 487.31 723.02 488.25 723.07C488.94 723.12 490.51 723.34 491.75 723.57C493.9 723.98 494 723.7 494 717.5L494 711L506 711C506.49 723.16 506.63 723.48 509 723.49L511.5 723.5L511.91 694C506.01 694 506 694.02 506 700L506 706L494 706L494 694L487 694L487 708.5ZM547 708.75L547 723.5L553 724C552.8 710.44 553.07 706.27 553.48 706C553.89 705.73 555.64 709.5 557.36 714.4C559.5 720.47 561.06 723.41 562.25 723.65C563.25 723.85 564.6 723.04 565.41 721.75C566.19 720.51 567.42 717.48 568.14 715C568.85 712.52 570.23 708.92 571.18 707L572.92 703.5L573 723L578.8 723.5L578.8 694L570.5 693.97C565.08 709.49 563.16 714 562.75 714C562.34 714 561.27 711.64 560.38 708.75C559.48 705.86 557.8 701.34 556.63 698.71C554.63 694.2 554.28 693.92 550.75 693.96L547 694L547 708.75ZM584 708.75L584 723.5C597.56 723.16 602.29 723.05 603.25 723.03C604.32 723.01 605 722.23 605 721C605 719.21 604.25 718.97 597.75 718.75L590.5 718.5L590 711C601.73 711 602 710.89 602 708.5C602 706.15 601.65 705.98 596.25 705.75L590.5 705.5L589.9 698.5C603.87 699 604 698.95 604 696.5L604 694L584 694L584 708.75ZM892.24 708.25C889.37 716.09 887.13 722.58 887.26 722.67C887.39 722.76 888.63 723.14 890 723.5C892.13 724.07 892.68 723.72 893.75 721.09C894.93 718.16 895.29 718 900.5 718C905.59 718 906.08 718.21 907.01 720.75C907.81 722.95 908.72 723.55 911.51 723.75L915 724C912.1 716.64 909.52 709.87 907.38 704.22C903.63 694.29 903.4 693.94 900.48 693.97C897.51 694 897.37 694.24 892.24 708.25ZM973 708.75L973 723.5C992.7 723.5 993 723.43 993 721.25C993 719.13 992.59 719 986 719L979 719L979 711C990.73 711 991 710.89 991 708.5C991 706.11 990.73 706 985 706L979 706L979 699C992.8 699 993 698.93 993 696.5L993 694L973 694L973 708.75ZM997 708.75L996.99 723.5L1003 724L1003 713C1014.74 712.32 1015.77 711.92 1017.75 709.39C1019.01 707.75 1019.99 705.09 1020 703.25C1020 700.97 1019.11 699.11 1017 697C1014.14 694.14 1013.61 694 1005.5 694L997 694L997 708.75ZM1023 696.5C1023 698.8 1023.37 699 1027.5 699L1032 699L1032.5 723.28L1038 724L1038 699C1046.63 699 1047 698.8 1047 696.5L1047 694L1023 694L1023 696.5ZM1055.64 697.47C1054.94 699.38 1054.29 701.51 1054.2 702.22C1054.11 702.92 1053.64 703.95 1053.15 704.5C1052.67 705.05 1050.86 709.44 1049.14 714.25C1046.61 721.3 1046.29 723 1047.5 723C1048.33 723 1049.67 723.23 1050.5 723.5C1051.5 723.83 1052.33 723 1053 721C1053.96 718.11 1054.22 718 1060 718C1065.75 718 1066.02 718.11 1066.53 720.75C1066.98 723.12 1067.53 723.5 1070.54 723.5C1073.23 723.5 1073.89 723.16 1073.42 722C1073.09 721.17 1070.88 715.33 1068.5 709C1066.12 702.67 1063.91 696.71 1063.59 695.75C1063.2 694.6 1061.96 694 1059.96 694C1057.4 694 1056.72 694.55 1055.64 697.47ZM1077 708.75L1077 723.5C1088.24 723.31 1092.29 723.2 1093.25 723.13C1094.21 723.06 1095.9 722.1 1097 721C1098.33 719.67 1099 717.67 1099 715C1099 712.12 1098.45 710.65 1097.04 709.75C1095.19 708.57 1095.18 708.4 1096.79 706.65C1097.73 705.62 1098.5 703.22 1098.5 701.31C1098.5 698.78 1097.81 697.29 1096 695.87C1093.97 694.28 1091.96 693.92 1085.25 693.96L1077 694L1077 708.75ZM1104 708.5C1104 719.41 1104.31 723.01 1105.25 723.05C1105.94 723.08 1109.88 723.14 1114 723.19C1118.13 723.24 1122.06 722.99 1122.75 722.64C1123.44 722.29 1123.78 721.33 1123.5 720.5C1123.12 719.37 1121.39 719 1116.5 719L1110 719L1110 694L1104 694L1104 708.5ZM1127 708.75L1127 723.5C1146.25 723.02 1147 722.85 1147 721C1147 719.19 1146.33 719 1140 719L1133 719L1133 710.5C1144.8 710.99 1145 710.92 1145 708.5C1145 706.11 1144.73 706 1139 706L1133 706L1133 699C1146.8 699 1147 698.93 1147 696.5L1147 694L1127 694L1127 708.75ZM1167.56 701.2C1166.05 705.21 1163.56 711.88 1162.02 716L1159.23 723.5C1165.46 723.5 1166.03 723.1 1166.48 720.75C1166.96 718.21 1167.4 717.98 1172.18 717.75C1175.28 717.6 1177.89 718 1178.68 718.75C1179.41 719.44 1179.99 720.56 1179.98 721.25C1179.96 721.94 1181.43 722.83 1183.23 723.24C1185.03 723.64 1186.61 723.76 1186.75 723.49C1186.89 723.22 1184.62 716.59 1181.72 708.75C1176.59 694.92 1176.35 694.49 1173.37 694.2C1170.41 693.9 1170.21 694.15 1167.56 701.2ZM1186 696.5C1186 698.8 1186.37 699 1190.5 699L1195 699C1195 722.9 1195.15 723.96 1196.75 723.58C1197.71 723.34 1199.06 723.12 1199.75 723.08C1200.68 723.02 1201 719.89 1201 711L1201 699C1209.85 698.53 1210.53 698.19 1210.75 696.25C1211 694.02 1210.87 694 1198.5 694L1186 694L1186 696.5ZM1253 708.75L1253 723.5C1258.94 723.5 1258.99 723.41 1258.99 718.25C1259 713.2 1259.1 713 1261.75 712.97C1264.06 712.95 1264.9 713.75 1267 717.94C1269.03 721.98 1270.07 723 1272.5 723.34C1274.15 723.57 1275.63 723.7 1275.79 723.63C1275.95 723.56 1274.74 720.8 1273.09 717.5L1270.1 711.5C1274.22 707.26 1274.97 705.35 1274.98 702.75C1274.99 700.07 1274.29 698.29 1272.5 696.5C1270.23 694.23 1269.23 694 1261.5 694L1253 694L1253 708.75ZM1287.41 697.25C1287.01 699.04 1286.08 701.63 1285.35 703C1284.61 704.38 1284.02 706.17 1284.02 707C1284.03 707.83 1283.65 708.95 1283.18 709.5C1282.71 710.05 1281.35 713.31 1280.16 716.75C1278.97 720.19 1278.11 723.17 1278.25 723.38C1278.39 723.59 1279.95 723.48 1281.73 723.13C1283.97 722.69 1285.11 721.81 1285.48 720.25C1285.95 718.22 1286.6 718 1292 718C1297.75 718 1298.02 718.11 1298.53 720.75C1298.97 723.05 1299.62 723.54 1302.53 723.75L1306 724C1301.5 711.99 1299.02 705.24 1297.59 701.25C1295.06 694.16 1294.92 694 1291.57 694C1288.51 694 1288.05 694.36 1287.41 697.25ZM1309 708.75L1309 723.5L1315 723.5C1314.91 705.36 1315.05 704.64 1316.5 706C1317.37 706.83 1318.07 707.84 1318.04 708.25C1318.02 708.66 1319.89 712.04 1322.21 715.75C1324.52 719.46 1326.88 722.78 1327.46 723.13C1328.03 723.47 1329.51 723.59 1330.75 723.38C1332.96 723.01 1333 722.76 1333 708.5L1333 694L1326.84 694L1326.5 712.5C1319.53 701.21 1317.05 697.05 1316.5 695.96C1315.81 694.61 1314.48 693.99 1312.25 694L1309 694L1309 708.75ZM1368 708.5L1368 723C1380.01 723.02 1384.51 723.25 1385.75 723.51C1387.61 723.92 1388 723.57 1388 721.5C1388 719.07 1387.8 719 1381 719L1374 719L1374 711C1385.73 711 1386 710.89 1386 708.5C1386 706.11 1385.73 706 1380 706L1374 706L1374 699C1387.8 699 1388 698.93 1388 696.5L1388 694L1368 694L1368 708.5ZM1459.14 706.11L1459.5 718.22C1465.7 723.36 1467.53 724.03 1471 724.05C1473.99 724.06 1476.43 723.38 1478.25 722.03C1479.81 720.88 1481.43 718.38 1481.99 716.25C1482.54 714.19 1482.99 708.34 1482.99 703.25L1483 694L1476 694C1475.98 711.44 1475.64 716.99 1475.23 717.59C1474.83 718.19 1473.6 718.94 1472.5 719.25C1471.4 719.57 1469.49 719.19 1468.25 718.42C1466.13 717.08 1466 716.34 1466 705.5L1466 694L1458.78 694L1459.14 706.11ZM1488 708.5C1488 720.72 1488.24 723 1489.5 723C1490.33 723 1491.56 723.11 1492.25 723.25C1493.15 723.44 1493.64 720.87 1494 714L1494.5 704.5C1501.85 716.9 1504.42 721.17 1504.96 722C1505.5 722.83 1507.3 723.5 1508.97 723.5L1511.99 723.5L1512 694L1506 694L1505.99 712.5C1502.18 707.85 1501.06 706.16 1501.04 705.75C1501.02 705.34 1499.42 702.52 1497.5 699.5C1494.53 694.83 1493.55 694 1491 694L1488 694L1488 708.5ZM1515.17 696.25C1515.45 698.13 1516.2 698.54 1519.75 698.75L1524 699C1524 719.89 1524.32 723.02 1525.25 723.08C1525.94 723.13 1527.51 723.24 1528.74 723.33C1530.96 723.5 1530.99 723.33 1530.99 711.25L1531 699C1539.63 699 1540 698.8 1540 696.5L1540 694C1514.94 694 1514.84 694.02 1515.17 696.25ZM1541.97 694.25C1541.95 694.39 1543.98 698.66 1546.47 703.75C1550.17 711.31 1551 714 1551 718.5C1551 723.92 1551.04 723.99 1553.75 723.64C1556.28 723.31 1556.54 722.86 1557.05 717.89C1557.43 714.24 1559.12 709.52 1562.3 703.25L1567 694C1560.69 693.93 1560.32 694.33 1557.42 700.71L1554.34 707.5C1548.29 694.62 1547.72 694 1545 694C1543.35 694 1541.99 694.11 1541.97 694.25Z" />
		<path class="shp0" d="M146.5 700.45C144.62 702.37 144.08 704.01 144.05 707.95C144.02 710.73 144.56 714.14 145.25 715.54C145.94 716.94 147.4 718.33 148.5 718.64C149.6 718.94 151.51 718.92 152.75 718.6C153.99 718.27 155.45 716.88 156 715.5C156.55 714.13 157 710.75 157 708C157 704 156.5 702.5 154.5 700.5C153.13 699.13 151.3 698 150.45 698C149.6 698 147.82 699.1 146.5 700.45ZM240.87 699.91C238.82 701.57 238.5 702.69 238.5 708.31C238.5 713.41 238.93 715.24 240.5 716.93C241.63 718.13 243.7 719.05 245.25 719.03C246.96 719.01 248.57 718.15 249.51 716.75C250.38 715.44 251.03 712.2 251.04 709C251.06 705.01 250.51 702.75 249.03 700.75C247.92 699.24 246.16 698 245.12 698C244.09 698 242.18 698.86 240.87 699.91ZM525.5 700.45C523.62 702.37 523.08 704.01 523.05 707.95C523.02 710.73 523.56 714.14 524.25 715.54C524.94 716.94 526.4 718.33 527.5 718.64C528.6 718.94 530.4 718.95 531.5 718.66C532.6 718.37 534.06 716.98 534.75 715.57C535.44 714.16 536 710.75 536 708C536 704 535.5 702.5 533.5 700.5C532.13 699.13 530.3 698 529.45 698C528.6 698 526.82 699.1 525.5 700.45ZM1231.5 700.45C1229.62 702.37 1229.08 704.01 1229.05 707.95C1229.02 710.73 1229.56 714.14 1230.25 715.54C1230.94 716.94 1232.4 718.33 1233.5 718.64C1234.6 718.94 1236.4 718.95 1237.5 718.66C1238.6 718.37 1240.06 716.98 1240.75 715.57C1241.44 714.16 1242 710.75 1242 708C1242 704 1241.5 702.5 1239.5 700.5C1238.13 699.13 1236.3 698 1235.45 698C1234.6 698 1232.83 699.1 1231.5 700.45ZM1438 700C1436.43 701.57 1436 703.34 1435.99 708.25C1435.99 712.17 1436.55 715.34 1437.49 716.75C1438.43 718.15 1440.04 719.01 1441.75 719.03C1443.3 719.05 1445.37 718.13 1446.5 716.93C1448.07 715.24 1448.5 713.41 1448.5 708.31C1448.5 702.58 1448.21 701.6 1446 699.87C1444.63 698.79 1442.71 697.93 1441.75 697.96C1440.79 697.98 1439.1 698.9 1438 700ZM211.43 703.25C211.56 707.47 211.59 707.5 215.53 707.77C217.73 707.91 220.08 707.47 220.79 706.77C221.51 706.07 222.08 704.6 222.06 703.5C222.05 702.4 221.46 700.93 220.77 700.23C220.07 699.54 217.65 698.97 215.4 698.98L211.3 699L211.43 703.25ZM347.06 702.44L347 706C355.25 705.51 355.5 705.32 355.5 702.5C355.5 699.69 355.23 699.48 351.31 699.19C347.13 698.89 347.12 698.89 347.06 702.44ZM1003 703.5L1003 708C1011.17 708 1012.2 707.59 1013.11 705.75C1013.91 704.11 1013.91 702.89 1013.11 701.25C1012.2 699.41 1011.17 699 1007.5 699L1003 699L1003 703.5ZM1083.06 702.44L1083 706C1091.25 705.51 1091.5 705.32 1091.5 702.5C1091.5 699.69 1091.23 699.48 1087.31 699.19C1083.13 698.89 1083.12 698.89 1083.06 702.44ZM1259 703.5C1259 707.83 1259.11 708 1262 708C1263.65 708 1265.9 707.55 1267 707C1268.1 706.45 1269 705.1 1269 704C1269 702.9 1268.78 701.33 1268.5 700.5C1268.15 699.46 1266.61 699 1263.5 699L1259 699L1259 703.5ZM322.13 706.25C321.37 708.59 320.59 711.06 320.38 711.75C320.13 712.58 321.16 713 323.5 713C325.62 713 327.01 712.51 327.02 711.75C327.03 711.06 326.51 708.92 325.88 707C325.25 705.08 324.45 703.16 324.11 702.75C323.78 702.34 322.88 703.91 322.13 706.25ZM436.04 704.5C435.39 706.15 434.55 708.75 434.18 710.27C433.53 712.93 433.65 713.05 437.25 713.02C440.66 713 440.94 712.8 440.36 710.75C440 709.51 439.15 706.92 438.47 705L437.22 701.5L436.04 704.5ZM1057.83 706.76C1056.91 709.37 1056.46 711.85 1056.83 712.28C1057.2 712.71 1058.74 713.04 1060.25 713.03C1061.76 713.01 1063.01 712.44 1063.02 711.75C1063.03 711.06 1062.51 708.92 1061.88 707C1061.25 705.08 1060.45 703.17 1060.11 702.76C1059.78 702.36 1058.75 704.16 1057.83 706.76ZM1172.04 704.5C1171.39 706.15 1170.55 708.75 1170.18 710.27C1169.53 712.93 1169.65 713.05 1173.25 713.02C1176.66 713 1176.94 712.8 1176.36 710.75C1176 709.51 1175.15 706.92 1174.47 705L1173.22 701.5L1172.04 704.5ZM898.92 705.75C898.35 707.26 897.69 709.51 897.44 710.75C897.05 712.74 897.41 713 900.5 713C903.59 713 903.95 712.74 903.56 710.75C903.31 709.51 902.64 707.26 902.06 705.75C901.48 704.24 900.77 703 900.48 703C900.19 703 899.49 704.24 898.92 705.75ZM1289.56 707.75C1288.69 710.36 1287.98 712.61 1287.99 712.75C1287.99 712.89 1289.58 713 1291.5 713C1293.62 713 1295.01 712.51 1295.02 711.75C1295.04 711.06 1294.47 708.81 1293.76 706.75C1293.05 704.69 1292.17 703 1291.81 703C1291.45 703 1290.44 705.14 1289.56 707.75ZM347.06 714.95C347 718.86 347.11 719 350.25 719.02C352.04 719.03 354.32 718.46 355.33 717.77C356.48 716.97 357.04 715.58 356.83 714C356.54 711.79 355.96 711.46 351.81 711.2L347.11 710.89L347.06 714.95ZM1083.06 714.95C1083 718.97 1083.03 719 1086.75 719.04C1088.81 719.07 1091.08 718.51 1091.78 717.79C1092.49 717.08 1092.94 715.38 1092.78 714C1092.53 711.78 1091.97 711.47 1087.81 711.2L1083.11 710.89L1083.06 714.95Z" />
		<path class="shp2" d="M371.5 723.73C373.7 723.94 377.52 723.94 380 723.73C382.48 723.52 380.68 723.35 376 723.35C371.32 723.35 369.3 723.52 371.5 723.73ZM397 723.74C400.02 723.94 404.52 723.94 407 723.73C409.48 723.53 407 723.36 401.5 723.37C396 723.37 393.98 723.54 397 723.74ZM979.5 723.74C982.25 723.94 986.3 723.94 988.5 723.73C990.7 723.52 988.45 723.35 983.5 723.35C978.55 723.36 976.75 723.53 979.5 723.74ZM1109.5 723.72C1111.15 723.94 1114.3 723.94 1116.5 723.73C1118.7 723.51 1117.35 723.33 1113.5 723.33C1109.65 723.32 1107.85 723.5 1109.5 723.72ZM1133 723.74C1136.03 723.94 1140.53 723.94 1143 723.73C1145.47 723.53 1143 723.36 1137.5 723.37C1132 723.37 1129.97 723.54 1133 723.74ZM1372.5 723.74C1375.25 723.94 1379.3 723.94 1381.5 723.73C1383.7 723.52 1381.45 723.35 1376.5 723.35C1371.55 723.36 1369.75 723.53 1372.5 723.74Z" />
		<path class="shp3" d="M895.07 745.84C892.82 746.93 891.03 748.87 889.84 751.5C888.85 753.7 888.03 757.41 888.02 759.75C888.01 762.09 888.6 765.46 889.32 767.25C890.05 769.04 891.96 771.53 893.57 772.78C895.71 774.45 897.79 775.06 901.25 775.03C904.82 775.01 906.75 774.38 909 772.5C910.85 770.96 912.41 768.37 913.07 765.75C913.66 763.41 913.95 759.7 913.71 757.5C913.48 755.3 912.44 752.03 911.39 750.23C910.35 748.44 908.15 746.34 906.5 745.58C904.85 744.82 902.38 744.2 901 744.19C899.63 744.19 896.96 744.93 895.07 745.84ZM951.96 745.84C949.94 746.81 947.77 748.96 946.75 751C945.75 753 945 756.76 945 759.75C945 762.64 945.67 766.46 946.48 768.25C947.3 770.04 949.32 772.29 950.98 773.25C952.64 774.21 956.02 775 958.5 775C960.98 775 964.24 774.39 965.75 773.64C967.26 772.89 968.74 771.66 969.03 770.89C969.32 770.13 969.54 767.25 969.53 764.5L969.5 759.5C958.22 759.01 958 759.09 958 761.5C958 763.5 958.5 764 960.5 764C962.62 764 962.96 764.42 962.75 766.75C962.53 769.16 962.04 769.53 958.75 769.75C956.1 769.93 954.49 769.44 953.25 768.09C952.21 766.95 951.39 764.22 951.22 761.34C951.07 758.68 951.41 755.04 951.97 753.25C952.77 750.74 953.68 749.89 956 749.5C957.65 749.23 959.9 749.45 961 750C962.1 750.55 963 751.67 963 752.5C963 753.5 964 754 966 754C968.18 754 969.01 753.52 969.03 752.25C969.05 751.29 967.93 749.26 966.53 747.75C965.14 746.24 963.44 744.94 962.75 744.86C962.06 744.78 960.13 744.59 958.46 744.45C956.78 744.3 953.86 744.93 951.96 745.84ZM1052 745.75C1050 746.75 1047.75 749 1046.75 751C1045.75 753 1045 756.76 1045 759.75C1045 762.64 1045.67 766.58 1046.5 768.5C1047.39 770.59 1049.31 772.66 1051.25 773.63C1053.59 774.8 1055.9 775.09 1059.5 774.66C1063.11 774.23 1065.13 773.35 1066.75 771.53C1067.99 770.14 1069 768.1 1069 767C1069 765.44 1068.33 765 1066 765C1063.83 765 1062.86 765.56 1062.5 767C1062.22 768.1 1060.99 769.39 1059.75 769.87C1058.51 770.35 1056.6 770.41 1055.5 770.02C1054.4 769.62 1052.93 768.21 1052.23 766.9C1051.5 765.52 1051.07 761.99 1051.23 758.61C1051.46 753.53 1051.88 752.42 1054.24 750.61C1056.61 748.78 1057.31 748.67 1059.49 749.75C1060.87 750.44 1062.22 751.9 1062.5 753C1062.86 754.44 1063.83 755 1066 755C1068.75 755 1068.95 754.77 1068.42 752.25C1068.1 750.74 1067.31 748.87 1066.67 748.1C1066.03 747.32 1064.04 746.08 1062.25 745.35C1060.46 744.61 1058.21 744 1057.25 744C1056.29 744 1053.92 744.79 1052 745.75ZM1154.25 745.54C1152.46 746.34 1150.55 747.9 1150 749C1149.45 750.1 1148.99 752.01 1148.97 753.25C1148.96 754.49 1149.97 756.47 1151.22 757.67C1152.48 758.86 1156.09 761 1159.25 762.42C1164 764.55 1164.96 765.39 1164.75 767.25C1164.54 769.14 1163.83 769.54 1160.25 769.75C1156.58 769.97 1155.83 769.66 1154.75 767.47C1153.86 765.67 1152.71 764.95 1150.75 764.97C1148.82 764.99 1147.99 765.52 1147.97 766.75C1147.95 767.71 1148.74 769.44 1149.72 770.59C1150.7 771.74 1152.51 773.21 1153.75 773.84C1154.99 774.48 1158.23 775 1160.95 775C1165.04 775 1166.38 774.52 1168.58 772.25C1170.8 769.97 1171.16 768.9 1170.66 766C1170.34 764.08 1168.93 761.49 1167.53 760.25C1166.14 759.01 1164.21 758 1163.25 758C1162.29 757.99 1160.04 757.09 1158.25 756C1156.46 754.9 1155 753.33 1155 752.5C1155 751.67 1156.01 750.5 1157.25 749.9C1158.49 749.29 1160.51 749.07 1161.75 749.4C1162.99 749.73 1164.22 750.9 1164.5 752C1164.86 753.44 1165.83 754 1168 754C1170 754 1171 753.5 1171 752.5C1171 751.67 1170.55 750.1 1170 749C1169.45 747.9 1167.42 746.33 1165.5 745.5C1163.58 744.67 1160.99 744.02 1159.75 744.04C1158.51 744.06 1156.04 744.74 1154.25 745.54ZM1298.27 744.99C1297.04 745.44 1294.9 747.2 1293.52 748.91C1292.13 750.61 1290.93 753.01 1290.84 754.25C1290.76 755.49 1290.59 757.85 1290.47 759.5C1290.35 761.15 1290.65 764.19 1291.13 766.25C1291.64 768.46 1293.23 771.03 1295 772.5C1297.25 774.38 1299.18 775.01 1302.75 775.03C1306.21 775.06 1308.29 774.45 1310.43 772.78C1312.04 771.53 1313.95 769.04 1314.68 767.25C1315.4 765.46 1316 762.2 1316 760C1316 757.8 1315.35 754.31 1314.55 752.25C1313.75 750.19 1311.84 747.65 1310.3 746.6C1308.76 745.56 1305.92 744.59 1304 744.44C1302.08 744.29 1299.5 744.54 1298.27 744.99ZM1365.45 745.5C1363.77 746.26 1361.41 748.37 1360.2 750.19C1358.58 752.63 1358.01 755.01 1358 759.25C1358 762.68 1358.71 766.47 1359.75 768.64C1360.71 770.64 1362.74 772.89 1364.25 773.64C1365.76 774.39 1368.58 775 1370.5 775C1372.42 775 1375.35 774.33 1377 773.5C1378.65 772.67 1380.67 770.65 1381.5 769C1382.33 767.33 1383 763.33 1383 760C1383 756.7 1382.38 752.76 1381.63 751.25C1380.88 749.74 1379.08 747.71 1377.63 746.75C1376.18 745.79 1373.54 744.8 1371.75 744.56C1369.96 744.32 1367.13 744.74 1365.45 745.5ZM918 760L918 775L925 775C925 764.48 925.19 764 927.25 763.96C928.97 763.92 930.21 765.22 932.5 769.45C935.02 774.1 935.94 775 938.25 775C939.76 775 941.01 774.66 941.01 774.25C941.02 773.84 939.9 771.14 938.51 768.25L936 763C939.94 758.27 941 755.73 941 754C941 752 940 750 938 748C935.14 745.14 934.61 745 926.5 745L918 745L918 760ZM980.56 752.2C979.05 756.21 976.5 762.99 974.91 767.25L972 775C978.04 775.04 978.61 774.62 979.25 772.02C979.98 769.08 980.16 769 986 769C991.78 769 992.04 769.11 993 772C993.81 774.44 994.56 775 997 775C999 775 1000 774.5 1000 773.5C1000 772.67 999.55 771.77 999 771.5C998.45 771.23 998 770.21 997.99 769.25C997.99 768.29 997.3 766.15 996.46 764.5C995.62 762.85 994.95 761.16 994.97 760.75C994.99 760.34 994.48 758.76 993.84 757.25C993.2 755.74 991.96 752.48 991.09 750C989.72 746.11 989.08 745.46 986.4 745.2C983.4 744.9 983.22 745.13 980.56 752.2ZM1003.09 760L1003 775L1009 775C1009 760.67 1009.41 757 1010 757C1010.55 757 1013.36 761.04 1016.25 765.97C1021.14 774.33 1021.72 774.95 1024.75 774.97L1028 775L1028 745L1022 745C1022 758.17 1021.66 762.18 1021.25 762.41C1020.84 762.63 1018.02 758.79 1015 753.87C1009.93 745.61 1009.25 744.92 1006.34 744.96L1003.19 745L1003.09 760ZM1034 760L1034 775L1040 775L1040 745L1034 745L1034 760ZM1085.17 757.75C1086.72 764.76 1088.21 771.51 1088.49 772.75C1088.91 774.58 1089.59 774.95 1092.21 774.75C1095.39 774.5 1095.45 774.4 1097.46 765.81C1098.58 761.03 1099.72 756.89 1100 756.61C1100.28 756.33 1101.51 760.36 1102.75 765.55L1105 775L1111.45 774.5C1115.62 755.9 1117.09 749.26 1117.41 747.75C1117.95 745.23 1117.75 745 1115 745C1112.98 745 1111.86 745.57 1111.56 746.75C1111.31 747.71 1110.58 751.42 1109.92 755C1109.27 758.58 1108.38 761.95 1107.94 762.5C1107.47 763.1 1106.96 762.7 1106.67 761.5C1106.4 760.4 1105.47 756.24 1104.59 752.25C1103.09 745.4 1102.85 745 1100.25 744.98C1097.62 744.96 1097.42 745.32 1095.63 753.23C1094.61 757.78 1093.41 762.17 1092.98 763C1092.46 764 1091.82 762.5 1091.05 758.5C1090.42 755.2 1089.61 751.15 1089.26 749.5C1088.91 747.85 1088.7 746.16 1088.81 745.75C1088.91 745.34 1087.51 745 1085.68 745L1082.36 745L1085.17 757.75ZM1126.13 752.94C1124.41 757.38 1123.01 761.34 1123.02 761.75C1123.03 762.16 1122.37 763.85 1121.56 765.5C1120.74 767.15 1119.72 769.97 1119.29 771.77C1118.52 774.96 1118.58 775.05 1121.75 775.02C1124.58 775 1125.07 774.61 1125.5 772C1125.99 769.06 1126.11 769 1132 769C1137.78 769 1138.04 769.11 1139 772C1139.81 774.44 1140.56 775 1143 775C1145.63 775 1145.92 774.73 1145.36 772.75C1145 771.51 1142.6 764.88 1140 758C1135.5 746.05 1135.16 745.49 1132.28 745.19C1129.36 744.9 1129.16 745.16 1126.13 752.94ZM1174 747.5C1174 749.83 1174.3 749.98 1178.5 749.75L1183 749.5L1183 775L1188.5 774.5L1189 750C1197.63 750 1198 749.8 1198 747.5L1198 745L1174 745L1174 747.5ZM1202 760L1202 775L1222 775C1222 770.07 1221.8 770 1215 770L1208 770L1208 761C1219.62 761.48 1219.99 761.36 1220 759.25C1220 757.17 1219.56 757 1214 757L1208 757L1208 750C1221.8 750 1222 749.93 1222 747.5L1222 745L1202 745L1202 760ZM1236 760L1236 775C1245.3 775 1249.58 774.33 1251.5 773.5C1253.42 772.67 1255.92 770.54 1257.05 768.75C1258.71 766.13 1259.05 764.19 1258.8 758.68C1258.52 752.23 1258.29 751.67 1254.75 748.43C1251.18 745.16 1250.64 745 1243.5 745L1236 745L1236 760ZM1264 760L1264 775C1269.97 775 1270 774.94 1270 769.5C1270 764.17 1270.09 764 1272.75 763.99C1275.09 763.97 1275.91 764.79 1278.25 769.49C1280.67 774.33 1281.36 775 1284 775C1285.65 775 1287 774.77 1287 774.5C1287 774.23 1285.7 771.41 1284.1 768.25L1281.2 762.5C1285.29 758.67 1286.01 756.89 1286.03 754.25C1286.06 751.6 1285.33 749.7 1283.53 747.75C1281.15 745.16 1280.49 745 1272.5 745L1264 745L1264 760ZM1321 760L1321 775C1326.97 775 1327 774.94 1327 769.5L1327 764C1333.97 764 1337.24 763.39 1338.75 762.64C1340.26 761.89 1342.1 759.97 1342.84 758.39C1343.88 756.16 1343.93 754.64 1343.09 751.75C1342.26 748.89 1341.17 747.64 1338.5 746.5C1336.5 745.64 1332 745 1328 745L1321 745L1321 760ZM1388 760L1388 775L1394 775L1394 763C1402.14 762.82 1404.84 762.82 1405.25 762.88C1405.66 762.95 1406 761.88 1406 760.5C1406 758.15 1405.65 757.98 1400.25 757.75L1394.5 757.5L1394 750C1406.92 749.52 1407.52 749.31 1407.75 747.25C1407.99 745.05 1407.78 745 1398 745L1388 745L1388 760ZM1411 760L1411 775L1417.5 774.5C1417.5 763.46 1417.78 762.4 1419 762.76C1419.83 763 1422.64 762.93 1425.25 762.6C1429.13 762.11 1430 761.63 1430 760C1430 758.22 1429.33 758 1424 758L1418 758L1418 750C1430.77 750 1431 749.91 1431 747.5L1431 745L1411 745L1411 760Z" />
		<path class="shp0" d="M897.91 750.06C897.04 750.62 895.77 752.96 895.08 755.28C894.37 757.66 894.12 761.02 894.5 763C894.87 764.92 895.92 767.3 896.83 768.28C897.75 769.26 899.63 770.07 901 770.07C902.38 770.07 904.23 769.26 905.12 768.28C906.02 767.3 907.03 764.81 907.37 762.75C907.72 760.69 907.55 757.2 907 755C906.3 752.19 905.26 750.7 903.5 750C902.13 749.45 900.66 749.01 900.25 749.03C899.84 749.05 898.79 749.51 897.91 750.06ZM1301 749.69C1300.17 749.99 1298.93 750.97 1298.23 751.87C1297.53 752.77 1296.97 756.17 1296.98 759.5C1296.98 763.17 1297.57 766.37 1298.49 767.75C1299.43 769.15 1301.04 770.01 1302.75 770.03C1304.26 770.05 1306.26 769.26 1307.19 768.28C1308.12 767.3 1309.19 764.7 1309.56 762.5C1309.94 760.27 1309.75 756.84 1309.12 754.75C1308.51 752.69 1307.1 750.55 1306 750C1304.9 749.45 1303.66 749.04 1303.25 749.08C1302.84 749.12 1301.83 749.4 1301 749.69ZM1366.5 751.45C1364.62 753.37 1364.08 755.01 1364.05 758.95C1364.02 761.73 1364.56 765.16 1365.25 766.57C1365.94 767.98 1367.4 769.37 1368.5 769.65C1369.6 769.94 1371.39 770.02 1372.47 769.83C1373.55 769.65 1375.01 768.38 1375.7 767C1376.4 765.63 1376.98 762.14 1376.99 759.25C1377 754.97 1376.54 753.54 1374.5 751.5C1373.13 750.13 1371.3 749 1370.45 749C1369.6 749 1367.83 750.1 1366.5 751.45ZM925 754.5C925 758.98 925.02 759 928.5 759C931.17 759 932.36 758.4 933.5 756.5C934.59 754.68 934.73 753.45 934 752C933.25 750.5 932 750 929 750L925 750L925 754.5ZM1242.21 759.75L1242.5 769.5C1247.08 769.92 1248.83 769.17 1250.5 767.5C1252.43 765.57 1253 763.97 1253 760.5C1253 758.02 1252.48 754.99 1251.85 753.75C1251.22 752.51 1250.21 751.17 1249.6 750.77C1249 750.36 1247.02 750.02 1245.21 750.02L1241.93 750L1242.21 759.75ZM1270 754.5C1270 758.83 1270.11 759 1273 759C1274.65 759 1276.9 758.55 1278 758C1279.1 757.45 1280.01 755.99 1280.02 754.75C1280.03 753.51 1279.46 751.93 1278.77 751.23C1278.07 750.54 1275.81 749.97 1273.75 749.98L1270 750L1270 754.5ZM1327 754.5C1327 758.98 1327.02 759 1330.5 759C1332.42 759 1334.67 758.77 1335.5 758.5C1336.34 758.22 1337.01 756.79 1337.02 755.25C1337.03 753.74 1336.46 751.93 1335.77 751.23C1335.07 750.54 1332.81 749.97 1330.75 749.98L1327 750L1327 754.5ZM985.04 755.5C984.39 757.15 983.55 759.75 983.18 761.27C982.53 763.93 982.65 764.05 986.25 764.02C989.66 764 989.94 763.8 989.36 761.75C989 760.51 988.15 757.92 987.47 756L986.22 752.5L985.04 755.5ZM1131.04 755.5C1130.39 757.15 1129.55 759.75 1129.18 761.27C1128.53 763.93 1128.65 764.05 1132.25 764.02C1135.66 764 1135.94 763.8 1135.36 761.75C1135 760.51 1134.15 757.92 1133.47 756L1132.22 752.5L1131.04 755.5Z" />
	</g>
</svg>